{"glyphs":{"0":{"ha":685,"x_min":70,"x_max":610,"o":"m 338 142 q 360 142 338 142 q 405 176 381 142 q 428 319 428 210 l 428 900 q 366 1048 427 1032 q 327 1051 354 1051 q 276 1025 300 1051 q 251 901 251 998 l 251 319 q 273 175 251 208 q 338 142 295 142 m 546 71 q 514 28 546 71 q 340 -14 481 -14 q 134 71 198 -14 q 70 322 70 157 l 70 892 q 135 1129 70 1050 q 340 1208 199 1208 q 545 1129 480 1208 q 610 892 610 1050 l 610 322 q 546 71 610 157 z "},"1":{"ha":458,"x_min":27,"x_max":357,"o":"m 175 0 l 175 968 q 110 925 152 941 q 27 910 68 910 l 27 1045 q 137 1092 85 1053 q 216 1194 189 1131 l 357 1194 l 357 0 l 175 0 z "},"2":{"ha":645,"x_min":96,"x_max":579,"o":"m 109 0 l 109 71 q 139 255 109 164 q 236 460 170 345 q 286 545 239 465 q 354 656 332 626 q 407 897 407 743 q 342 1050 407 1050 q 275 965 288 1050 q 269 873 269 928 l 269 722 l 96 722 l 96 795 q 137 1095 96 1017 q 252 1195 179 1173 q 351 1207 293 1207 q 454 1181 408 1207 q 526 1109 499 1156 q 579 874 579 1019 q 523 621 579 730 q 412 427 467 511 q 281 142 311 271 l 557 142 l 557 0 l 109 0 z "},"3":{"ha":651,"x_min":71,"x_max":588,"o":"m 588 341 q 525 74 588 162 q 322 -14 462 -14 q 127 67 183 -14 q 71 321 71 147 l 71 399 l 241 399 l 241 317 q 257 180 241 218 q 323 142 272 142 q 392 188 375 142 q 410 349 410 234 q 387 513 410 464 q 300 562 365 562 l 248 562 l 248 700 l 298 700 q 386 743 362 700 q 410 884 410 786 q 390 1017 410 983 q 326 1050 370 1050 q 266 1015 283 1050 q 248 891 248 979 l 248 855 l 73 855 l 73 892 q 130 1132 73 1056 q 323 1207 188 1207 q 522 1129 458 1207 q 586 892 586 1051 q 555 727 586 794 q 463 638 525 661 q 559 532 531 606 q 588 341 588 458 z "},"4":{"ha":645,"x_min":61,"x_max":610,"o":"m 355 -1 l 355 210 l 61 210 l 61 344 l 323 1194 l 517 1194 l 517 357 l 610 357 l 610 210 l 517 210 l 517 -1 l 355 -1 m 201 357 l 355 357 l 355 946 l 201 357 z "},"5":{"ha":645,"x_min":83,"x_max":564,"o":"m 319 -14 q 83 233 83 -14 l 83 382 l 253 382 l 253 252 q 285 149 253 169 q 323 142 297 142 q 328 142 325 142 q 387 259 387 142 l 387 564 q 374 662 387 629 q 321 694 360 694 q 250 578 250 694 l 90 585 l 90 1194 l 532 1194 l 532 1031 l 258 1031 l 258 789 q 304 829 271 814 q 378 845 338 845 q 523 753 482 845 q 564 461 564 661 q 550 184 564 262 q 509 66 536 106 q 319 -14 456 -14 z "},"6":{"ha":645,"x_min":69,"x_max":597,"o":"m 251 691 q 399 748 294 748 q 551 663 505 748 q 597 393 597 578 l 597 328 q 543 71 597 155 q 338 -14 489 -14 q 100 127 153 -14 q 69 357 69 212 l 69 848 q 189 1175 69 1107 q 340 1208 247 1207 q 517 1139 462 1208 q 573 906 572 1070 l 573 844 l 404 844 l 404 869 q 391 1013 404 977 q 330 1050 379 1050 q 266 1010 281 1050 q 251 861 251 971 l 251 691 m 270 183 q 280 163 270 183 q 338 144 290 144 q 405 176 387 144 q 422 294 422 208 l 422 408 q 405 549 422 508 q 346 591 387 591 q 280 572 304 591 q 251 527 255 553 l 251 311 q 270 183 251 222 z "},"7":{"ha":645,"x_min":71,"x_max":597,"o":"m 339 1 l 141 1 q 211 426 157 233 q 308 744 265 619 q 369 920 351 869 q 398 1000 387 971 q 410 1035 408 1029 l 71 1035 l 71 1194 l 597 1194 l 597 1062 q 576 980 594 1030 q 528 851 557 929 q 339 1 366 428 z "},"8":{"ha":645,"x_min":62,"x_max":582,"o":"m 518 62 q 486 24 518 62 q 325 -14 455 -14 q 130 61 195 -14 q 63 292 65 137 q 62 384 62 297 q 90 545 62 470 q 163 652 117 619 q 68 909 68 720 q 129 1137 68 1066 q 326 1208 189 1208 q 522 1139 463 1208 q 581 909 581 1069 q 486 652 581 718 q 556 544 530 619 q 582 378 582 469 l 582 296 q 518 62 581 138 m 244 297 q 260 175 245 210 q 325 141 276 141 q 387 175 373 141 q 400 300 400 210 l 400 397 q 326 581 400 581 q 266 533 288 581 q 244 397 244 486 l 244 297 m 283 716 q 324 701 298 701 q 325 701 324 701 q 365 716 350 701 q 390 774 380 732 q 399 893 399 817 q 392 1006 399 968 q 369 1055 384 1044 q 325 1067 354 1067 q 281 1054 296 1067 q 250 889 250 1028 q 283 716 250 750 z "},"9":{"ha":645,"x_min":45,"x_max":558,"o":"m 558 359 q 498 72 558 157 q 310 -14 437 -14 q 123 56 182 -14 q 64 287 64 126 l 64 352 l 235 352 l 235 327 q 251 179 236 216 q 306 142 265 142 q 356 159 347 142 q 372 192 366 176 q 378 297 378 208 l 378 475 q 267 450 340 450 q 96 538 146 450 q 45 803 45 625 l 45 846 q 122 1145 45 1069 q 300 1208 184 1208 q 470 1163 416 1208 q 542 1040 525 1119 q 558 836 558 962 l 558 359 m 301 600 q 378 658 368 600 l 378 884 q 362 1011 378 972 q 301 1050 346 1050 q 239 1010 256 1050 q 223 882 223 971 l 223 776 q 239 638 223 677 q 301 600 255 600 z "}," ":{"ha":249,"x_min":0,"x_max":0,"o":""},"!":{"ha":349,"x_min":78,"x_max":271,"o":"m 85 0 l 85 174 l 262 174 l 262 0 l 85 0 m 138 287 l 78 1194 l 271 1194 l 213 287 l 138 287 z "},"\"":{"ha":640,"x_min":115,"x_max":529,"o":"m 163 763 l 115 1194 l 281 1194 l 237 763 l 163 763 m 411 763 l 363 1194 l 529 1194 l 484 763 l 411 763 z "},"#":{"ha":873,"x_min":95,"x_max":769,"o":"m 104 0 l 180 393 l 95 393 l 95 511 l 203 511 l 241 699 l 140 699 l 140 817 l 264 817 l 340 1195 l 487 1195 l 410 817 l 538 817 l 614 1195 l 761 1195 l 686 817 l 769 817 l 769 699 l 663 699 l 625 511 l 724 511 l 724 393 l 602 393 l 524 0 l 378 0 l 454 393 l 327 393 l 250 0 l 104 0 m 350 510 l 478 510 l 515 697 l 387 697 l 350 510 z "},"$":{"ha":612,"x_min":56,"x_max":543,"o":"m 543 262 q 372 8 543 42 l 372 -149 l 275 -149 l 275 3 q 115 77 170 9 q 59 300 59 144 l 59 366 l 228 366 l 228 284 q 297 149 228 149 q 350 173 334 149 q 366 254 366 197 q 273 443 366 356 q 229 482 270 446 q 181 526 188 519 q 56 795 56 640 q 269 1044 56 1030 l 269 1194 l 366 1194 l 366 1038 q 471 977 433 1023 q 526 753 526 909 q 526 749 526 751 l 526 694 l 365 694 l 365 761 q 349 864 365 830 q 297 897 334 897 q 244 876 261 897 q 227 804 227 855 q 298 654 227 724 l 395 567 q 543 262 543 429 z "},"%":{"ha":1498,"x_min":88,"x_max":1411,"o":"m 258 548 q 266 534 258 548 q 317 521 275 521 q 377 548 360 521 q 393 637 393 574 l 393 970 q 378 1056 393 1031 q 318 1081 362 1081 q 257 1056 273 1081 q 241 970 241 1031 l 241 637 q 258 548 241 574 m 492 463 q 465 428 492 463 q 317 393 437 393 q 143 463 197 393 q 88 682 88 532 l 88 924 q 141 1142 88 1076 q 317 1208 193 1208 q 494 1142 441 1208 q 547 924 547 1076 l 547 682 q 492 463 547 532 m 1105 229 q 1121 140 1105 167 q 1181 113 1138 113 q 1241 140 1224 113 q 1257 229 1257 168 l 1257 563 q 1241 649 1257 624 q 1181 673 1225 673 q 1121 649 1137 673 q 1105 563 1105 624 l 1105 229 m 1411 274 q 1356 55 1411 125 q 1181 -14 1301 -14 q 1006 55 1061 -14 q 951 274 951 125 l 951 517 q 1004 734 951 668 q 1181 800 1057 800 q 1358 734 1305 800 q 1411 517 1411 668 l 1411 274 m 449 0 l 913 1194 l 1052 1194 l 593 0 l 449 0 z "},"&":{"ha":713,"x_min":50,"x_max":706,"o":"m 300 479 q 203 263 203 350 q 298 142 228 171 q 351 165 326 142 q 405 235 376 188 q 300 479 351 355 m 238 631 q 141 983 141 882 q 200 1146 141 1084 q 363 1208 259 1208 q 520 1147 467 1208 q 574 986 574 1087 q 533 803 574 886 q 416 625 491 721 q 503 408 445 549 q 632 593 568 517 l 706 468 q 578 265 653 410 q 570 250 572 255 q 632 104 595 189 q 677 0 669 18 l 509 0 q 470 88 500 22 q 275 -14 385 -14 q 107 57 165 -14 q 50 241 50 127 q 104 447 50 356 q 238 631 158 537 m 359 776 q 449 975 449 892 q 434 1060 449 1035 q 380 1085 419 1085 q 306 977 306 1085 q 359 776 306 928 z "},"'":{"ha":287,"x_min":68,"x_max":229,"o":"m 109 763 l 68 1194 l 229 1194 l 185 763 l 109 763 z "},"(":{"ha":420,"x_min":87,"x_max":362,"o":"m 362 -92 q 233 -79 283 -92 q 150 -32 184 -66 q 101 61 115 2 q 87 212 87 119 l 87 932 q 101 1083 87 1025 q 150 1176 115 1142 q 233 1223 184 1211 q 362 1236 283 1236 l 362 1101 q 285 1069 302 1101 q 268 935 268 1038 l 268 210 q 285 75 268 106 q 362 43 302 43 l 362 -92 z "},")":{"ha":420,"x_min":58,"x_max":332,"o":"m 58 -92 l 58 43 q 136 75 119 43 q 153 210 153 106 l 153 935 q 136 1069 153 1038 q 58 1101 119 1101 l 58 1236 q 187 1223 138 1236 q 271 1176 237 1211 q 318 1083 304 1142 q 332 932 332 1025 l 332 212 q 318 61 332 119 q 271 -32 304 2 q 187 -79 237 -66 q 58 -92 138 -92 z "},"*":{"ha":651,"x_min":62,"x_max":589,"o":"m 262 603 l 286 800 l 129 677 l 64 788 l 241 871 l 62 949 l 126 1061 l 285 943 l 262 1135 l 389 1135 l 370 946 l 525 1063 l 589 952 l 410 871 l 589 785 l 525 675 l 370 796 l 389 603 l 262 603 z "},"+":{"ha":548,"x_min":64,"x_max":484,"o":"m 212 286 l 212 444 l 64 444 l 64 564 l 212 564 l 212 720 l 335 720 l 335 564 l 484 564 l 484 444 l 335 444 l 335 286 l 212 286 z "},",":{"ha":331,"x_min":79,"x_max":275,"o":"m 117 -229 l 164 0 l 79 0 l 79 182 l 275 182 l 275 6 l 205 -229 l 117 -229 z "},"-":{"ha":472,"x_min":60,"x_max":385,"o":"m 60 448 l 60 567 l 385 567 l 385 448 l 60 448 z "},".":{"ha":361,"x_min":101,"x_max":254,"o":"m 101 0 l 101 167 l 254 167 l 254 0 l 101 0 z "},"/":{"ha":560,"x_min":58,"x_max":507,"o":"m 58 0 l 348 1200 l 507 1200 l 217 0 l 58 0 z "},":":{"ha":376,"x_min":92,"x_max":284,"o":"m 92 183 l 92 366 l 284 366 l 284 183 l 92 183 m 92 704 l 92 886 l 284 886 l 284 704 l 92 704 z "},";":{"ha":380,"x_min":85,"x_max":295,"o":"m 125 -73 l 178 173 l 90 173 l 90 361 l 295 361 l 295 179 l 221 -73 l 125 -73 m 85 640 l 85 848 l 290 848 l 290 640 l 85 640 z "},"<":{"ha":495,"x_min":44,"x_max":433,"o":"m 433 161 l 44 412 l 44 610 l 433 857 l 433 671 l 164 511 l 433 346 l 433 161 z "},"=":{"ha":490,"x_min":71,"x_max":419,"o":"m 71 372 l 71 500 l 419 500 l 419 372 l 71 372 m 71 605 l 71 730 l 419 730 l 419 605 l 71 605 z "},">":{"ha":495,"x_min":61,"x_max":450,"o":"m 61 161 l 61 348 l 330 508 l 61 673 l 61 857 l 450 609 l 450 410 l 61 161 z "},"?":{"ha":608,"x_min":81,"x_max":553,"o":"m 170 335 l 170 549 q 258 580 233 566 q 299 605 284 595 q 331 640 313 614 q 360 712 349 665 q 371 871 371 759 l 371 916 q 366 1014 371 1001 q 353 1038 361 1026 q 323 1050 345 1050 q 262 1000 269 1050 q 258 906 258 967 l 258 787 l 81 787 l 81 933 q 315 1208 81 1208 q 495 1143 443 1208 q 541 1034 530 1100 q 553 882 553 968 q 553 863 553 864 q 553 848 553 855 q 553 836 553 842 q 548 742 553 788 q 487 558 535 620 q 330 464 437 495 l 330 335 l 170 335 m 174 1 l 174 203 l 332 203 l 332 1 l 174 1 z "},"@":{"ha":1012,"x_min":66,"x_max":947,"o":"m 499 -40 q 178 110 291 -40 q 66 567 66 260 q 279 1128 66 975 q 551 1207 389 1207 q 846 1054 746 1207 q 947 617 947 900 q 900 352 947 448 q 755 256 853 256 q 674 296 712 256 q 621 405 636 336 q 573 287 608 330 q 488 245 538 245 q 354 319 407 245 q 302 543 302 393 q 351 782 302 693 q 486 870 400 870 q 559 846 526 870 q 608 787 591 823 l 629 870 l 716 870 l 716 501 q 727 401 716 434 q 765 369 739 369 q 804 393 791 369 q 832 639 831 441 q 543 1091 832 1091 q 283 954 368 1091 q 199 564 199 817 q 274 193 199 311 q 501 75 349 75 q 632 94 570 75 l 650 -20 q 499 -40 553 -40 m 516 746 q 419 545 419 746 q 507 371 419 371 q 574 411 547 371 q 602 515 602 450 l 602 720 q 516 746 552 746 z "},"A":{"ha":662,"x_min":35,"x_max":627,"o":"m 410 359 l 330 958 l 327 958 l 254 359 l 410 359 m 35 0 l 205 1194 l 446 1194 l 627 0 l 457 0 l 429 213 l 236 213 l 210 0 l 35 0 z "},"B":{"ha":675,"x_min":96,"x_max":623,"o":"m 600 887 q 496 650 600 694 q 623 369 623 608 l 623 338 q 561 79 622 159 q 360 0 499 0 l 96 0 l 96 1194 l 355 1194 q 544 1132 488 1194 q 600 924 600 1069 l 600 887 m 278 141 l 342 141 q 418 178 397 141 q 440 312 440 216 l 440 408 q 422 537 440 499 q 355 574 405 574 l 278 574 l 278 141 m 278 711 l 345 711 q 407 741 392 711 q 421 863 421 770 l 421 935 q 402 1028 420 1004 q 339 1051 384 1051 l 278 1051 l 278 711 z "},"C":{"ha":652,"x_min":75,"x_max":593,"o":"m 593 326 q 532 70 593 153 q 338 -14 470 -14 q 140 75 205 -14 q 75 330 75 163 l 75 850 q 214 1183 75 1116 q 339 1207 266 1207 q 591 890 591 1207 l 591 726 l 415 726 l 415 878 q 399 1010 415 970 q 338 1050 384 1050 q 275 1008 293 1050 q 258 879 258 966 l 258 321 q 275 184 258 225 q 336 142 292 142 q 398 184 381 142 q 415 323 415 227 l 415 494 l 593 494 l 593 326 z "},"D":{"ha":682,"x_min":89,"x_max":608,"o":"m 271 141 l 330 141 q 403 174 380 141 q 426 293 426 206 l 425 882 q 402 1015 425 975 q 324 1054 380 1054 l 271 1054 l 271 141 m 89 0 l 89 1194 l 357 1194 q 548 1116 488 1194 q 607 887 607 1038 l 608 349 q 548 84 608 168 q 351 0 488 0 l 89 0 z "},"E":{"ha":553,"x_min":90,"x_max":498,"o":"m 90 0 l 90 1194 l 490 1194 l 490 1037 l 271 1037 l 271 690 l 479 690 l 479 536 l 271 536 l 271 157 l 498 157 l 498 0 l 90 0 z "},"F":{"ha":540,"x_min":89,"x_max":498,"o":"m 89 0 l 89 1194 l 498 1194 l 498 1036 l 271 1036 l 271 718 l 482 718 l 482 559 l 271 559 l 271 0 l 89 0 z "},"G":{"ha":678,"x_min":75,"x_max":597,"o":"m 314 -12 q 138 76 201 -12 q 75 349 75 165 l 75 868 q 139 1120 75 1034 q 345 1207 204 1207 q 568 1076 521 1207 q 597 861 597 998 l 597 777 l 427 777 l 427 901 q 410 1017 427 983 q 345 1050 393 1050 q 277 1010 297 1050 q 258 869 258 970 l 258 352 q 275 189 258 235 q 344 142 293 142 q 417 192 395 142 q 438 359 438 241 l 438 519 l 347 519 l 347 652 l 597 652 l 597 0 l 515 0 l 488 117 q 425 22 473 57 q 314 -12 377 -12 z "},"H":{"ha":705,"x_min":90,"x_max":616,"o":"m 90 0 l 90 1194 l 271 1194 l 271 711 l 434 711 l 434 1194 l 616 1194 l 616 0 l 434 0 l 434 555 l 271 555 l 271 0 l 90 0 z "},"I":{"ha":374,"x_min":96,"x_max":278,"o":"m 96 0 l 96 1194 l 278 1194 l 278 0 l 96 0 z "},"J":{"ha":625,"x_min":46,"x_max":538,"o":"m 538 292 q 474 66 538 146 q 293 -14 410 -14 q 111 57 176 -14 q 46 264 46 128 l 46 477 l 222 477 l 222 273 q 254 152 222 174 q 289 142 268 142 q 343 176 330 142 q 357 283 357 210 l 357 1194 l 538 1194 l 538 292 z "},"K":{"ha":658,"x_min":90,"x_max":656,"o":"m 90 0 l 90 1194 l 271 1194 l 271 644 l 453 1194 l 641 1194 l 443 605 l 656 0 l 465 0 l 273 557 l 273 0 l 90 0 z "},"L":{"ha":516,"x_min":90,"x_max":501,"o":"m 90 0 l 90 1194 l 271 1194 l 271 155 l 501 155 l 501 0 l 90 0 z "},"M":{"ha":962,"x_min":90,"x_max":871,"o":"m 90 0 l 90 1194 l 315 1194 l 485 321 l 644 1194 l 871 1194 l 871 0 l 709 0 l 709 445 l 716 853 l 555 5 l 411 5 l 243 853 l 250 445 l 250 0 l 90 0 z "},"N":{"ha":725,"x_min":90,"x_max":635,"o":"m 90 0 l 90 1194 l 232 1194 l 485 477 l 472 803 l 472 1194 l 635 1194 l 635 0 l 507 0 l 247 741 l 257 428 l 257 0 l 90 0 z "},"O":{"ha":677,"x_min":75,"x_max":602,"o":"m 258 332 q 274 185 258 227 q 339 144 290 144 q 404 186 389 144 q 420 332 420 229 l 420 888 q 404 1011 420 972 q 341 1050 388 1050 q 276 1011 295 1050 q 258 888 258 972 l 258 332 m 602 334 q 540 73 602 159 q 340 -14 477 -14 q 139 73 203 -14 q 75 334 75 159 l 75 880 q 342 1208 75 1208 q 542 1124 481 1208 q 602 880 602 1041 l 602 334 z "},"P":{"ha":640,"x_min":90,"x_max":608,"o":"m 90 0 l 90 1194 l 363 1194 q 554 1109 503 1194 q 608 857 605 1025 l 608 832 q 557 563 608 654 q 370 471 507 471 l 271 471 l 271 0 l 90 0 m 271 621 l 334 621 q 409 665 391 621 q 426 834 426 709 l 426 857 q 407 1008 425 963 q 335 1054 389 1054 l 271 1054 l 271 621 z "},"Q":{"ha":684,"x_min":75,"x_max":602,"o":"m 602 334 q 464 10 602 74 l 575 -120 l 486 -198 l 315 -13 q 136 77 197 -5 q 75 334 75 159 l 75 880 q 342 1208 75 1208 q 542 1124 481 1208 q 602 880 602 1041 l 602 334 m 258 332 q 274 185 258 227 q 339 144 290 144 q 404 186 389 144 q 420 332 420 229 l 420 888 q 404 1011 420 972 q 341 1050 388 1050 q 276 1011 295 1050 q 258 888 258 972 l 258 332 z "},"R":{"ha":685,"x_min":90,"x_max":614,"o":"m 330 561 l 271 564 l 271 0 l 90 0 l 90 1194 l 390 1194 q 530 1156 484 1194 q 590 1051 576 1118 q 605 874 605 983 q 582 709 605 766 q 496 632 559 652 q 583 549 558 621 q 607 247 607 476 q 614 0 607 17 l 432 0 q 425 428 425 14 q 406 533 425 507 q 330 561 387 559 m 272 705 l 345 705 q 396 720 379 705 q 419 774 412 736 q 425 890 425 812 l 425 897 q 409 1024 425 994 q 334 1054 393 1054 l 272 1054 l 272 705 z "},"S":{"ha":614,"x_min":64,"x_max":570,"o":"m 66 336 l 66 442 l 238 442 l 238 322 q 255 182 238 222 q 319 142 272 142 q 381 175 366 142 q 396 283 396 208 q 369 415 396 359 q 283 532 342 471 l 195 623 q 99 756 133 687 q 64 916 64 825 q 121 1136 64 1064 q 317 1208 178 1208 q 506 1124 456 1208 q 555 880 555 1040 l 555 806 l 387 806 l 387 891 q 372 1016 387 978 q 315 1053 357 1053 q 254 1025 273 1053 q 235 939 235 996 q 254 848 235 882 q 323 762 273 814 l 421 655 q 533 493 495 575 q 570 314 570 411 q 514 66 570 146 q 317 -14 458 -14 q 121 76 176 -14 q 66 336 66 165 z "},"T":{"ha":477,"x_min":11,"x_max":466,"o":"m 151 0 l 151 1036 l 11 1036 l 11 1194 l 466 1194 l 466 1036 l 332 1036 l 332 0 l 151 0 z "},"U":{"ha":692,"x_min":83,"x_max":609,"o":"m 609 307 q 547 64 609 142 q 346 -14 484 -14 q 145 64 208 -14 q 83 307 83 142 l 83 1194 l 264 1194 l 264 310 q 273 195 264 216 q 295 158 282 175 q 347 142 307 142 q 403 165 386 142 q 424 222 420 188 q 427 310 427 256 l 427 1194 l 609 1194 l 609 307 z "},"V":{"ha":655,"x_min":38,"x_max":618,"o":"m 223 0 l 38 1194 l 211 1194 l 289 654 l 337 275 l 342 275 l 383 654 l 448 1194 l 618 1194 l 448 0 l 223 0 z "},"W":{"ha":941,"x_min":41,"x_max":901,"o":"m 186 0 l 41 1194 l 203 1194 l 291 343 l 402 1194 l 549 1194 l 661 343 l 738 1194 l 901 1194 l 764 0 l 583 0 l 477 793 l 368 0 l 186 0 z "},"X":{"ha":596,"x_min":24,"x_max":576,"o":"m 419 0 l 298 367 l 199 0 l 24 0 l 208 640 l 24 1194 l 178 1194 l 296 839 l 392 1194 l 562 1194 l 382 583 l 576 0 l 419 0 z "},"Y":{"ha":585,"x_min":6,"x_max":578,"o":"m 206 0 l 206 477 l 6 1194 l 180 1194 l 298 747 l 300 747 l 406 1194 l 578 1194 l 388 477 l 388 0 l 206 0 z "},"Z":{"ha":549,"x_min":66,"x_max":505,"o":"m 66 0 l 66 161 l 314 1037 l 89 1037 l 89 1194 l 505 1194 l 505 1046 l 257 157 l 499 157 l 499 0 l 66 0 z "},"[":{"ha":518,"x_min":121,"x_max":441,"o":"m 121 0 l 121 1194 l 441 1194 l 441 1053 l 302 1053 l 302 142 l 441 142 l 441 0 l 121 0 z "},"\\":{"ha":589,"x_min":65,"x_max":505,"o":"m 344 0 l 65 1194 l 227 1194 l 505 0 l 344 0 z "},"]":{"ha":518,"x_min":92,"x_max":411,"o":"m 92 0 l 92 142 l 231 142 l 231 1053 l 92 1053 l 92 1194 l 411 1194 l 411 0 l 92 0 z "},"^":{"ha":699,"x_min":77,"x_max":621,"o":"m 77 391 l 241 1017 l 457 1017 l 621 391 l 447 391 l 349 873 l 252 391 l 77 391 z "},"_":{"ha":507,"x_min":33,"x_max":474,"o":"m 33 -143 l 33 -19 l 474 -19 l 474 -143 l 33 -143 z "},"`":{"ha":441,"x_min":71,"x_max":351,"o":"m 351 616 l 71 680 l 71 859 l 351 722 l 351 616 z "},"a":{"ha":665,"x_min":73,"x_max":585,"o":"m 401 552 q 286 480 315 514 q 256 375 256 446 l 256 266 q 271 164 256 195 q 319 133 286 133 q 374 156 353 133 q 401 207 395 178 l 401 552 m 259 -10 q 117 61 159 -10 q 73 267 74 133 l 73 332 q 143 530 73 463 q 297 615 189 574 q 352 635 317 623 q 401 654 387 648 l 401 743 q 389 855 401 825 q 335 884 377 884 q 278 853 292 884 q 264 748 264 822 l 264 703 l 86 703 l 86 733 q 140 954 86 878 q 331 1029 194 1029 q 527 954 469 1029 q 585 726 585 878 l 585 0 l 404 0 l 404 101 q 352 22 390 54 q 259 -10 313 -10 z "},"b":{"ha":675,"x_min":90,"x_max":601,"o":"m 269 95 l 269 0 l 90 0 l 90 1204 l 269 1204 l 269 944 q 321 1006 284 982 q 402 1029 359 1029 q 574 913 532 1029 q 600 725 600 838 l 600 294 q 600 292 600 293 q 502 12 600 71 q 416 -10 465 -10 q 413 -10 415 -10 q 269 95 309 -9 m 269 309 q 286 175 269 217 q 348 134 302 134 q 407 174 393 134 q 420 311 420 214 l 420 728 q 388 873 420 849 q 351 884 374 884 q 288 850 307 884 q 269 728 269 817 l 269 309 z "},"c":{"ha":640,"x_min":75,"x_max":574,"o":"m 335 -12 q 129 78 182 -12 q 75 339 75 168 l 75 669 q 152 968 75 890 q 338 1029 214 1029 q 519 954 463 1029 q 574 736 574 878 l 574 624 l 401 624 l 401 742 q 384 859 401 835 q 328 882 368 882 q 272 847 289 882 q 256 739 256 812 l 256 281 q 271 170 256 205 q 330 135 286 135 q 399 220 391 136 q 401 266 401 239 q 401 280 401 273 l 401 401 l 574 401 l 574 298 q 519 68 574 149 q 335 -12 463 -12 z "},"d":{"ha":677,"x_min":75,"x_max":587,"o":"m 262 -10 q 139 36 180 -10 q 86 153 98 82 q 75 325 75 224 l 75 739 q 121 948 75 867 q 276 1029 168 1029 q 353 1009 318 1029 q 408 954 388 989 l 408 1204 l 587 1204 l 587 0 l 408 0 l 408 94 q 262 -10 367 -10 m 256 300 q 272 175 256 216 q 331 133 288 133 q 392 175 375 133 q 408 314 408 216 l 408 721 q 370 873 408 846 q 331 884 354 884 q 271 842 286 884 q 256 719 256 801 l 256 300 z "},"e":{"ha":650,"x_min":75,"x_max":579,"o":"m 327 -12 q 106 119 155 -12 q 75 338 75 202 l 75 718 q 334 1029 75 1029 q 526 947 473 1029 q 579 714 579 865 l 579 496 l 256 496 l 256 296 q 274 162 256 191 q 329 133 292 133 q 376 150 366 133 q 397 211 395 180 q 400 296 400 242 l 400 386 l 578 386 l 578 332 q 556 133 578 193 q 506 45 534 73 q 327 -12 446 -12 m 255 602 l 400 602 l 400 732 q 387 851 400 815 q 333 888 374 888 q 332 888 332 888 q 256 780 262 888 q 255 727 255 760 l 255 602 z "},"f":{"ha":432,"x_min":39,"x_max":400,"o":"m 117 0 l 117 848 l 39 848 l 39 977 l 118 977 l 118 1030 q 162 1163 118 1116 q 281 1210 207 1210 q 400 1193 355 1210 l 400 1080 q 353 1083 380 1083 q 297 1025 297 1083 l 297 977 l 400 977 l 400 848 l 297 848 l 297 0 l 117 0 z "},"g":{"ha":671,"x_min":68,"x_max":587,"o":"m 587 125 q 523 -79 587 -5 q 309 -153 460 -153 q 68 -80 158 -153 l 131 33 q 281 -18 212 -18 q 379 17 351 -18 q 407 112 407 52 l 407 193 q 355 124 390 144 q 266 104 320 104 q 118 183 159 104 q 77 395 77 262 l 77 722 q 270 1029 77 1029 q 273 1029 271 1029 q 407 927 378 1029 l 407 1017 l 587 1017 l 587 125 m 258 403 q 274 280 258 319 q 332 240 290 240 q 390 276 374 240 q 407 404 407 311 l 407 737 q 390 846 407 808 q 328 884 372 884 q 271 845 284 884 q 258 738 258 806 l 258 403 z "},"h":{"ha":689,"x_min":90,"x_max":606,"o":"m 90 0 l 90 1204 l 269 1204 l 269 901 q 326 992 283 956 q 427 1029 368 1029 q 561 971 515 1029 q 606 801 606 912 l 606 0 l 427 0 l 427 784 q 355 882 427 882 q 292 848 314 882 q 269 756 269 814 l 269 0 l 90 0 z "},"i":{"ha":362,"x_min":90,"x_max":272,"o":"m 92 0 l 92 1017 l 272 1017 l 272 0 l 92 0 m 90 1111 l 90 1267 l 271 1267 l 271 1111 l 90 1111 z "},"j":{"ha":382,"x_min":41,"x_max":294,"o":"m 151 -133 q 98 -134 138 -134 q 41 -122 57 -134 l 41 2 q 72 1 53 -1 q 115 47 115 3 l 115 1017 l 294 1017 l 294 54 q 257 -85 294 -39 q 151 -133 219 -132 m 112 1111 l 112 1267 l 293 1267 l 293 1111 l 112 1111 z "},"k":{"ha":635,"x_min":90,"x_max":637,"o":"m 90 0 l 90 1204 l 269 1204 l 269 555 l 443 1017 l 625 1017 l 429 517 l 637 0 l 454 0 l 269 484 l 269 0 l 90 0 z "},"l":{"ha":362,"x_min":92,"x_max":271,"o":"m 92 0 l 92 1204 l 271 1204 l 271 0 l 92 0 z "},"m":{"ha":1021,"x_min":90,"x_max":937,"o":"m 758 0 l 758 781 q 690 882 758 882 q 626 854 648 882 q 604 772 604 825 l 604 0 l 424 0 l 424 783 q 357 882 424 882 q 291 849 313 882 q 269 762 269 815 l 269 0 l 90 0 l 90 1017 l 269 1017 l 269 907 q 326 997 285 964 q 432 1029 366 1029 q 583 927 545 1029 q 755 1029 637 1029 q 894 966 851 1029 q 937 779 937 902 l 937 0 l 758 0 z "},"n":{"ha":692,"x_min":90,"x_max":609,"o":"m 433 1029 q 609 801 609 1029 l 609 0 l 429 0 l 429 790 q 409 859 429 834 q 351 884 389 884 q 291 852 313 884 q 269 764 269 819 l 269 0 l 90 0 l 90 1017 l 269 1017 l 269 901 q 328 992 283 955 q 433 1029 372 1029 z "},"o":{"ha":658,"x_min":75,"x_max":583,"o":"m 330 133 q 387 170 372 133 q 402 280 402 207 l 402 735 q 387 847 402 810 q 329 884 371 884 q 271 847 287 884 q 256 735 256 810 l 256 280 q 292 143 256 168 q 330 133 307 133 m 330 -12 q 130 74 186 -12 q 75 323 75 160 l 75 703 q 329 1029 75 1029 q 583 703 583 1029 l 583 323 q 452 10 583 68 q 330 -12 402 -12 z "},"p":{"ha":677,"x_min":90,"x_max":602,"o":"m 90 -193 l 90 1017 l 269 1017 l 269 926 q 330 1001 288 974 q 416 1027 371 1027 q 495 1011 461 1027 q 580 904 558 981 q 602 711 602 827 l 602 340 q 568 91 602 161 q 475 0 533 20 q 400 -12 441 -12 q 325 9 359 -12 q 269 62 290 30 l 269 -193 l 90 -193 m 269 298 q 286 173 269 213 q 347 134 302 134 q 406 175 391 134 q 421 305 421 216 l 421 727 q 388 873 421 849 q 350 884 373 884 q 289 851 309 884 q 269 728 269 817 l 269 298 z "},"q":{"ha":672,"x_min":75,"x_max":585,"o":"m 75 711 q 260 1027 75 1027 q 405 940 367 1027 l 405 1017 l 585 1017 l 585 -193 l 405 -193 l 405 69 q 355 12 391 35 q 275 -12 320 -12 q 193 5 229 -12 q 100 119 125 37 q 75 326 75 201 l 75 711 m 324 133 q 386 168 368 133 q 405 291 405 203 l 405 721 q 387 845 405 806 q 326 884 370 884 q 268 842 281 884 q 255 718 255 801 l 255 296 q 286 144 255 170 q 324 133 301 133 z "},"r":{"ha":467,"x_min":90,"x_max":446,"o":"m 444 1029 q 446 916 446 1029 l 446 878 q 339 859 391 878 q 271 807 287 841 l 271 0 l 90 0 l 90 1017 l 271 1017 l 271 904 q 333 997 288 964 q 444 1029 377 1029 z "},"s":{"ha":588,"x_min":56,"x_max":543,"o":"m 56 780 q 296 1029 56 1029 q 470 961 415 1029 q 526 734 526 893 l 526 679 l 365 679 l 365 746 q 349 849 365 815 q 297 882 334 882 q 244 861 261 882 q 227 789 227 840 q 298 640 227 709 l 395 552 q 543 248 543 414 q 484 52 543 117 q 301 -13 425 -13 q 118 58 177 -13 q 59 286 59 129 l 59 351 l 228 351 l 228 269 q 297 134 228 134 q 350 158 334 134 q 366 239 366 182 q 273 428 366 341 q 229 467 270 431 q 181 511 188 504 q 56 780 56 625 z "},"t":{"ha":437,"x_min":32,"x_max":397,"o":"m 275 -7 q 147 30 180 -7 q 115 155 115 66 l 115 866 l 32 866 l 32 996 l 115 996 l 115 1194 l 294 1194 l 294 996 l 393 996 l 393 866 l 294 866 l 294 186 q 313 140 294 151 q 397 130 332 130 l 397 -7 l 275 -7 z "},"u":{"ha":688,"x_min":83,"x_max":599,"o":"m 264 -13 q 83 231 83 -13 l 83 1017 l 263 1017 l 263 258 q 279 165 263 195 q 337 135 294 135 q 419 257 419 135 l 420 1017 l 599 1017 l 599 0 l 419 0 l 419 106 q 264 -13 376 -13 z "},"v":{"ha":566,"x_min":26,"x_max":541,"o":"m 173 0 l 26 1017 l 195 1017 l 261 476 l 283 233 l 297 233 l 316 477 l 372 1017 l 541 1017 l 393 0 l 173 0 z "},"w":{"ha":848,"x_min":30,"x_max":817,"o":"m 531 0 l 428 764 l 318 0 l 166 0 l 30 1017 l 181 1017 l 233 588 l 256 370 l 260 370 l 282 589 l 342 1017 l 503 1017 l 569 597 l 597 370 l 602 370 l 621 596 l 667 1017 l 817 1017 l 688 0 l 531 0 z "},"x":{"ha":556,"x_min":12,"x_max":545,"o":"m 378 0 l 272 304 l 178 0 l 12 0 l 193 531 l 23 1017 l 182 1017 l 287 724 l 376 1017 l 535 1017 l 363 512 l 545 0 l 378 0 z "},"y":{"ha":578,"x_min":28,"x_max":561,"o":"m 60 -180 l 60 -56 l 119 -56 q 171 -50 153 -56 q 192 -28 190 -45 q 196 -3 196 -22 q 191 46 196 15 l 28 1018 l 199 1018 l 264 497 l 292 223 l 307 223 l 331 497 l 391 1018 l 561 1018 l 385 -43 q 346 -150 373 -120 q 251 -180 319 -180 l 60 -180 z "},"z":{"ha":493,"x_min":47,"x_max":454,"o":"m 47 0 l 47 136 l 271 863 l 64 863 l 64 1017 l 454 1017 l 454 888 l 231 151 l 444 151 l 444 0 l 47 0 z "},"{":{"ha":541,"x_min":90,"x_max":457,"o":"m 416 -82 q 236 -33 288 -82 q 184 147 184 16 l 184 334 q 161 463 184 444 q 90 481 138 481 l 90 644 q 155 658 138 644 q 178 697 172 671 q 184 792 184 723 l 184 979 q 236 1159 184 1109 q 416 1208 288 1208 l 457 1208 l 457 1073 q 380 1054 397 1073 q 363 970 363 1034 l 363 803 q 354 669 363 714 q 324 601 346 625 q 255 563 302 577 q 324 525 302 549 q 354 456 346 501 q 363 323 363 412 l 363 156 q 380 72 363 92 q 457 53 397 53 l 457 -82 l 416 -82 z "},"|":{"ha":364,"x_min":102,"x_max":267,"o":"m 102 -57 l 102 1263 l 267 1263 l 267 -57 l 102 -57 z "},"}":{"ha":541,"x_min":90,"x_max":457,"o":"m 90 -82 l 90 53 q 168 72 151 53 q 184 156 184 92 l 184 323 q 193 456 184 412 q 224 525 201 501 q 293 563 246 549 q 224 601 246 577 q 193 669 201 625 q 184 803 184 714 l 184 970 q 168 1054 184 1034 q 90 1073 151 1073 l 90 1208 l 131 1208 q 311 1159 259 1208 q 363 979 363 1109 l 363 792 q 386 663 363 682 q 457 644 409 644 l 457 481 q 392 468 409 481 q 369 429 375 454 q 363 334 363 403 l 363 147 q 311 -33 363 16 q 131 -82 259 -82 l 90 -82 z "},"~":{"ha":758,"x_min":68,"x_max":684,"o":"m 638 661 q 622 632 638 661 q 577 576 606 603 q 514 549 548 549 q 382 585 480 549 q 255 620 284 620 q 213 606 226 620 q 184 557 199 591 l 68 612 q 235 793 122 793 q 376 760 274 793 q 487 728 478 728 q 558 802 534 728 l 684 774 q 638 661 671 720 z "}," ":{"ha":249,"x_min":0,"x_max":0,"o":""},"¡":{"ha":356,"x_min":90,"x_max":282,"o":"m 275 1034 l 275 860 l 98 860 l 98 1034 l 275 1034 m 222 747 l 282 -161 l 90 -161 l 147 747 l 222 747 z "},"¢":{"ha":534,"x_min":75,"x_max":574,"o":"m 359 -12 l 359 -170 l 282 -170 l 282 -9 q 123 87 172 5 q 75 339 75 168 l 75 669 q 152 968 75 890 q 282 1026 199 1015 l 282 1198 l 359 1198 l 359 1029 q 521 950 468 1023 q 574 736 574 878 l 574 624 l 401 624 l 401 742 q 384 859 401 835 q 328 882 368 882 q 272 847 289 882 q 256 739 256 812 l 256 281 q 271 170 256 205 q 330 135 286 135 q 399 220 391 136 q 401 266 401 239 q 401 280 401 273 l 401 401 l 574 401 l 574 298 q 522 72 574 149 q 359 -12 469 -5 z "},"£":{"ha":730,"x_min":56,"x_max":653,"o":"m 488 945 q 488 946 488 945 q 392 1063 488 1063 q 283 959 283 1063 q 314 829 283 937 q 361 660 345 720 l 587 660 l 587 531 l 395 531 q 406 422 406 473 q 373 251 406 320 q 281 153 340 182 l 647 153 l 647 0 l 56 0 l 56 139 q 185 246 141 176 q 229 428 229 315 q 218 531 229 480 l 62 531 l 62 660 l 191 660 q 113 942 113 908 q 184 1139 113 1071 q 401 1208 256 1208 q 653 937 653 1208 l 653 845 l 488 845 l 488 945 z "},"¤":{"ha":786,"x_min":85,"x_max":701,"o":"m 186 345 l 85 447 l 146 509 q 111 654 111 575 q 146 799 111 733 l 85 860 l 186 962 l 245 902 q 393 939 311 939 q 541 903 475 939 l 600 962 l 701 861 l 640 800 q 677 654 677 734 q 640 507 677 574 l 701 446 l 600 345 l 539 405 q 393 370 477 370 q 246 406 309 370 l 186 345 m 291 546 q 310 524 291 546 q 393 503 330 503 q 495 547 456 503 q 534 655 534 591 q 496 762 534 720 q 393 804 457 804 q 291 761 330 804 q 252 653 252 718 q 291 546 252 589 z "},"¥":{"ha":587,"x_min":6,"x_max":578,"o":"m 388 317 l 525 317 l 525 214 l 388 214 l 388 0 l 206 0 l 206 214 l 64 214 l 64 317 l 206 317 l 206 420 l 64 420 l 64 522 l 193 522 l 6 1194 l 180 1194 l 298 747 l 300 747 l 406 1194 l 578 1194 l 400 522 l 525 522 l 525 420 l 388 420 l 388 317 z "},"¦":{"ha":359,"x_min":83,"x_max":277,"o":"m 83 -57 l 83 491 l 277 491 l 277 -57 l 83 -57 m 83 631 l 83 1194 l 277 1194 l 277 631 l 83 631 z "},"§":{"ha":644,"x_min":73,"x_max":580,"o":"m 334 149 q 384 195 384 149 q 375 239 384 226 q 361 260 367 252 q 345 278 356 268 q 326 295 334 288 q 303 313 318 302 q 280 330 289 324 q 254 349 271 336 q 203 386 237 361 q 127 457 169 410 q 85 570 85 505 q 168 775 85 699 q 106 865 127 812 q 85 972 85 917 q 155 1146 85 1084 q 340 1208 226 1208 q 517 1142 455 1208 q 578 930 578 1077 l 393 930 q 381 1021 393 996 q 337 1046 369 1046 q 279 984 279 1046 q 427 832 279 931 q 430 831 429 831 q 432 829 431 830 q 453 816 433 829 q 503 773 473 804 q 555 696 532 743 q 578 599 578 649 q 549 498 578 549 q 475 406 519 447 q 554 310 528 356 q 580 199 580 264 q 514 42 580 97 q 325 -14 448 -14 q 137 52 202 -14 q 73 265 73 117 l 275 265 q 291 173 275 196 q 334 149 307 149 m 367 498 q 397 581 397 549 q 289 690 397 644 q 258 610 258 646 q 291 545 258 574 q 367 498 323 516 z "},"¨":{"ha":662,"x_min":71,"x_max":591,"o":"m 71 612 l 71 766 l 262 766 l 262 612 l 71 612 m 399 612 l 399 766 l 591 766 l 591 612 l 399 612 z "},"©":{"ha":994,"x_min":52,"x_max":943,"o":"m 645 435 q 611 323 645 359 q 500 287 576 287 q 381 328 425 287 q 337 439 337 368 l 337 711 q 499 884 337 884 q 605 850 568 884 q 642 749 642 816 l 642 645 l 530 645 l 530 713 q 499 766 530 766 q 475 755 481 766 q 469 722 469 744 l 469 445 q 477 414 469 428 q 499 401 486 401 q 530 445 530 401 l 530 546 l 645 546 l 645 435 m 323 274 q 362 250 323 274 q 497 226 401 226 q 671 274 593 226 q 792 404 749 322 q 835 584 835 486 q 792 764 835 682 q 671 894 749 846 q 497 942 593 942 q 323 894 401 942 q 202 764 245 846 q 159 584 159 682 q 202 404 159 486 q 323 274 245 322 m 724 197 q 673 168 724 197 q 497 138 622 138 q 270 197 372 138 q 110 357 168 255 q 52 584 52 459 q 110 811 52 709 q 270 971 168 913 q 497 1029 372 1029 q 724 971 622 1029 q 884 811 826 913 q 943 584 943 709 q 884 357 943 459 q 724 197 826 255 z "},"ª":{"ha":629,"x_min":113,"x_max":520,"o":"m 262 261 q 148 318 182 261 q 113 481 114 374 l 113 534 q 151 675 113 611 q 203 720 163 696 q 265 751 243 743 q 375 793 286 760 l 375 822 q 370 930 375 907 q 324 975 359 975 q 277 951 288 975 q 265 869 265 927 l 265 829 l 124 829 q 123 854 123 833 q 168 1031 123 972 q 320 1090 212 1090 q 474 1029 429 1090 q 520 848 520 969 l 520 269 l 376 269 l 376 344 q 336 288 368 314 q 262 261 304 261 m 258 481 q 270 400 258 425 q 309 375 282 375 q 353 393 336 375 q 374 434 370 411 l 374 703 q 281 648 304 673 q 258 564 258 622 l 258 481 z "},"«":{"ha":884,"x_min":60,"x_max":768,"o":"m 393 222 l 60 415 l 60 602 l 393 785 l 393 604 l 181 508 l 393 406 l 393 222 m 768 222 l 435 415 l 435 602 l 768 785 l 768 604 l 557 508 l 768 406 l 768 222 z "},"¬":{"ha":642,"x_min":66,"x_max":560,"o":"m 408 298 l 408 504 l 66 504 l 66 664 l 560 664 l 560 298 l 408 298 z "},"­":{"ha":472,"x_min":61,"x_max":411,"o":"m 61 345 l 61 503 l 411 503 l 411 345 l 61 345 z "},"®":{"ha":1019,"x_min":64,"x_max":955,"o":"m 359 292 l 359 869 l 555 869 q 647 829 623 869 q 671 724 671 789 q 657 631 671 659 q 608 592 643 604 q 661 509 661 582 l 661 292 l 536 292 l 536 517 q 526 548 536 541 q 488 555 515 555 l 488 292 l 359 292 m 336 275 q 375 251 336 275 q 509 227 414 227 q 683 275 605 227 q 804 405 761 323 q 847 585 847 487 q 804 764 847 682 q 683 895 761 846 q 509 943 605 943 q 336 895 414 943 q 215 764 258 846 q 172 585 172 682 q 215 405 172 487 q 336 275 258 323 m 736 197 q 685 168 736 197 q 509 139 634 139 q 282 197 385 139 q 122 358 180 256 q 64 585 64 460 q 122 811 64 709 q 282 972 180 913 q 509 1030 385 1030 q 736 972 634 1030 q 897 811 838 913 q 955 585 955 709 q 897 358 955 460 q 736 197 838 256 m 488 654 l 521 654 q 546 699 546 654 q 535 752 546 743 q 488 762 525 762 l 488 654 z "},"¯":{"ha":472,"x_min":61,"x_max":405,"o":"m 61 628 l 61 730 l 405 730 l 405 628 l 61 628 z "},"°":{"ha":621,"x_min":71,"x_max":550,"o":"m 240 785 q 253 769 240 785 q 311 754 267 754 q 381 785 355 754 q 407 861 407 815 q 381 937 407 906 q 311 967 355 967 q 240 937 267 967 q 214 861 214 906 q 240 785 214 815 m 485 693 q 452 662 485 693 q 310 631 420 631 q 135 692 200 631 q 71 860 71 753 q 135 1028 71 967 q 310 1090 200 1090 q 485 1028 420 1090 q 550 861 550 967 q 485 693 550 754 z "},"±":{"ha":579,"x_min":80,"x_max":500,"o":"m 228 322 l 228 480 l 80 480 l 80 600 l 228 600 l 228 757 l 351 757 l 351 600 l 500 600 l 500 480 l 351 480 l 351 322 l 228 322 m 106 76 l 106 200 l 456 200 l 456 76 l 106 76 z "},"²":{"ha":564,"x_min":123,"x_max":469,"o":"m 298 1099 q 260 1074 273 1099 q 248 982 248 1048 l 248 878 l 124 878 l 123 928 q 138 1091 123 1042 q 173 1161 153 1139 q 303 1207 215 1207 q 399 1176 361 1207 q 469 994 469 1118 q 410 765 469 869 q 357 677 384 719 q 262 486 284 566 l 460 486 l 460 383 l 125 383 l 125 425 q 192 635 125 503 q 309 831 258 768 q 347 995 347 891 q 298 1099 347 1099 z "},"³":{"ha":581,"x_min":107,"x_max":485,"o":"m 239 996 l 238 977 l 111 977 l 111 1000 q 154 1156 111 1107 q 294 1206 197 1206 q 437 1155 391 1206 q 483 1000 483 1103 q 401 836 483 863 q 467 768 449 816 q 485 641 485 721 q 438 466 485 524 q 291 408 391 408 q 149 462 191 408 q 107 629 107 515 l 107 682 l 233 682 l 233 628 q 245 538 233 563 q 293 513 256 513 q 341 542 330 513 q 352 644 352 571 q 334 751 352 717 q 268 785 317 785 l 248 785 l 248 880 l 266 880 q 333 907 314 882 q 352 994 352 932 q 337 1079 352 1057 q 293 1102 323 1102 q 251 1078 262 1102 q 239 996 239 1055 z "},"´":{"ha":441,"x_min":68,"x_max":368,"o":"m 68 1196 l 68 1301 l 368 1432 l 368 1257 l 68 1196 z "},"¶":{"ha":759,"x_min":74,"x_max":660,"o":"m 300 0 l 300 737 q 129 807 184 750 q 74 975 74 864 q 206 1169 74 1128 q 435 1194 288 1194 l 660 1194 l 660 0 l 528 0 l 528 1036 l 431 1036 l 431 0 l 300 0 z "},"·":{"ha":326,"x_min":90,"x_max":246,"o":"m 90 509 l 90 675 l 246 675 l 246 509 l 90 509 z "},"¸":{"ha":688,"x_min":215,"x_max":511,"o":"m 215 -340 q 372 -244 372 -340 q 340 -172 372 -201 q 263 -133 309 -143 l 290 0 l 346 0 l 356 -96 q 511 -275 511 -149 q 458 -385 511 -336 q 316 -433 406 -433 q 215 -415 263 -433 l 215 -340 z "},"¹":{"ha":426,"x_min":52,"x_max":301,"o":"m 161 382 l 161 1036 q 52 1003 117 1003 l 52 1091 q 143 1124 96 1095 q 200 1193 191 1153 l 301 1193 l 301 382 l 161 382 z "},"º":{"ha":616,"x_min":108,"x_max":519,"o":"m 316 374 q 374 492 374 374 l 374 854 q 361 943 374 913 q 314 973 348 973 q 267 944 280 973 q 254 854 254 914 l 254 492 q 316 374 254 374 m 315 258 q 155 326 202 258 q 108 526 108 393 l 108 829 q 315 1089 108 1089 q 476 1019 432 1089 q 519 829 519 948 l 519 526 q 412 277 519 325 q 315 258 372 258 z "},"»":{"ha":884,"x_min":102,"x_max":810,"o":"m 102 222 l 102 406 l 314 508 l 102 604 l 102 785 l 435 602 l 435 415 l 102 222 m 477 222 l 477 406 l 689 508 l 477 604 l 477 785 l 810 602 l 810 415 l 477 222 z "},"¼":{"ha":1041,"x_min":61,"x_max":962,"o":"m 808 0 l 808 130 l 612 130 l 612 208 l 764 722 l 916 722 l 916 220 l 962 220 l 962 130 l 916 130 l 916 0 l 808 0 m 157 374 l 157 994 q 61 962 119 962 l 61 1043 q 140 1074 100 1046 q 190 1139 180 1101 l 279 1139 l 279 374 l 157 374 m 287 0 l 626 1198 l 754 1198 l 415 0 l 287 0 m 712 220 l 808 220 l 808 586 l 712 220 z "},"½":{"ha":1099,"x_min":61,"x_max":1040,"o":"m 879 680 q 831 566 831 680 l 831 467 l 715 467 l 715 515 q 728 669 715 623 q 761 735 742 715 q 882 779 801 779 q 1002 720 964 779 q 1040 585 1040 661 q 1024 456 1040 509 q 984 360 1008 403 q 933 277 959 317 q 844 94 866 174 l 1031 94 l 1031 0 l 717 0 l 717 39 q 781 239 717 111 q 890 423 844 367 q 926 555 926 479 q 914 656 926 632 q 879 680 902 680 m 157 374 l 157 994 q 61 962 119 962 l 61 1043 q 140 1074 100 1046 q 190 1139 180 1101 l 279 1139 l 279 374 l 157 374 m 287 0 l 626 1198 l 754 1198 l 415 0 l 287 0 z "},"¾":{"ha":1055,"x_min":56,"x_max":976,"o":"m 170 952 l 169 935 l 60 935 l 60 955 q 98 1100 60 1054 q 219 1147 136 1147 q 380 955 380 1147 q 309 802 380 828 q 366 739 350 783 q 382 603 382 694 q 342 459 382 513 q 216 406 302 406 q 94 456 131 406 q 56 610 56 506 l 56 657 l 165 657 l 165 610 q 175 524 165 547 q 218 500 185 500 q 261 527 251 500 q 272 624 272 555 q 256 724 272 692 q 197 756 240 756 q 180 755 182 756 l 180 848 l 194 848 q 239 857 222 848 q 273 941 273 873 q 258 1031 273 1009 q 218 1053 245 1053 q 180 1030 191 1053 q 170 952 170 1008 m 821 0 l 821 130 l 625 130 l 625 208 l 778 722 l 929 722 l 929 220 l 976 220 l 976 130 l 929 130 l 929 0 l 821 0 m 321 0 l 661 1198 l 789 1198 l 450 0 l 321 0 m 726 220 l 821 220 l 821 586 l 726 220 z "},"¿":{"ha":708,"x_min":109,"x_max":581,"o":"m 492 681 l 492 467 q 404 436 429 450 q 363 411 378 421 q 331 376 349 401 q 302 304 313 351 q 291 145 291 257 l 291 100 q 296 2 291 15 q 309 -22 300 -10 q 339 -35 317 -35 q 399 16 393 -35 q 404 110 404 49 l 404 229 l 581 229 l 581 83 q 347 -192 581 -192 q 167 -127 219 -192 q 121 -18 132 -84 q 109 134 109 47 q 109 153 109 152 q 109 168 109 161 q 109 180 109 174 q 114 274 109 228 q 175 458 127 396 q 332 552 224 521 l 332 681 l 492 681 m 488 1015 l 488 813 l 330 813 l 330 1015 l 488 1015 z "},"À":{"ha":662,"x_min":35,"x_max":627,"o":"m 468 1280 l 188 1344 l 188 1524 l 468 1386 l 468 1280 m 410 359 l 330 958 l 327 958 l 254 359 l 410 359 m 35 0 l 205 1194 l 446 1194 l 627 0 l 457 0 l 429 213 l 236 213 l 210 0 l 35 0 z "},"Á":{"ha":662,"x_min":35,"x_max":627,"o":"m 187 1287 l 187 1393 l 486 1523 l 486 1348 l 187 1287 m 410 359 l 330 958 l 327 958 l 254 359 l 410 359 m 35 0 l 205 1194 l 446 1194 l 627 0 l 457 0 l 429 213 l 236 213 l 210 0 l 35 0 z "},"Â":{"ha":662,"x_min":35,"x_max":627,"o":"m 96 1267 l 224 1495 l 429 1495 l 557 1267 l 385 1267 l 327 1427 l 269 1267 l 96 1267 m 410 359 l 330 958 l 327 958 l 254 359 l 410 359 m 35 0 l 205 1194 l 446 1194 l 627 0 l 457 0 l 429 213 l 236 213 l 210 0 l 35 0 z "},"Ã":{"ha":662,"x_min":35,"x_max":627,"o":"m 547 1398 q 506 1305 533 1331 q 439 1279 478 1279 q 333 1307 400 1279 q 247 1335 266 1335 q 217 1332 227 1335 q 188 1293 206 1330 l 100 1329 q 151 1423 119 1395 q 221 1452 183 1452 q 331 1427 260 1452 q 416 1402 402 1402 l 419 1402 q 439 1413 431 1404 q 457 1450 448 1422 l 553 1431 l 547 1398 m 410 359 l 330 958 l 327 958 l 254 359 l 410 359 m 35 0 l 205 1194 l 446 1194 l 627 0 l 457 0 l 429 213 l 236 213 l 210 0 l 35 0 z "},"Ä":{"ha":662,"x_min":35,"x_max":627,"o":"m 67 1277 l 67 1430 l 258 1430 l 258 1277 l 67 1277 m 395 1277 l 395 1430 l 587 1430 l 587 1277 l 395 1277 m 410 359 l 330 958 l 327 958 l 254 359 l 410 359 m 35 0 l 205 1194 l 446 1194 l 627 0 l 457 0 l 429 213 l 236 213 l 210 0 l 35 0 z "},"Å":{"ha":662,"x_min":35,"x_max":627,"o":"m 268 1369 q 278 1356 268 1369 q 327 1343 289 1343 q 386 1369 365 1343 q 408 1432 408 1396 q 386 1494 408 1468 q 327 1520 365 1520 q 268 1494 289 1520 q 246 1432 246 1468 q 268 1369 246 1396 m 484 1431 q 484 1398 484 1431 q 442 1322 484 1364 q 327 1279 399 1279 q 211 1322 254 1279 q 168 1431 168 1364 q 211 1540 168 1497 q 327 1583 254 1583 q 442 1540 399 1583 q 484 1431 484 1497 m 410 359 l 330 958 l 327 958 l 254 359 l 410 359 m 35 0 l 205 1194 l 446 1194 l 627 0 l 457 0 l 429 213 l 236 213 l 210 0 l 35 0 z "},"Æ":{"ha":845,"x_min":35,"x_max":789,"o":"m 35 0 l 248 1194 l 781 1194 l 781 1037 l 593 1037 l 593 690 l 770 690 l 770 532 l 593 532 l 593 157 l 789 157 l 789 0 l 411 0 l 411 213 l 248 213 l 212 0 l 35 0 m 269 347 l 411 347 l 411 1038 l 387 1037 l 269 347 z "},"Ç":{"ha":652,"x_min":75,"x_max":593,"o":"m 197 -340 q 354 -244 354 -340 q 322 -172 354 -201 q 245 -133 291 -143 l 273 0 l 328 0 l 338 -96 q 493 -275 493 -149 q 440 -385 493 -336 q 298 -433 388 -433 q 197 -415 245 -433 l 197 -340 m 593 326 q 532 70 593 153 q 338 -14 470 -14 q 140 75 205 -14 q 75 330 75 163 l 75 850 q 214 1183 75 1116 q 339 1207 266 1207 q 591 890 591 1207 l 591 726 l 415 726 l 415 878 q 399 1010 415 970 q 338 1050 384 1050 q 275 1008 293 1050 q 258 879 258 966 l 258 321 q 275 184 258 225 q 336 142 292 142 q 398 184 381 142 q 415 323 415 227 l 415 494 l 593 494 l 593 326 z "},"È":{"ha":553,"x_min":90,"x_max":498,"o":"m 439 1280 l 159 1344 l 159 1524 l 439 1386 l 439 1280 m 90 0 l 90 1194 l 490 1194 l 490 1037 l 271 1037 l 271 690 l 479 690 l 479 536 l 271 536 l 271 157 l 498 157 l 498 0 l 90 0 z "},"É":{"ha":553,"x_min":90,"x_max":498,"o":"m 90 0 l 90 1194 l 490 1194 l 490 1037 l 271 1037 l 271 690 l 479 690 l 479 536 l 271 536 l 271 157 l 498 157 l 498 0 l 90 0 m 158 1287 l 158 1393 l 457 1523 l 457 1348 l 158 1287 z "},"Ê":{"ha":553,"x_min":67,"x_max":528,"o":"m 90 0 l 90 1194 l 490 1194 l 490 1037 l 271 1037 l 271 690 l 479 690 l 479 536 l 271 536 l 271 157 l 498 157 l 498 0 l 90 0 m 67 1267 l 195 1495 l 400 1495 l 528 1267 l 356 1267 l 298 1427 l 239 1267 l 67 1267 z "},"Ë":{"ha":553,"x_min":38,"x_max":557,"o":"m 90 0 l 90 1194 l 490 1194 l 490 1037 l 271 1037 l 271 690 l 479 690 l 479 536 l 271 536 l 271 157 l 498 157 l 498 0 l 90 0 m 38 1277 l 38 1430 l 229 1430 l 229 1277 l 38 1277 m 366 1277 l 366 1430 l 557 1430 l 557 1277 l 366 1277 z "},"Ì":{"ha":374,"x_min":48,"x_max":328,"o":"m 328 1280 l 48 1344 l 48 1524 l 328 1386 l 328 1280 m 96 0 l 96 1194 l 278 1194 l 278 0 l 96 0 z "},"Í":{"ha":374,"x_min":47,"x_max":347,"o":"m 47 1287 l 47 1393 l 347 1523 l 347 1348 l 47 1287 m 96 0 l 96 1194 l 278 1194 l 278 0 l 96 0 z "},"Î":{"ha":374,"x_min":-43,"x_max":417,"o":"m -43 1267 l 85 1495 l 290 1495 l 417 1267 l 245 1267 l 187 1427 l 129 1267 l -43 1267 m 96 0 l 96 1194 l 278 1194 l 278 0 l 96 0 z "},"Ï":{"ha":374,"x_min":-73,"x_max":447,"o":"m -73 1277 l -73 1430 l 119 1430 l 119 1277 l -73 1277 m 256 1277 l 256 1430 l 447 1430 l 447 1277 l 256 1277 m 96 0 l 96 1194 l 278 1194 l 278 0 l 96 0 z "},"Ð":{"ha":682,"x_min":39,"x_max":608,"o":"m 271 141 l 330 141 q 403 174 380 141 q 426 293 426 206 l 425 882 q 402 1015 425 975 q 324 1054 380 1054 l 271 1054 l 271 141 m 89 0 l 89 1194 l 357 1194 q 548 1116 488 1194 q 607 887 607 1038 l 608 349 q 548 84 608 168 q 351 0 488 0 l 89 0 m 39 575 l 39 694 l 363 694 l 363 575 l 39 575 z "},"Ñ":{"ha":725,"x_min":90,"x_max":635,"o":"m 583 1398 q 542 1305 569 1331 q 475 1279 514 1279 q 369 1307 436 1279 q 282 1335 302 1335 q 253 1332 263 1335 q 224 1293 242 1330 l 136 1329 q 187 1423 155 1395 q 257 1452 219 1452 q 367 1427 296 1452 q 452 1402 438 1402 l 455 1402 q 475 1413 467 1404 q 493 1450 484 1422 l 589 1431 l 583 1398 m 90 0 l 90 1194 l 232 1194 l 485 477 l 472 803 l 472 1194 l 635 1194 l 635 0 l 507 0 l 247 741 l 257 428 l 257 0 l 90 0 z "},"Ò":{"ha":677,"x_min":75,"x_max":602,"o":"m 479 1283 l 199 1347 l 199 1527 l 479 1389 l 479 1283 m 258 332 q 274 185 258 227 q 339 144 290 144 q 404 186 389 144 q 420 332 420 229 l 420 888 q 404 1011 420 972 q 341 1050 388 1050 q 276 1011 295 1050 q 258 888 258 972 l 258 332 m 602 334 q 540 73 602 159 q 340 -14 477 -14 q 139 73 203 -14 q 75 334 75 159 l 75 880 q 342 1208 75 1208 q 542 1124 481 1208 q 602 880 602 1041 l 602 334 z "},"Ó":{"ha":677,"x_min":75,"x_max":602,"o":"m 258 332 q 274 185 258 227 q 339 144 290 144 q 404 186 389 144 q 420 332 420 229 l 420 888 q 404 1011 420 972 q 341 1050 388 1050 q 276 1011 295 1050 q 258 888 258 972 l 258 332 m 602 334 q 540 73 602 159 q 340 -14 477 -14 q 139 73 203 -14 q 75 334 75 159 l 75 880 q 342 1208 75 1208 q 542 1124 481 1208 q 602 880 602 1041 l 602 334 m 199 1290 l 199 1396 l 498 1526 l 498 1351 l 199 1290 z "},"Ô":{"ha":677,"x_min":75,"x_max":602,"o":"m 258 332 q 274 185 258 227 q 339 144 290 144 q 404 186 389 144 q 420 332 420 229 l 420 888 q 404 1011 420 972 q 341 1050 388 1050 q 276 1011 295 1050 q 258 888 258 972 l 258 332 m 602 334 q 540 73 602 159 q 340 -14 477 -14 q 139 73 203 -14 q 75 334 75 159 l 75 880 q 342 1208 75 1208 q 542 1124 481 1208 q 602 880 602 1041 l 602 334 m 108 1270 l 236 1498 l 441 1498 l 568 1270 l 397 1270 l 338 1430 l 280 1270 l 108 1270 z "},"Õ":{"ha":677,"x_min":75,"x_max":602,"o":"m 559 1401 q 517 1308 545 1334 q 451 1282 490 1282 q 345 1310 412 1282 q 258 1337 277 1337 q 228 1335 239 1337 q 199 1296 218 1333 l 111 1331 q 162 1426 130 1398 q 233 1455 195 1455 q 342 1430 271 1455 q 428 1404 414 1404 l 431 1404 q 451 1416 442 1407 q 469 1453 459 1425 l 565 1434 l 559 1401 m 258 332 q 274 185 258 227 q 339 144 290 144 q 404 186 389 144 q 420 332 420 229 l 420 888 q 404 1011 420 972 q 341 1050 388 1050 q 276 1011 295 1050 q 258 888 258 972 l 258 332 m 602 334 q 540 73 602 159 q 340 -14 477 -14 q 139 73 203 -14 q 75 334 75 159 l 75 880 q 342 1208 75 1208 q 542 1124 481 1208 q 602 880 602 1041 l 602 334 z "},"Ö":{"ha":677,"x_min":75,"x_max":602,"o":"m 258 332 q 274 185 258 227 q 339 144 290 144 q 404 186 389 144 q 420 332 420 229 l 420 888 q 404 1011 420 972 q 341 1050 388 1050 q 276 1011 295 1050 q 258 888 258 972 l 258 332 m 602 334 q 540 73 602 159 q 340 -14 477 -14 q 139 73 203 -14 q 75 334 75 159 l 75 880 q 342 1208 75 1208 q 542 1124 481 1208 q 602 880 602 1041 l 602 334 m 79 1280 l 79 1433 l 270 1433 l 270 1280 l 79 1280 m 407 1280 l 407 1433 l 598 1433 l 598 1280 l 407 1280 z "},"×":{"ha":481,"x_min":30,"x_max":452,"o":"m 141 213 l 30 324 l 130 424 l 30 524 l 141 635 l 241 535 l 340 635 l 452 524 l 352 424 l 452 324 l 340 213 l 241 313 l 141 213 z "},"Ø":{"ha":610,"x_min":64,"x_max":630,"o":"m 420 901 q 403 1013 418 976 q 341 1050 388 1050 q 276 1011 295 1050 q 258 888 258 972 l 258 439 l 420 901 m 131 -140 l 64 -113 l 132 82 q 75 334 75 168 l 75 880 q 342 1208 75 1208 q 510 1158 450 1208 l 557 1293 l 630 1268 l 565 1084 q 602 880 602 1006 l 602 334 q 540 73 602 159 q 340 -14 477 -14 q 189 25 248 -14 l 131 -140 m 274 185 q 339 144 290 144 q 404 186 389 144 q 420 332 420 229 l 420 675 l 263 233 q 274 185 267 203 z "},"Ù":{"ha":692,"x_min":83,"x_max":609,"o":"m 487 1278 l 207 1342 l 207 1522 l 487 1384 l 487 1278 m 609 307 q 547 64 609 142 q 346 -14 484 -14 q 145 64 208 -14 q 83 307 83 142 l 83 1194 l 264 1194 l 264 310 q 273 195 264 216 q 295 158 282 175 q 347 142 307 142 q 403 165 386 142 q 424 222 420 188 q 427 310 427 256 l 427 1194 l 609 1194 l 609 307 z "},"Ú":{"ha":692,"x_min":83,"x_max":609,"o":"m 609 307 q 547 64 609 142 q 346 -14 484 -14 q 145 64 208 -14 q 83 307 83 142 l 83 1194 l 264 1194 l 264 310 q 273 195 264 216 q 295 158 282 175 q 347 142 307 142 q 403 165 386 142 q 424 222 420 188 q 427 310 427 256 l 427 1194 l 609 1194 l 609 307 m 210 1286 l 210 1392 l 509 1522 l 509 1347 l 210 1286 z "},"Û":{"ha":692,"x_min":83,"x_max":609,"o":"m 609 307 q 547 64 609 142 q 346 -14 484 -14 q 145 64 208 -14 q 83 307 83 142 l 83 1194 l 264 1194 l 264 310 q 273 195 264 216 q 295 158 282 175 q 347 142 307 142 q 403 165 386 142 q 424 222 420 188 q 427 310 427 256 l 427 1194 l 609 1194 l 609 307 m 119 1265 l 247 1493 l 452 1493 l 579 1265 l 408 1265 l 349 1425 l 291 1265 l 119 1265 z "},"Ü":{"ha":692,"x_min":83,"x_max":609,"o":"m 609 307 q 547 64 609 142 q 346 -14 484 -14 q 145 64 208 -14 q 83 307 83 142 l 83 1194 l 264 1194 l 264 310 q 273 195 264 216 q 295 158 282 175 q 347 142 307 142 q 403 165 386 142 q 424 222 420 188 q 427 310 427 256 l 427 1194 l 609 1194 l 609 307 m 90 1275 l 90 1428 l 281 1428 l 281 1275 l 90 1275 m 418 1275 l 418 1428 l 609 1428 l 609 1275 l 418 1275 z "},"Ý":{"ha":585,"x_min":6,"x_max":578,"o":"m 155 1287 l 155 1393 l 454 1523 l 454 1348 l 155 1287 m 206 0 l 206 477 l 6 1194 l 180 1194 l 298 747 l 300 747 l 406 1194 l 578 1194 l 388 477 l 388 0 l 206 0 z "},"Þ":{"ha":666,"x_min":99,"x_max":617,"o":"m 99 0 l 99 1194 l 281 1194 l 281 1015 l 373 1015 q 564 927 513 1015 q 617 665 614 838 l 617 646 q 495 301 617 365 q 379 277 448 277 l 281 277 l 281 0 l 99 0 m 281 427 l 343 427 q 418 475 400 427 q 435 648 435 522 l 435 664 q 417 825 435 775 q 345 875 399 875 l 281 875 l 281 427 z "},"ß":{"ha":700,"x_min":92,"x_max":648,"o":"m 92 0 l 92 961 q 149 1148 92 1088 q 345 1208 207 1208 q 546 1152 484 1208 q 608 961 608 1096 l 608 827 q 583 704 608 747 q 500 641 559 660 q 616 558 583 621 q 648 375 648 496 l 648 323 q 627 138 648 195 q 576 55 604 81 q 402 0 518 0 l 332 0 l 332 144 q 443 169 414 144 q 471 268 471 193 l 471 445 q 443 538 471 513 q 338 564 414 564 l 338 700 q 410 722 390 700 q 431 793 431 744 l 431 975 q 413 1041 431 1022 q 352 1059 395 1059 q 291 1040 310 1059 q 271 975 271 1021 l 271 0 l 92 0 z "},"à":{"ha":665,"x_min":73,"x_max":585,"o":"m 487 1104 l 207 1168 l 207 1348 l 487 1210 l 487 1104 m 401 552 q 286 480 315 514 q 256 375 256 446 l 256 266 q 271 164 256 195 q 319 133 286 133 q 374 156 353 133 q 401 207 395 178 l 401 552 m 259 -10 q 117 61 159 -10 q 73 267 74 133 l 73 332 q 143 530 73 463 q 297 615 189 574 q 352 635 317 623 q 401 654 387 648 l 401 743 q 389 855 401 825 q 335 884 377 884 q 278 853 292 884 q 264 748 264 822 l 264 703 l 86 703 l 86 733 q 140 954 86 878 q 331 1029 194 1029 q 527 954 469 1029 q 585 726 585 878 l 585 0 l 404 0 l 404 101 q 352 22 390 54 q 259 -10 313 -10 z "},"á":{"ha":665,"x_min":73,"x_max":585,"o":"m 206 1111 l 206 1217 l 505 1347 l 505 1172 l 206 1111 m 401 552 q 286 480 315 514 q 256 375 256 446 l 256 266 q 271 164 256 195 q 319 133 286 133 q 374 156 353 133 q 401 207 395 178 l 401 552 m 259 -10 q 117 61 159 -10 q 73 267 74 133 l 73 332 q 143 530 73 463 q 297 615 189 574 q 352 635 317 623 q 401 654 387 648 l 401 743 q 389 855 401 825 q 335 884 377 884 q 278 853 292 884 q 264 748 264 822 l 264 703 l 86 703 l 86 733 q 140 954 86 878 q 331 1029 194 1029 q 527 954 469 1029 q 585 726 585 878 l 585 0 l 404 0 l 404 101 q 352 22 390 54 q 259 -10 313 -10 z "},"â":{"ha":665,"x_min":73,"x_max":585,"o":"m 115 1090 l 243 1319 l 448 1319 l 576 1090 l 404 1090 l 346 1251 l 288 1090 l 115 1090 m 401 552 q 286 480 315 514 q 256 375 256 446 l 256 266 q 271 164 256 195 q 319 133 286 133 q 374 156 353 133 q 401 207 395 178 l 401 552 m 259 -10 q 117 61 159 -10 q 73 267 74 133 l 73 332 q 143 530 73 463 q 297 615 189 574 q 352 635 317 623 q 401 654 387 648 l 401 743 q 389 855 401 825 q 335 884 377 884 q 278 853 292 884 q 264 748 264 822 l 264 703 l 86 703 l 86 733 q 140 954 86 878 q 331 1029 194 1029 q 527 954 469 1029 q 585 726 585 878 l 585 0 l 404 0 l 404 101 q 352 22 390 54 q 259 -10 313 -10 z "},"ã":{"ha":665,"x_min":73,"x_max":585,"o":"m 566 1222 q 525 1129 552 1155 q 458 1103 497 1103 q 352 1131 419 1103 q 266 1158 285 1158 q 236 1156 246 1158 q 207 1117 225 1154 l 119 1152 q 170 1247 138 1219 q 240 1276 202 1276 q 350 1251 279 1276 q 435 1225 421 1225 l 438 1225 q 458 1237 450 1227 q 476 1274 467 1246 l 572 1255 l 566 1222 m 401 552 q 286 480 315 514 q 256 375 256 446 l 256 266 q 271 164 256 195 q 319 133 286 133 q 374 156 353 133 q 401 207 395 178 l 401 552 m 259 -10 q 117 61 159 -10 q 73 267 74 133 l 73 332 q 143 530 73 463 q 297 615 189 574 q 352 635 317 623 q 401 654 387 648 l 401 743 q 389 855 401 825 q 335 884 377 884 q 278 853 292 884 q 264 748 264 822 l 264 703 l 86 703 l 86 733 q 140 954 86 878 q 331 1029 194 1029 q 527 954 469 1029 q 585 726 585 878 l 585 0 l 404 0 l 404 101 q 352 22 390 54 q 259 -10 313 -10 z "},"ä":{"ha":665,"x_min":73,"x_max":606,"o":"m 86 1101 l 86 1254 l 277 1254 l 277 1101 l 86 1101 m 414 1101 l 414 1254 l 606 1254 l 606 1101 l 414 1101 m 401 552 q 286 480 315 514 q 256 375 256 446 l 256 266 q 271 164 256 195 q 319 133 286 133 q 374 156 353 133 q 401 207 395 178 l 401 552 m 259 -10 q 117 61 159 -10 q 73 267 74 133 l 73 332 q 143 530 73 463 q 297 615 189 574 q 352 635 317 623 q 401 654 387 648 l 401 743 q 389 855 401 825 q 335 884 377 884 q 278 853 292 884 q 264 748 264 822 l 264 703 l 86 703 l 86 733 q 140 954 86 878 q 331 1029 194 1029 q 527 954 469 1029 q 585 726 585 878 l 585 0 l 404 0 l 404 101 q 352 22 390 54 q 259 -10 313 -10 z "},"å":{"ha":665,"x_min":73,"x_max":585,"o":"m 287 1193 q 297 1180 287 1193 q 346 1166 308 1166 q 405 1193 384 1166 q 427 1255 427 1219 q 405 1317 427 1291 q 346 1343 384 1343 q 287 1317 308 1343 q 265 1255 265 1291 q 287 1193 265 1219 m 503 1255 q 503 1221 503 1255 q 461 1145 503 1188 q 346 1103 418 1103 q 230 1145 273 1103 q 187 1255 187 1188 q 230 1364 187 1321 q 346 1407 273 1407 q 461 1364 418 1407 q 503 1255 503 1321 m 401 552 q 286 480 315 514 q 256 375 256 446 l 256 266 q 271 164 256 195 q 319 133 286 133 q 374 156 353 133 q 401 207 395 178 l 401 552 m 259 -10 q 117 61 159 -10 q 73 267 74 133 l 73 332 q 143 530 73 463 q 297 615 189 574 q 352 635 317 623 q 401 654 387 648 l 401 743 q 389 855 401 825 q 335 884 377 884 q 278 853 292 884 q 264 748 264 822 l 264 703 l 86 703 l 86 733 q 140 954 86 878 q 331 1029 194 1029 q 527 954 469 1029 q 585 726 585 878 l 585 0 l 404 0 l 404 101 q 352 22 390 54 q 259 -10 313 -10 z "},"æ":{"ha":979,"x_min":73,"x_max":908,"o":"m 729 315 l 728 372 l 728 386 l 907 386 l 907 338 q 887 139 907 201 q 841 49 867 77 q 668 -12 785 -12 q 556 14 602 -12 q 487 87 509 41 q 409 18 461 47 q 297 -10 357 -10 q 130 64 187 -10 q 73 275 73 139 l 73 343 q 123 513 74 438 q 187 566 140 538 q 261 604 235 593 q 338 633 288 615 q 401 657 387 652 q 401 696 401 680 q 401 754 401 712 q 389 841 401 797 q 335 884 377 884 q 278 855 293 884 q 264 752 264 825 l 264 703 l 87 703 q 86 757 86 707 q 140 954 86 878 q 340 1029 194 1029 q 495 956 450 1029 q 674 1029 547 1029 q 855 947 802 1029 q 908 714 908 865 q 907 492 908 510 l 583 492 l 583 320 q 599 177 583 220 q 654 133 614 133 q 707 159 694 133 q 729 315 729 201 m 256 267 q 271 164 256 195 q 319 134 286 134 q 374 156 353 134 q 401 208 395 179 l 401 545 q 331 511 355 524 q 288 477 307 498 q 256 369 256 444 l 256 267 m 583 614 l 728 614 l 728 732 q 715 851 728 815 q 664 888 702 888 q 612 871 625 888 q 587 808 591 842 q 583 717 583 773 l 583 614 z "},"ç":{"ha":640,"x_min":75,"x_max":574,"o":"m 186 -340 q 342 -244 342 -340 q 311 -172 342 -201 q 234 -133 279 -143 l 261 0 l 317 0 l 327 -96 q 481 -275 481 -149 q 429 -385 481 -336 q 287 -433 376 -433 q 186 -415 234 -433 l 186 -340 m 335 -12 q 129 78 182 -12 q 75 339 75 168 l 75 669 q 152 968 75 890 q 338 1029 214 1029 q 519 954 463 1029 q 574 736 574 878 l 574 624 l 401 624 l 401 742 q 384 859 401 835 q 328 882 368 882 q 272 847 289 882 q 256 739 256 812 l 256 281 q 271 170 256 205 q 330 135 286 135 q 399 220 391 136 q 401 266 401 239 q 401 280 401 273 l 401 401 l 574 401 l 574 298 q 519 68 574 149 q 335 -12 463 -12 z "},"è":{"ha":650,"x_min":75,"x_max":579,"o":"m 471 1103 l 191 1167 l 191 1347 l 471 1209 l 471 1103 m 327 -12 q 106 119 155 -12 q 75 338 75 202 l 75 718 q 334 1029 75 1029 q 526 947 473 1029 q 579 714 579 865 l 579 496 l 256 496 l 256 296 q 274 162 256 191 q 329 133 292 133 q 376 150 366 133 q 397 211 395 180 q 400 296 400 242 l 400 386 l 578 386 l 578 332 q 556 133 578 193 q 506 45 534 73 q 327 -12 446 -12 m 255 602 l 400 602 l 400 732 q 387 851 400 815 q 333 888 374 888 q 332 888 332 888 q 256 780 262 888 q 255 727 255 760 l 255 602 z "},"é":{"ha":650,"x_min":75,"x_max":579,"o":"m 327 -12 q 106 119 155 -12 q 75 338 75 202 l 75 718 q 334 1029 75 1029 q 526 947 473 1029 q 579 714 579 865 l 579 496 l 256 496 l 256 296 q 274 162 256 191 q 329 133 292 133 q 376 150 366 133 q 397 211 395 180 q 400 296 400 242 l 400 386 l 578 386 l 578 332 q 556 133 578 193 q 506 45 534 73 q 327 -12 446 -12 m 255 602 l 400 602 l 400 732 q 387 851 400 815 q 333 888 374 888 q 332 888 332 888 q 256 780 262 888 q 255 727 255 760 l 255 602 m 191 1111 l 191 1217 l 490 1347 l 490 1172 l 191 1111 z "},"ê":{"ha":650,"x_min":75,"x_max":579,"o":"m 327 -12 q 106 119 155 -12 q 75 338 75 202 l 75 718 q 334 1029 75 1029 q 526 947 473 1029 q 579 714 579 865 l 579 496 l 256 496 l 256 296 q 274 162 256 191 q 329 133 292 133 q 376 150 366 133 q 397 211 395 180 q 400 296 400 242 l 400 386 l 578 386 l 578 332 q 556 133 578 193 q 506 45 534 73 q 327 -12 446 -12 m 255 602 l 400 602 l 400 732 q 387 851 400 815 q 333 888 374 888 q 332 888 332 888 q 256 780 262 888 q 255 727 255 760 l 255 602 m 99 1090 l 227 1318 l 432 1318 l 559 1090 l 388 1090 l 330 1250 l 271 1090 l 99 1090 z "},"ë":{"ha":650,"x_min":70,"x_max":589,"o":"m 327 -12 q 106 119 155 -12 q 75 338 75 202 l 75 718 q 334 1029 75 1029 q 526 947 473 1029 q 579 714 579 865 l 579 496 l 256 496 l 256 296 q 274 162 256 191 q 329 133 292 133 q 376 150 366 133 q 397 211 395 180 q 400 296 400 242 l 400 386 l 578 386 l 578 332 q 556 133 578 193 q 506 45 534 73 q 327 -12 446 -12 m 255 602 l 400 602 l 400 732 q 387 851 400 815 q 333 888 374 888 q 332 888 332 888 q 256 780 262 888 q 255 727 255 760 l 255 602 m 70 1100 l 70 1253 l 261 1253 l 261 1100 l 70 1100 m 398 1100 l 398 1253 l 589 1253 l 589 1100 l 398 1100 z "},"ì":{"ha":364,"x_min":40,"x_max":320,"o":"m 320 1104 l 40 1168 l 40 1348 l 320 1210 l 320 1104 m 92 0 l 92 1017 l 272 1017 l 272 0 l 92 0 z "},"í":{"ha":364,"x_min":40,"x_max":339,"o":"m 92 0 l 92 1017 l 272 1017 l 272 0 l 92 0 m 40 1111 l 40 1217 l 339 1347 l 339 1172 l 40 1111 z "},"î":{"ha":364,"x_min":-52,"x_max":409,"o":"m 92 0 l 92 1017 l 272 1017 l 272 0 l 92 0 m -52 1090 l 77 1319 l 281 1319 l 409 1090 l 237 1090 l 179 1251 l 121 1090 l -52 1090 z "},"ï":{"ha":364,"x_min":-81,"x_max":439,"o":"m 92 0 l 92 1017 l 272 1017 l 272 0 l 92 0 m -81 1101 l -81 1254 l 111 1254 l 111 1101 l -81 1101 m 248 1101 l 248 1254 l 439 1254 l 439 1101 l 248 1101 z "},"ð":{"ha":687,"x_min":64,"x_max":646,"o":"m 292 745 q 410 707 370 745 q 400 822 410 741 q 374 935 389 903 l 232 856 l 188 949 l 316 1021 q 182 1105 268 1076 l 275 1208 q 466 1102 391 1190 l 601 1177 l 646 1084 l 524 1016 q 577 819 555 962 q 599 581 599 677 l 599 357 q 522 47 599 122 q 333 -14 458 -14 q 123 71 181 -14 q 64 328 64 156 l 64 397 q 119 662 64 578 q 292 745 173 745 m 264 176 q 274 160 264 176 q 332 144 283 144 q 399 181 380 144 q 417 309 417 219 l 417 526 q 389 574 413 555 q 323 592 365 592 q 263 553 281 592 q 246 416 246 513 l 246 294 q 264 176 246 208 z "},"ñ":{"ha":692,"x_min":90,"x_max":609,"o":"m 566 1222 q 525 1129 552 1155 q 458 1103 497 1103 q 352 1131 419 1103 q 266 1158 285 1158 q 236 1156 246 1158 q 207 1117 225 1154 l 119 1152 q 170 1247 138 1219 q 240 1276 202 1276 q 350 1251 279 1276 q 435 1225 421 1225 l 438 1225 q 458 1237 450 1227 q 476 1274 467 1246 l 572 1255 l 566 1222 m 433 1029 q 609 801 609 1029 l 609 0 l 429 0 l 429 790 q 409 859 429 834 q 351 884 389 884 q 291 852 313 884 q 269 764 269 819 l 269 0 l 90 0 l 90 1017 l 269 1017 l 269 901 q 328 992 283 955 q 433 1029 372 1029 z "},"ò":{"ha":658,"x_min":75,"x_max":583,"o":"m 470 1104 l 190 1168 l 190 1348 l 470 1210 l 470 1104 m 330 133 q 387 170 372 133 q 402 280 402 207 l 402 735 q 387 847 402 810 q 329 884 371 884 q 271 847 287 884 q 256 735 256 810 l 256 280 q 292 143 256 168 q 330 133 307 133 m 330 -12 q 130 74 186 -12 q 75 323 75 160 l 75 703 q 329 1029 75 1029 q 583 703 583 1029 l 583 323 q 452 10 583 68 q 330 -12 402 -12 z "},"ó":{"ha":658,"x_min":75,"x_max":583,"o":"m 330 133 q 387 170 372 133 q 402 280 402 207 l 402 735 q 387 847 402 810 q 329 884 371 884 q 271 847 287 884 q 256 735 256 810 l 256 280 q 292 143 256 168 q 330 133 307 133 m 330 -12 q 130 74 186 -12 q 75 323 75 160 l 75 703 q 329 1029 75 1029 q 583 703 583 1029 l 583 323 q 452 10 583 68 q 330 -12 402 -12 m 190 1111 l 190 1217 l 489 1347 l 489 1172 l 190 1111 z "},"ô":{"ha":658,"x_min":75,"x_max":583,"o":"m 330 133 q 387 170 372 133 q 402 280 402 207 l 402 735 q 387 847 402 810 q 329 884 371 884 q 271 847 287 884 q 256 735 256 810 l 256 280 q 292 143 256 168 q 330 133 307 133 m 330 -12 q 130 74 186 -12 q 75 323 75 160 l 75 703 q 329 1029 75 1029 q 583 703 583 1029 l 583 323 q 452 10 583 68 q 330 -12 402 -12 m 98 1090 l 227 1319 l 431 1319 l 559 1090 l 387 1090 l 329 1251 l 271 1090 l 98 1090 z "},"õ":{"ha":658,"x_min":75,"x_max":583,"o":"m 549 1222 q 508 1129 535 1155 q 441 1103 480 1103 q 335 1131 402 1103 q 249 1158 268 1158 q 219 1156 229 1158 q 190 1117 208 1154 l 102 1152 q 153 1247 121 1219 q 223 1276 185 1276 q 333 1251 262 1276 q 418 1225 404 1225 l 421 1225 q 441 1237 433 1227 q 459 1274 450 1246 l 555 1255 l 549 1222 m 330 133 q 387 170 372 133 q 402 280 402 207 l 402 735 q 387 847 402 810 q 329 884 371 884 q 271 847 287 884 q 256 735 256 810 l 256 280 q 292 143 256 168 q 330 133 307 133 m 330 -12 q 130 74 186 -12 q 75 323 75 160 l 75 703 q 329 1029 75 1029 q 583 703 583 1029 l 583 323 q 452 10 583 68 q 330 -12 402 -12 z "},"ö":{"ha":658,"x_min":69,"x_max":589,"o":"m 330 133 q 387 170 372 133 q 402 280 402 207 l 402 735 q 387 847 402 810 q 329 884 371 884 q 271 847 287 884 q 256 735 256 810 l 256 280 q 292 143 256 168 q 330 133 307 133 m 330 -12 q 130 74 186 -12 q 75 323 75 160 l 75 703 q 329 1029 75 1029 q 583 703 583 1029 l 583 323 q 452 10 583 68 q 330 -12 402 -12 m 69 1101 l 69 1254 l 260 1254 l 260 1101 l 69 1101 m 397 1101 l 397 1254 l 589 1254 l 589 1101 l 397 1101 z "},"÷":{"ha":545,"x_min":64,"x_max":481,"o":"m 172 161 l 172 363 l 374 363 l 374 161 l 172 161 m 64 433 l 64 590 l 481 590 l 481 433 l 64 433 m 172 662 l 172 864 l 374 864 l 374 662 l 172 662 z "},"ø":{"ha":596,"x_min":75,"x_max":583,"o":"m 389 842 q 330 884 361 877 q 271 847 287 884 q 256 735 256 810 l 256 369 l 389 842 m 163 37 q 75 323 75 112 l 75 703 q 330 1029 75 1029 q 435 1011 390 1029 l 470 1134 l 538 1115 l 498 972 q 583 703 583 892 l 583 323 q 452 10 583 68 q 336 -12 402 -12 q 227 3 271 -12 l 193 -117 l 125 -98 l 163 37 m 273 168 q 330 133 289 133 q 387 170 372 133 q 402 280 402 207 l 402 629 l 273 168 z "},"ù":{"ha":688,"x_min":83,"x_max":599,"o":"m 492 1104 l 212 1168 l 212 1348 l 492 1210 l 492 1104 m 264 -13 q 83 231 83 -13 l 83 1017 l 263 1017 l 263 258 q 279 165 263 195 q 337 135 294 135 q 419 257 419 135 l 420 1017 l 599 1017 l 599 0 l 419 0 l 419 106 q 264 -13 376 -13 z "},"ú":{"ha":688,"x_min":83,"x_max":599,"o":"m 264 -13 q 83 231 83 -13 l 83 1017 l 263 1017 l 263 258 q 279 165 263 195 q 337 135 294 135 q 419 257 419 135 l 420 1017 l 599 1017 l 599 0 l 419 0 l 419 106 q 264 -13 376 -13 m 211 1111 l 211 1217 l 510 1347 l 510 1172 l 211 1111 z "},"û":{"ha":688,"x_min":83,"x_max":599,"o":"m 264 -13 q 83 231 83 -13 l 83 1017 l 263 1017 l 263 258 q 279 165 263 195 q 337 135 294 135 q 419 257 419 135 l 420 1017 l 599 1017 l 599 0 l 419 0 l 419 106 q 264 -13 376 -13 m 120 1090 l 248 1319 l 453 1319 l 581 1090 l 409 1090 l 351 1251 l 292 1090 l 120 1090 z "},"ü":{"ha":688,"x_min":83,"x_max":610,"o":"m 264 -13 q 83 231 83 -13 l 83 1017 l 263 1017 l 263 258 q 279 165 263 195 q 337 135 294 135 q 419 257 419 135 l 420 1017 l 599 1017 l 599 0 l 419 0 l 419 106 q 264 -13 376 -13 m 91 1101 l 91 1254 l 282 1254 l 282 1101 l 91 1101 m 419 1101 l 419 1254 l 610 1254 l 610 1101 l 419 1101 z "},"ý":{"ha":578,"x_min":28,"x_max":561,"o":"m 153 1111 l 153 1217 l 452 1347 l 452 1172 l 153 1111 m 60 -180 l 60 -56 l 119 -56 q 171 -50 153 -56 q 192 -28 190 -45 q 196 -3 196 -22 q 191 46 196 15 l 28 1018 l 199 1018 l 264 497 l 292 223 l 307 223 l 331 497 l 391 1018 l 561 1018 l 385 -43 q 346 -150 373 -120 q 251 -180 319 -180 l 60 -180 z "},"þ":{"ha":678,"x_min":90,"x_max":600,"o":"m 90 -193 l 90 1204 l 271 1204 l 271 926 q 330 1001 290 974 q 415 1027 370 1027 q 494 1011 460 1027 q 578 905 555 981 q 600 711 600 829 l 600 340 q 549 58 600 129 q 397 -12 498 -12 q 325 9 358 -12 q 271 62 292 30 l 271 -193 l 90 -193 m 349 134 q 406 175 392 134 q 420 306 420 216 l 420 725 q 413 829 420 808 q 394 866 405 850 q 353 882 382 882 q 307 869 323 882 q 271 730 271 843 q 271 726 271 728 l 271 298 q 309 145 271 171 q 349 134 325 134 z "},"ÿ":{"ha":578,"x_min":28,"x_max":561,"o":"m 33 1101 l 33 1254 l 224 1254 l 224 1101 l 33 1101 m 361 1101 l 361 1254 l 552 1254 l 552 1101 l 361 1101 m 60 -180 l 60 -56 l 119 -56 q 171 -50 153 -56 q 192 -28 190 -45 q 196 -3 196 -22 q 191 46 196 15 l 28 1018 l 199 1018 l 264 497 l 292 223 l 307 223 l 331 497 l 391 1018 l 561 1018 l 385 -43 q 346 -150 373 -120 q 251 -180 319 -180 l 60 -180 z "},"Ā":{"ha":662,"x_min":35,"x_max":627,"o":"m 152 1293 l 152 1395 l 496 1395 l 496 1293 l 152 1293 m 410 359 l 330 958 l 327 958 l 254 359 l 410 359 m 35 0 l 205 1194 l 446 1194 l 627 0 l 457 0 l 429 213 l 236 213 l 210 0 l 35 0 z "},"ā":{"ha":665,"x_min":73,"x_max":585,"o":"m 171 1116 l 171 1219 l 515 1219 l 515 1116 l 171 1116 m 401 552 q 286 480 315 514 q 256 375 256 446 l 256 266 q 271 164 256 195 q 319 133 286 133 q 374 156 353 133 q 401 207 395 178 l 401 552 m 259 -10 q 117 61 159 -10 q 73 267 74 133 l 73 332 q 143 530 73 463 q 297 615 189 574 q 352 635 317 623 q 401 654 387 648 l 401 743 q 389 855 401 825 q 335 884 377 884 q 278 853 292 884 q 264 748 264 822 l 264 703 l 86 703 l 86 733 q 140 954 86 878 q 331 1029 194 1029 q 527 954 469 1029 q 585 726 585 878 l 585 0 l 404 0 l 404 101 q 352 22 390 54 q 259 -10 313 -10 z "},"Ă":{"ha":662,"x_min":35,"x_max":627,"o":"m 517 1451 q 326 1272 517 1272 q 135 1449 135 1272 l 135 1459 l 237 1459 q 260 1390 237 1408 q 326 1371 283 1371 q 392 1389 369 1371 q 415 1459 415 1407 l 517 1459 l 517 1451 m 410 359 l 330 958 l 327 958 l 254 359 l 410 359 m 35 0 l 205 1194 l 446 1194 l 627 0 l 457 0 l 429 213 l 236 213 l 210 0 l 35 0 z "},"ă":{"ha":665,"x_min":73,"x_max":585,"o":"m 536 1274 q 345 1095 536 1095 q 154 1273 154 1095 l 154 1283 l 256 1283 q 279 1213 256 1232 q 345 1195 302 1195 q 411 1213 388 1195 q 434 1283 434 1231 l 536 1283 l 536 1274 m 401 552 q 286 480 315 514 q 256 375 256 446 l 256 266 q 271 164 256 195 q 319 133 286 133 q 374 156 353 133 q 401 207 395 178 l 401 552 m 259 -10 q 117 61 159 -10 q 73 267 74 133 l 73 332 q 143 530 73 463 q 297 615 189 574 q 352 635 317 623 q 401 654 387 648 l 401 743 q 389 855 401 825 q 335 884 377 884 q 278 853 292 884 q 264 748 264 822 l 264 703 l 86 703 l 86 733 q 140 954 86 878 q 331 1029 194 1029 q 527 954 469 1029 q 585 726 585 878 l 585 0 l 404 0 l 404 101 q 352 22 390 54 q 259 -10 313 -10 z "},"Ą":{"ha":662,"x_min":35,"x_max":627,"o":"m 475 -422 q 332 -377 382 -422 q 281 -260 281 -333 q 328 -116 281 -187 q 462 3 375 -45 l 534 3 q 412 -227 412 -125 q 440 -293 412 -271 q 506 -315 467 -315 q 589 -304 545 -315 l 589 -398 q 541 -414 576 -406 q 475 -422 507 -422 m 410 359 l 330 958 l 327 958 l 254 359 l 410 359 m 35 0 l 205 1194 l 446 1194 l 627 0 l 457 0 l 429 213 l 236 213 l 210 0 l 35 0 z "},"ą":{"ha":665,"x_min":73,"x_max":591,"o":"m 477 -422 q 334 -377 384 -422 q 283 -260 283 -333 q 330 -116 283 -187 q 464 3 377 -45 l 536 3 q 414 -227 414 -125 q 442 -293 414 -271 q 508 -315 469 -315 q 591 -304 547 -315 l 591 -398 q 543 -414 578 -406 q 477 -422 509 -422 m 401 552 q 286 480 315 514 q 256 375 256 446 l 256 266 q 271 164 256 195 q 319 133 286 133 q 374 156 353 133 q 401 207 395 178 l 401 552 m 259 -10 q 117 61 159 -10 q 73 267 74 133 l 73 332 q 143 530 73 463 q 297 615 189 574 q 352 635 317 623 q 401 654 387 648 l 401 743 q 389 855 401 825 q 335 884 377 884 q 278 853 292 884 q 264 748 264 822 l 264 703 l 86 703 l 86 733 q 140 954 86 878 q 331 1029 194 1029 q 527 954 469 1029 q 585 726 585 878 l 585 0 l 404 0 l 404 101 q 352 22 390 54 q 259 -10 313 -10 z "},"Ć":{"ha":652,"x_min":75,"x_max":593,"o":"m 593 326 q 532 70 593 153 q 338 -14 470 -14 q 140 75 205 -14 q 75 330 75 163 l 75 850 q 214 1183 75 1116 q 339 1207 266 1207 q 591 890 591 1207 l 591 726 l 415 726 l 415 878 q 399 1010 415 970 q 338 1050 384 1050 q 275 1008 293 1050 q 258 879 258 966 l 258 321 q 275 184 258 225 q 336 142 292 142 q 398 184 381 142 q 415 323 415 227 l 415 494 l 593 494 l 593 326 m 199 1287 l 199 1393 l 498 1523 l 498 1348 l 199 1287 z "},"ć":{"ha":640,"x_min":75,"x_max":574,"o":"m 335 -12 q 129 78 182 -12 q 75 339 75 168 l 75 669 q 152 968 75 890 q 338 1029 214 1029 q 519 954 463 1029 q 574 736 574 878 l 574 624 l 401 624 l 401 742 q 384 859 401 835 q 328 882 368 882 q 272 847 289 882 q 256 739 256 812 l 256 281 q 271 170 256 205 q 330 135 286 135 q 399 220 391 136 q 401 266 401 239 q 401 280 401 273 l 401 401 l 574 401 l 574 298 q 519 68 574 149 q 335 -12 463 -12 m 201 1111 l 201 1217 l 500 1347 l 500 1172 l 201 1111 z "},"Ĉ":{"ha":652,"x_min":75,"x_max":593,"o":"m 593 326 q 532 70 593 153 q 338 -14 470 -14 q 140 75 205 -14 q 75 330 75 163 l 75 850 q 214 1183 75 1116 q 339 1207 266 1207 q 591 890 591 1207 l 591 726 l 415 726 l 415 878 q 399 1010 415 970 q 338 1050 384 1050 q 275 1008 293 1050 q 258 879 258 966 l 258 321 q 275 184 258 225 q 336 142 292 142 q 398 184 381 142 q 415 323 415 227 l 415 494 l 593 494 l 593 326 m 109 1267 l 237 1495 l 441 1495 l 569 1267 l 397 1267 l 339 1427 l 281 1267 l 109 1267 z "},"ĉ":{"ha":640,"x_min":75,"x_max":574,"o":"m 335 -12 q 129 78 182 -12 q 75 339 75 168 l 75 669 q 152 968 75 890 q 338 1029 214 1029 q 519 954 463 1029 q 574 736 574 878 l 574 624 l 401 624 l 401 742 q 384 859 401 835 q 328 882 368 882 q 272 847 289 882 q 256 739 256 812 l 256 281 q 271 170 256 205 q 330 135 286 135 q 399 220 391 136 q 401 266 401 239 q 401 280 401 273 l 401 401 l 574 401 l 574 298 q 519 68 574 149 q 335 -12 463 -12 m 110 1090 l 238 1319 l 443 1319 l 570 1090 l 399 1090 l 340 1251 l 282 1090 l 110 1090 z "},"Ċ":{"ha":652,"x_min":75,"x_max":593,"o":"m 249 1272 l 249 1426 l 433 1426 l 433 1272 l 249 1272 m 593 326 q 532 70 593 153 q 338 -14 470 -14 q 140 75 205 -14 q 75 330 75 163 l 75 850 q 214 1183 75 1116 q 339 1207 266 1207 q 591 890 591 1207 l 591 726 l 415 726 l 415 878 q 399 1010 415 970 q 338 1050 384 1050 q 275 1008 293 1050 q 258 879 258 966 l 258 321 q 275 184 258 225 q 336 142 292 142 q 398 184 381 142 q 415 323 415 227 l 415 494 l 593 494 l 593 326 z "},"ċ":{"ha":640,"x_min":75,"x_max":574,"o":"m 250 1096 l 250 1249 l 434 1249 l 434 1096 l 250 1096 m 335 -12 q 129 78 182 -12 q 75 339 75 168 l 75 669 q 152 968 75 890 q 338 1029 214 1029 q 519 954 463 1029 q 574 736 574 878 l 574 624 l 401 624 l 401 742 q 384 859 401 835 q 328 882 368 882 q 272 847 289 882 q 256 739 256 812 l 256 281 q 271 170 256 205 q 330 135 286 135 q 399 220 391 136 q 401 266 401 239 q 401 280 401 273 l 401 401 l 574 401 l 574 298 q 519 68 574 149 q 335 -12 463 -12 z "},"Č":{"ha":652,"x_min":75,"x_max":593,"o":"m 593 326 q 532 70 593 153 q 338 -14 470 -14 q 140 75 205 -14 q 75 330 75 163 l 75 850 q 214 1183 75 1116 q 339 1207 266 1207 q 591 890 591 1207 l 591 726 l 415 726 l 415 878 q 399 1010 415 970 q 338 1050 384 1050 q 275 1008 293 1050 q 258 879 258 966 l 258 321 q 275 184 258 225 q 336 142 292 142 q 398 184 381 142 q 415 323 415 227 l 415 494 l 593 494 l 593 326 m 237 1267 l 109 1496 l 281 1496 l 339 1335 l 397 1496 l 569 1496 l 441 1267 l 237 1267 z "},"č":{"ha":640,"x_min":75,"x_max":574,"o":"m 335 -12 q 129 78 182 -12 q 75 339 75 168 l 75 669 q 152 968 75 890 q 338 1029 214 1029 q 519 954 463 1029 q 574 736 574 878 l 574 624 l 401 624 l 401 742 q 384 859 401 835 q 328 882 368 882 q 272 847 289 882 q 256 739 256 812 l 256 281 q 271 170 256 205 q 330 135 286 135 q 399 220 391 136 q 401 266 401 239 q 401 280 401 273 l 401 401 l 574 401 l 574 298 q 519 68 574 149 q 335 -12 463 -12 m 238 1090 l 110 1320 l 282 1320 l 340 1159 l 399 1320 l 570 1320 l 443 1090 l 238 1090 z "},"Ď":{"ha":682,"x_min":89,"x_max":608,"o":"m 271 141 l 330 141 q 403 174 380 141 q 426 293 426 206 l 425 882 q 402 1015 425 975 q 324 1054 380 1054 l 271 1054 l 271 141 m 89 0 l 89 1194 l 357 1194 q 548 1116 488 1194 q 607 887 607 1038 l 608 349 q 548 84 608 168 q 351 0 488 0 l 89 0 m 235 1267 l 106 1496 l 279 1496 l 337 1335 l 395 1496 l 567 1496 l 439 1267 l 235 1267 z "},"ď":{"ha":677,"x_min":75,"x_max":922,"o":"m 262 -10 q 139 36 180 -10 q 86 153 98 82 q 75 325 75 224 l 75 739 q 121 948 75 867 q 276 1029 168 1029 q 353 1009 318 1029 q 408 954 388 989 l 408 1204 l 587 1204 l 587 0 l 408 0 l 408 94 q 262 -10 367 -10 m 256 300 q 272 175 256 216 q 331 133 288 133 q 392 175 375 133 q 408 314 408 216 l 408 721 q 370 873 408 846 q 331 884 354 884 q 271 842 286 884 q 256 719 256 801 l 256 300 m 726 722 l 789 1013 l 686 1013 l 686 1204 l 922 1204 l 922 1019 l 830 722 l 726 722 z "},"Đ":{"ha":682,"x_min":22,"x_max":608,"o":"m 271 141 l 330 141 q 403 174 380 141 q 426 293 426 206 l 425 882 q 402 1015 425 975 q 324 1054 380 1054 l 271 1054 l 271 141 m 89 0 l 89 1194 l 357 1194 q 548 1116 488 1194 q 607 887 607 1038 l 608 349 q 548 84 608 168 q 351 0 488 0 l 89 0 m 22 576 l 22 679 l 366 679 l 366 576 l 22 576 z "},"đ":{"ha":677,"x_min":75,"x_max":659,"o":"m 262 -10 q 139 36 180 -10 q 86 153 98 82 q 75 325 75 224 l 75 739 q 121 948 75 867 q 276 1029 168 1029 q 353 1009 318 1029 q 408 954 388 989 l 408 1204 l 587 1204 l 587 0 l 408 0 l 408 94 q 262 -10 367 -10 m 256 300 q 272 175 256 216 q 331 133 288 133 q 392 175 375 133 q 408 314 408 216 l 408 721 q 370 873 408 846 q 331 884 354 884 q 271 842 286 884 q 256 719 256 801 l 256 300 m 315 1044 l 315 1147 l 659 1147 l 659 1044 l 315 1044 z "},"Ē":{"ha":553,"x_min":90,"x_max":498,"o":"m 123 1293 l 123 1395 l 467 1395 l 467 1293 l 123 1293 m 90 0 l 90 1194 l 490 1194 l 490 1037 l 271 1037 l 271 690 l 479 690 l 479 536 l 271 536 l 271 157 l 498 157 l 498 0 l 90 0 z "},"ē":{"ha":650,"x_min":75,"x_max":579,"o":"m 155 1116 l 155 1218 l 498 1218 l 498 1116 l 155 1116 m 327 -12 q 106 119 155 -12 q 75 338 75 202 l 75 718 q 334 1029 75 1029 q 526 947 473 1029 q 579 714 579 865 l 579 496 l 256 496 l 256 296 q 274 162 256 191 q 329 133 292 133 q 376 150 366 133 q 397 211 395 180 q 400 296 400 242 l 400 386 l 578 386 l 578 332 q 556 133 578 193 q 506 45 534 73 q 327 -12 446 -12 m 255 602 l 400 602 l 400 732 q 387 851 400 815 q 333 888 374 888 q 332 888 332 888 q 256 780 262 888 q 255 727 255 760 l 255 602 z "},"Ĕ":{"ha":553,"x_min":90,"x_max":498,"o":"m 488 1451 q 297 1272 488 1272 q 106 1449 106 1272 l 106 1459 l 208 1459 q 231 1390 208 1408 q 297 1371 254 1371 q 363 1389 340 1371 q 386 1459 386 1407 l 488 1459 l 488 1451 m 90 0 l 90 1194 l 490 1194 l 490 1037 l 271 1037 l 271 690 l 479 690 l 479 536 l 271 536 l 271 157 l 498 157 l 498 0 l 90 0 z "},"ĕ":{"ha":650,"x_min":75,"x_max":579,"o":"m 520 1274 q 329 1095 520 1095 q 138 1272 138 1095 l 138 1282 l 239 1282 q 263 1213 239 1231 q 329 1194 286 1194 q 395 1212 372 1194 q 418 1282 418 1230 l 520 1282 l 520 1274 m 327 -12 q 106 119 155 -12 q 75 338 75 202 l 75 718 q 334 1029 75 1029 q 526 947 473 1029 q 579 714 579 865 l 579 496 l 256 496 l 256 296 q 274 162 256 191 q 329 133 292 133 q 376 150 366 133 q 397 211 395 180 q 400 296 400 242 l 400 386 l 578 386 l 578 332 q 556 133 578 193 q 506 45 534 73 q 327 -12 446 -12 m 255 602 l 400 602 l 400 732 q 387 851 400 815 q 333 888 374 888 q 332 888 332 888 q 256 780 262 888 q 255 727 255 760 l 255 602 z "},"Ė":{"ha":553,"x_min":90,"x_max":498,"o":"m 208 1272 l 208 1426 l 391 1426 l 391 1272 l 208 1272 m 90 0 l 90 1194 l 490 1194 l 490 1037 l 271 1037 l 271 690 l 479 690 l 479 536 l 271 536 l 271 157 l 498 157 l 498 0 l 90 0 z "},"ė":{"ha":650,"x_min":75,"x_max":579,"o":"m 239 1095 l 239 1249 l 423 1249 l 423 1095 l 239 1095 m 327 -12 q 106 119 155 -12 q 75 338 75 202 l 75 718 q 334 1029 75 1029 q 526 947 473 1029 q 579 714 579 865 l 579 496 l 256 496 l 256 296 q 274 162 256 191 q 329 133 292 133 q 376 150 366 133 q 397 211 395 180 q 400 296 400 242 l 400 386 l 578 386 l 578 332 q 556 133 578 193 q 506 45 534 73 q 327 -12 446 -12 m 255 602 l 400 602 l 400 732 q 387 851 400 815 q 333 888 374 888 q 332 888 332 888 q 256 780 262 888 q 255 727 255 760 l 255 602 z "},"Ę":{"ha":553,"x_min":90,"x_max":498,"o":"m 90 0 l 90 1194 l 490 1194 l 490 1037 l 271 1037 l 271 690 l 479 690 l 479 536 l 271 536 l 271 157 l 498 157 l 498 0 l 90 0 m 378 -422 q 235 -377 286 -422 q 185 -260 185 -333 q 232 -116 185 -187 q 366 3 279 -45 l 438 3 q 316 -227 316 -125 q 343 -293 316 -271 q 410 -315 371 -315 q 493 -304 449 -315 l 493 -398 q 445 -414 479 -406 q 378 -422 410 -422 z "},"ę":{"ha":650,"x_min":75,"x_max":579,"o":"m 327 -12 q 106 119 155 -12 q 75 338 75 202 l 75 718 q 334 1029 75 1029 q 526 947 473 1029 q 579 714 579 865 l 579 496 l 256 496 l 256 296 q 274 162 256 191 q 329 133 292 133 q 376 150 366 133 q 397 211 395 180 q 400 296 400 242 l 400 386 l 578 386 l 578 332 q 556 133 578 193 q 506 45 534 73 q 327 -12 446 -12 m 255 602 l 400 602 l 400 732 q 387 851 400 815 q 333 888 374 888 q 332 888 332 888 q 256 780 262 888 q 255 727 255 760 l 255 602 m 353 -422 q 210 -377 260 -422 q 159 -260 159 -333 q 206 -116 159 -187 q 340 3 253 -45 l 412 3 q 290 -227 290 -125 q 318 -293 290 -271 q 384 -315 345 -315 q 467 -304 423 -315 l 467 -398 q 419 -414 454 -406 q 353 -422 385 -422 z "},"Ě":{"ha":553,"x_min":67,"x_max":528,"o":"m 90 0 l 90 1194 l 490 1194 l 490 1037 l 271 1037 l 271 690 l 479 690 l 479 536 l 271 536 l 271 157 l 498 157 l 498 0 l 90 0 m 195 1267 l 67 1496 l 239 1496 l 298 1335 l 356 1496 l 528 1496 l 400 1267 l 195 1267 z "},"ě":{"ha":650,"x_min":75,"x_max":579,"o":"m 327 -12 q 106 119 155 -12 q 75 338 75 202 l 75 718 q 334 1029 75 1029 q 526 947 473 1029 q 579 714 579 865 l 579 496 l 256 496 l 256 296 q 274 162 256 191 q 329 133 292 133 q 376 150 366 133 q 397 211 395 180 q 400 296 400 242 l 400 386 l 578 386 l 578 332 q 556 133 578 193 q 506 45 534 73 q 327 -12 446 -12 m 255 602 l 400 602 l 400 732 q 387 851 400 815 q 333 888 374 888 q 332 888 332 888 q 256 780 262 888 q 255 727 255 760 l 255 602 m 227 1090 l 99 1319 l 271 1319 l 330 1158 l 388 1319 l 559 1319 l 432 1090 l 227 1090 z "},"Ĝ":{"ha":678,"x_min":75,"x_max":597,"o":"m 314 -12 q 138 76 201 -12 q 75 349 75 165 l 75 868 q 139 1120 75 1034 q 345 1207 204 1207 q 568 1076 521 1207 q 597 861 597 998 l 597 777 l 427 777 l 427 901 q 410 1017 427 983 q 345 1050 393 1050 q 277 1010 297 1050 q 258 869 258 970 l 258 352 q 275 189 258 235 q 344 142 293 142 q 417 192 395 142 q 438 359 438 241 l 438 519 l 347 519 l 347 652 l 597 652 l 597 0 l 515 0 l 488 117 q 425 22 473 57 q 314 -12 377 -12 m 112 1267 l 240 1495 l 445 1495 l 572 1267 l 401 1267 l 342 1427 l 284 1267 l 112 1267 z "},"ĝ":{"ha":671,"x_min":68,"x_max":587,"o":"m 587 125 q 523 -79 587 -5 q 309 -153 460 -153 q 68 -80 158 -153 l 131 33 q 281 -18 212 -18 q 379 17 351 -18 q 407 112 407 52 l 407 193 q 355 124 390 144 q 266 104 320 104 q 118 183 159 104 q 77 395 77 262 l 77 722 q 270 1029 77 1029 q 273 1029 271 1029 q 407 927 378 1029 l 407 1017 l 587 1017 l 587 125 m 258 403 q 274 280 258 319 q 332 240 290 240 q 390 276 374 240 q 407 404 407 311 l 407 737 q 390 846 407 808 q 328 884 372 884 q 271 845 284 884 q 258 738 258 806 l 258 403 m 122 1090 l 250 1319 l 455 1319 l 583 1090 l 411 1090 l 353 1251 l 294 1090 l 122 1090 z "},"Ğ":{"ha":678,"x_min":75,"x_max":597,"o":"m 533 1451 q 342 1272 533 1272 q 151 1449 151 1272 l 151 1459 l 252 1459 q 276 1390 252 1408 q 342 1371 299 1371 q 408 1389 385 1371 q 431 1459 431 1407 l 533 1459 l 533 1451 m 314 -12 q 138 76 201 -12 q 75 349 75 165 l 75 868 q 139 1120 75 1034 q 345 1207 204 1207 q 568 1076 521 1207 q 597 861 597 998 l 597 777 l 427 777 l 427 901 q 410 1017 427 983 q 345 1050 393 1050 q 277 1010 297 1050 q 258 869 258 970 l 258 352 q 275 189 258 235 q 344 142 293 142 q 417 192 395 142 q 438 359 438 241 l 438 519 l 347 519 l 347 652 l 597 652 l 597 0 l 515 0 l 488 117 q 425 22 473 57 q 314 -12 377 -12 z "},"ğ":{"ha":671,"x_min":68,"x_max":587,"o":"m 543 1274 q 352 1095 543 1095 q 161 1273 161 1095 l 161 1283 l 262 1283 q 286 1213 262 1232 q 352 1195 309 1195 q 418 1213 395 1195 q 441 1283 441 1231 l 543 1283 l 543 1274 m 587 125 q 523 -79 587 -5 q 309 -153 460 -153 q 68 -80 158 -153 l 131 33 q 281 -18 212 -18 q 379 17 351 -18 q 407 112 407 52 l 407 193 q 355 124 390 144 q 266 104 320 104 q 118 183 159 104 q 77 395 77 262 l 77 722 q 270 1029 77 1029 q 273 1029 271 1029 q 407 927 378 1029 l 407 1017 l 587 1017 l 587 125 m 258 403 q 274 280 258 319 q 332 240 290 240 q 390 276 374 240 q 407 404 407 311 l 407 737 q 390 846 407 808 q 328 884 372 884 q 271 845 284 884 q 258 738 258 806 l 258 403 z "},"Ġ":{"ha":678,"x_min":75,"x_max":597,"o":"m 252 1272 l 252 1426 l 436 1426 l 436 1272 l 252 1272 m 314 -12 q 138 76 201 -12 q 75 349 75 165 l 75 868 q 139 1120 75 1034 q 345 1207 204 1207 q 568 1076 521 1207 q 597 861 597 998 l 597 777 l 427 777 l 427 901 q 410 1017 427 983 q 345 1050 393 1050 q 277 1010 297 1050 q 258 869 258 970 l 258 352 q 275 189 258 235 q 344 142 293 142 q 417 192 395 142 q 438 359 438 241 l 438 519 l 347 519 l 347 652 l 597 652 l 597 0 l 515 0 l 488 117 q 425 22 473 57 q 314 -12 377 -12 z "},"ġ":{"ha":671,"x_min":68,"x_max":587,"o":"m 262 1096 l 262 1249 l 446 1249 l 446 1096 l 262 1096 m 587 125 q 523 -79 587 -5 q 309 -153 460 -153 q 68 -80 158 -153 l 131 33 q 281 -18 212 -18 q 379 17 351 -18 q 407 112 407 52 l 407 193 q 355 124 390 144 q 266 104 320 104 q 118 183 159 104 q 77 395 77 262 l 77 722 q 270 1029 77 1029 q 273 1029 271 1029 q 407 927 378 1029 l 407 1017 l 587 1017 l 587 125 m 258 403 q 274 280 258 319 q 332 240 290 240 q 390 276 374 240 q 407 404 407 311 l 407 737 q 390 846 407 808 q 328 884 372 884 q 271 845 284 884 q 258 738 258 806 l 258 403 z "},"Ģ":{"ha":678,"x_min":75,"x_max":597,"o":"m 275 -496 l 312 -290 l 234 -290 l 234 -112 l 419 -112 l 419 -284 l 357 -496 l 275 -496 m 314 -12 q 138 76 201 -12 q 75 349 75 165 l 75 868 q 139 1120 75 1034 q 345 1207 204 1207 q 568 1076 521 1207 q 597 861 597 998 l 597 777 l 427 777 l 427 901 q 410 1017 427 983 q 345 1050 393 1050 q 277 1010 297 1050 q 258 869 258 970 l 258 352 q 275 189 258 235 q 344 142 293 142 q 417 192 395 142 q 438 359 438 241 l 438 519 l 347 519 l 347 652 l 597 652 l 597 0 l 515 0 l 488 117 q 425 22 473 57 q 314 -12 377 -12 z "},"ģ":{"ha":671,"x_min":68,"x_max":587,"o":"m 378 1499 l 341 1293 l 419 1293 l 419 1114 l 234 1114 l 234 1286 l 296 1499 l 378 1499 m 587 125 q 523 -79 587 -5 q 309 -153 460 -153 q 68 -80 158 -153 l 131 33 q 281 -18 212 -18 q 379 17 351 -18 q 407 112 407 52 l 407 193 q 355 124 390 144 q 266 104 320 104 q 118 183 159 104 q 77 395 77 262 l 77 722 q 270 1029 77 1029 q 273 1029 271 1029 q 407 927 378 1029 l 407 1017 l 587 1017 l 587 125 m 258 403 q 274 280 258 319 q 332 240 290 240 q 390 276 374 240 q 407 404 407 311 l 407 737 q 390 846 407 808 q 328 884 372 884 q 271 845 284 884 q 258 738 258 806 l 258 403 z "},"Ĥ":{"ha":705,"x_min":90,"x_max":616,"o":"m 90 0 l 90 1194 l 271 1194 l 271 711 l 434 711 l 434 1194 l 616 1194 l 616 0 l 434 0 l 434 555 l 271 555 l 271 0 l 90 0 m 124 1267 l 252 1495 l 457 1495 l 585 1267 l 413 1267 l 355 1427 l 296 1267 l 124 1267 z "},"ĥ":{"ha":689,"x_min":90,"x_max":606,"o":"m 90 0 l 90 1204 l 269 1204 l 269 901 q 326 992 283 956 q 427 1029 368 1029 q 561 971 515 1029 q 606 801 606 912 l 606 0 l 427 0 l 427 784 q 355 882 427 882 q 292 848 314 882 q 269 756 269 814 l 269 0 l 90 0 m 114 1256 l 242 1485 l 447 1485 l 574 1256 l 403 1256 l 345 1416 l 286 1256 l 114 1256 z "},"Ħ":{"ha":705,"x_min":37,"x_max":682,"o":"m 271 935 l 271 711 l 434 711 l 434 935 l 271 935 m 37 935 l 37 1023 l 90 1023 l 90 1194 l 271 1194 l 271 1023 l 434 1023 l 434 1194 l 616 1194 l 616 1023 l 682 1023 l 682 935 l 616 935 l 616 0 l 434 0 l 434 555 l 271 555 l 271 0 l 90 0 l 90 935 l 37 935 z "},"ħ":{"ha":689,"x_min":0,"x_max":606,"o":"m 90 1154 l 90 1204 l 269 1204 l 269 1154 l 450 1154 l 450 1080 l 269 1080 l 269 901 q 326 992 283 956 q 427 1029 368 1029 q 561 971 515 1029 q 606 801 606 912 l 606 0 l 427 0 l 427 784 q 355 882 427 882 q 292 848 314 882 q 269 756 269 814 l 269 0 l 90 0 l 90 1080 l 0 1080 l 0 1154 l 90 1154 z "},"Ĩ":{"ha":374,"x_min":-40,"x_max":414,"o":"m 408 1398 q 366 1305 393 1331 q 299 1279 338 1279 q 193 1307 260 1279 q 107 1335 126 1335 q 77 1332 87 1335 q 48 1293 66 1330 l -40 1329 q 11 1423 -21 1395 q 82 1452 43 1452 q 191 1427 120 1452 q 277 1402 262 1402 l 279 1402 q 299 1413 291 1404 q 317 1450 308 1422 l 414 1431 l 408 1398 m 96 0 l 96 1194 l 278 1194 l 278 0 l 96 0 z "},"ĩ":{"ha":364,"x_min":-48,"x_max":406,"o":"m 399 1222 q 358 1129 385 1155 q 291 1103 330 1103 q 185 1131 252 1103 q 99 1158 118 1158 q 69 1156 79 1158 q 40 1117 58 1154 l -48 1152 q 3 1247 -29 1219 q 74 1276 35 1276 q 183 1251 112 1276 q 269 1225 254 1225 l 271 1225 q 291 1237 283 1227 q 309 1274 300 1246 l 406 1255 l 399 1222 m 92 0 l 92 1017 l 272 1017 l 272 0 l 92 0 z "},"Ī":{"ha":374,"x_min":12,"x_max":356,"o":"m 12 1293 l 12 1395 l 356 1395 l 356 1293 l 12 1293 m 96 0 l 96 1194 l 278 1194 l 278 0 l 96 0 z "},"ī":{"ha":364,"x_min":4,"x_max":348,"o":"m 4 1116 l 4 1219 l 348 1219 l 348 1116 l 4 1116 m 92 0 l 92 1017 l 272 1017 l 272 0 l 92 0 z "},"Ĭ":{"ha":374,"x_min":-5,"x_max":378,"o":"m 378 1451 q 186 1272 378 1272 q -5 1449 -5 1272 l -5 1459 l 97 1459 q 120 1390 97 1408 q 186 1371 144 1371 q 252 1389 229 1371 q 275 1459 275 1407 l 378 1459 l 378 1451 m 96 0 l 96 1194 l 278 1194 l 278 0 l 96 0 z "},"ĭ":{"ha":364,"x_min":-13,"x_max":370,"o":"m 370 1274 q 178 1095 370 1095 q -13 1273 -13 1095 l -13 1283 l 89 1283 q 112 1213 89 1232 q 178 1195 136 1195 q 244 1213 221 1195 q 267 1283 267 1231 l 370 1283 l 370 1274 m 92 0 l 92 1017 l 272 1017 l 272 0 l 92 0 z "},"Į":{"ha":374,"x_min":5,"x_max":313,"o":"m 198 -422 q 55 -377 105 -422 q 5 -260 5 -333 q 52 -116 5 -187 q 185 3 98 -45 l 258 3 q 136 -227 136 -125 q 163 -293 136 -271 q 230 -315 191 -315 q 313 -304 269 -315 l 313 -398 q 264 -414 299 -406 q 198 -422 230 -422 m 96 0 l 96 1194 l 278 1194 l 278 0 l 96 0 z "},"į":{"ha":364,"x_min":3,"x_max":311,"o":"m 89 1096 l 89 1249 l 273 1249 l 273 1096 l 89 1096 m 196 -422 q 53 -377 103 -422 q 3 -260 3 -333 q 50 -116 3 -187 q 183 3 96 -45 l 256 3 q 134 -227 134 -125 q 161 -293 134 -271 q 228 -315 189 -315 q 311 -304 267 -315 l 311 -398 q 262 -414 297 -406 q 196 -422 228 -422 m 92 0 l 92 1017 l 272 1017 l 272 0 l 92 0 z "},"İ":{"ha":374,"x_min":96,"x_max":281,"o":"m 97 1272 l 97 1426 l 281 1426 l 281 1272 l 97 1272 m 96 0 l 96 1194 l 278 1194 l 278 0 l 96 0 z "},"ı":{"ha":364,"x_min":92,"x_max":272,"o":"m 92 0 l 92 1017 l 272 1017 l 272 0 l 92 0 z "},"Ĳ":{"ha":1000,"x_min":96,"x_max":913,"o":"m 913 292 q 848 66 913 146 q 667 -14 784 -14 q 485 57 550 -14 q 420 264 420 128 l 420 477 l 596 477 l 596 273 q 628 152 596 174 q 663 142 642 142 q 718 176 705 142 q 731 283 731 210 l 731 1194 l 913 1194 l 913 292 m 96 0 l 96 1194 l 278 1194 l 278 0 l 96 0 z "},"ĳ":{"ha":745,"x_min":90,"x_max":656,"o":"m 513 -133 q 460 -134 500 -134 q 404 -122 419 -134 l 404 2 q 434 1 415 -1 q 477 47 477 3 l 477 1017 l 656 1017 l 656 54 q 619 -85 656 -39 q 513 -133 581 -132 m 474 1111 l 474 1267 l 655 1267 l 655 1111 l 474 1111 m 92 0 l 92 1017 l 272 1017 l 272 0 l 92 0 m 90 1111 l 90 1267 l 271 1267 l 271 1111 l 90 1111 z "},"Ĵ":{"ha":625,"x_min":46,"x_max":622,"o":"m 538 292 q 474 66 538 146 q 293 -14 410 -14 q 111 57 176 -14 q 46 264 46 128 l 46 477 l 222 477 l 222 273 q 254 152 222 174 q 289 142 268 142 q 343 176 330 142 q 357 283 357 210 l 357 1194 l 538 1194 l 538 292 m 161 1267 l 290 1495 l 494 1495 l 622 1267 l 450 1267 l 392 1427 l 334 1267 l 161 1267 z "},"ĵ":{"ha":385,"x_min":-22,"x_max":439,"o":"m 44 22 l 62 21 l 75 21 q 117 66 117 24 l 117 1017 l 297 1017 l 297 73 q 259 -65 297 -20 q 153 -113 221 -111 q 100 -113 140 -113 q 44 -102 60 -113 l 44 22 m -22 1090 l 106 1319 l 311 1319 l 439 1090 l 267 1090 l 209 1251 l 151 1090 l -22 1090 z "},"Ķ":{"ha":658,"x_min":90,"x_max":656,"o":"m 264 -496 l 301 -290 l 223 -290 l 223 -112 l 408 -112 l 408 -284 l 346 -496 l 264 -496 m 90 0 l 90 1194 l 271 1194 l 271 644 l 453 1194 l 641 1194 l 443 605 l 656 0 l 465 0 l 273 557 l 273 0 l 90 0 z "},"ķ":{"ha":635,"x_min":90,"x_max":637,"o":"m 250 -496 l 288 -290 l 210 -290 l 210 -112 l 395 -112 l 395 -284 l 332 -496 l 250 -496 m 90 0 l 90 1204 l 269 1204 l 269 555 l 443 1017 l 625 1017 l 429 517 l 637 0 l 454 0 l 269 484 l 269 0 l 90 0 z "},"ĸ":{"ha":635,"x_min":90,"x_max":637,"o":"m 90 0 l 90 1017 l 269 1017 l 269 555 l 443 1017 l 625 1017 l 429 517 l 637 0 l 454 0 l 269 484 l 269 0 l 90 0 z "},"Ĺ":{"ha":516,"x_min":90,"x_max":501,"o":"m 90 0 l 90 1194 l 271 1194 l 271 155 l 501 155 l 501 0 l 90 0 m 121 1287 l 121 1393 l 420 1523 l 420 1348 l 121 1287 z "},"ĺ":{"ha":362,"x_min":41,"x_max":340,"o":"m 92 0 l 92 1204 l 271 1204 l 271 0 l 92 0 m 41 1287 l 41 1393 l 340 1523 l 340 1348 l 41 1287 z "},"Ļ":{"ha":516,"x_min":90,"x_max":501,"o":"m 210 -496 l 247 -290 l 169 -290 l 169 -112 l 354 -112 l 354 -284 l 292 -496 l 210 -496 m 90 0 l 90 1194 l 271 1194 l 271 155 l 501 155 l 501 0 l 90 0 z "},"ļ":{"ha":362,"x_min":73,"x_max":271,"o":"m 113 -496 l 151 -290 l 73 -290 l 73 -112 l 258 -112 l 258 -284 l 195 -496 l 113 -496 m 92 0 l 92 1204 l 271 1204 l 271 0 l 92 0 z "},"Ľ":{"ha":528,"x_min":90,"x_max":635,"o":"m 90 0 l 90 1194 l 271 1194 l 271 155 l 501 155 l 501 0 l 90 0 m 491 795 l 529 1002 l 450 1002 l 450 1181 l 635 1181 l 635 1008 l 573 795 l 491 795 z "},"ľ":{"ha":362,"x_min":73,"x_max":271,"o":"m 113 -496 l 151 -290 l 73 -290 l 73 -112 l 258 -112 l 258 -284 l 195 -496 l 113 -496 m 92 0 l 92 1204 l 271 1204 l 271 0 l 92 0 z "},"Ŀ":{"ha":516,"x_min":90,"x_max":520,"o":"m 363 670 l 363 836 l 520 836 l 520 670 l 363 670 m 90 0 l 90 1194 l 271 1194 l 271 155 l 501 155 l 501 0 l 90 0 z "},"ŀ":{"ha":688,"x_min":92,"x_max":608,"o":"m 452 509 l 452 675 l 608 675 l 608 509 l 452 509 m 92 0 l 92 1204 l 271 1204 l 271 0 l 92 0 z "},"Ł":{"ha":538,"x_min":-1,"x_max":501,"o":"m -1 496 l -1 621 l 90 654 l 90 1194 l 271 1194 l 271 722 l 417 777 l 417 652 l 271 597 l 271 155 l 501 155 l 501 0 l 90 0 l 90 530 l -1 496 z "},"ł":{"ha":439,"x_min":33,"x_max":401,"o":"m 119 661 l 119 1204 l 298 1204 l 298 738 l 401 782 l 401 651 l 298 607 l 298 0 l 119 0 l 119 530 l 33 494 l 33 625 l 119 661 z "},"Ń":{"ha":725,"x_min":90,"x_max":635,"o":"m 90 0 l 90 1194 l 232 1194 l 485 477 l 472 803 l 472 1194 l 635 1194 l 635 0 l 507 0 l 247 741 l 257 428 l 257 0 l 90 0 m 223 1287 l 223 1393 l 522 1523 l 522 1348 l 223 1287 z "},"ń":{"ha":692,"x_min":90,"x_max":609,"o":"m 433 1029 q 609 801 609 1029 l 609 0 l 429 0 l 429 790 q 409 859 429 834 q 351 884 389 884 q 291 852 313 884 q 269 764 269 819 l 269 0 l 90 0 l 90 1017 l 269 1017 l 269 901 q 328 992 283 955 q 433 1029 372 1029 m 206 1111 l 206 1217 l 505 1347 l 505 1172 l 206 1111 z "},"Ņ":{"ha":725,"x_min":90,"x_max":635,"o":"m 295 -496 l 332 -290 l 254 -290 l 254 -112 l 439 -112 l 439 -284 l 377 -496 l 295 -496 m 90 0 l 90 1194 l 232 1194 l 485 477 l 472 803 l 472 1194 l 635 1194 l 635 0 l 507 0 l 247 741 l 257 428 l 257 0 l 90 0 z "},"ņ":{"ha":692,"x_min":90,"x_max":609,"o":"m 278 -496 l 315 -290 l 237 -290 l 237 -112 l 422 -112 l 422 -284 l 360 -496 l 278 -496 m 433 1029 q 609 801 609 1029 l 609 0 l 429 0 l 429 790 q 409 859 429 834 q 351 884 389 884 q 291 852 313 884 q 269 764 269 819 l 269 0 l 90 0 l 90 1017 l 269 1017 l 269 901 q 328 992 283 955 q 433 1029 372 1029 z "},"Ň":{"ha":725,"x_min":90,"x_max":635,"o":"m 90 0 l 90 1194 l 232 1194 l 485 477 l 472 803 l 472 1194 l 635 1194 l 635 0 l 507 0 l 247 741 l 257 428 l 257 0 l 90 0 m 260 1267 l 132 1496 l 304 1496 l 363 1335 l 421 1496 l 593 1496 l 465 1267 l 260 1267 z "},"ň":{"ha":692,"x_min":90,"x_max":609,"o":"m 433 1029 q 609 801 609 1029 l 609 0 l 429 0 l 429 790 q 409 859 429 834 q 351 884 389 884 q 291 852 313 884 q 269 764 269 819 l 269 0 l 90 0 l 90 1017 l 269 1017 l 269 901 q 328 992 283 955 q 433 1029 372 1029 m 243 1090 l 115 1320 l 288 1320 l 346 1159 l 404 1320 l 576 1320 l 448 1090 l 243 1090 z "},"Ō":{"ha":677,"x_min":75,"x_max":602,"o":"m 258 332 q 274 185 258 227 q 339 144 290 144 q 404 186 389 144 q 420 332 420 229 l 420 888 q 404 1011 420 972 q 341 1050 388 1050 q 276 1011 295 1050 q 258 888 258 972 l 258 332 m 602 334 q 540 73 602 159 q 340 -14 477 -14 q 139 73 203 -14 q 75 334 75 159 l 75 880 q 342 1208 75 1208 q 542 1124 481 1208 q 602 880 602 1041 l 602 334 m 163 1295 l 163 1398 l 507 1398 l 507 1295 l 163 1295 z "},"ō":{"ha":658,"x_min":75,"x_max":583,"o":"m 330 133 q 387 170 372 133 q 402 280 402 207 l 402 735 q 387 847 402 810 q 329 884 371 884 q 271 847 287 884 q 256 735 256 810 l 256 280 q 292 143 256 168 q 330 133 307 133 m 330 -12 q 130 74 186 -12 q 75 323 75 160 l 75 703 q 329 1029 75 1029 q 583 703 583 1029 l 583 323 q 452 10 583 68 q 330 -12 402 -12 m 154 1116 l 154 1219 l 498 1219 l 498 1116 l 154 1116 z "},"Ŏ":{"ha":677,"x_min":75,"x_max":602,"o":"m 529 1453 q 338 1274 529 1274 q 146 1452 146 1274 l 146 1462 l 248 1462 q 272 1392 248 1411 q 338 1374 295 1374 q 404 1392 380 1374 q 427 1462 427 1410 l 529 1462 l 529 1453 m 258 332 q 274 185 258 227 q 339 144 290 144 q 404 186 389 144 q 420 332 420 229 l 420 888 q 404 1011 420 972 q 341 1050 388 1050 q 276 1011 295 1050 q 258 888 258 972 l 258 332 m 602 334 q 540 73 602 159 q 340 -14 477 -14 q 139 73 203 -14 q 75 334 75 159 l 75 880 q 342 1208 75 1208 q 542 1124 481 1208 q 602 880 602 1041 l 602 334 z "},"ŏ":{"ha":658,"x_min":75,"x_max":583,"o":"m 519 1274 q 328 1095 519 1095 q 137 1273 137 1095 l 137 1283 l 239 1283 q 262 1213 239 1232 q 328 1195 286 1195 q 394 1213 371 1195 q 417 1283 417 1231 l 519 1283 l 519 1274 m 330 133 q 387 170 372 133 q 402 280 402 207 l 402 735 q 387 847 402 810 q 329 884 371 884 q 271 847 287 884 q 256 735 256 810 l 256 280 q 292 143 256 168 q 330 133 307 133 m 330 -12 q 130 74 186 -12 q 75 323 75 160 l 75 703 q 329 1029 75 1029 q 583 703 583 1029 l 583 323 q 452 10 583 68 q 330 -12 402 -12 z "},"Ő":{"ha":677,"x_min":75,"x_max":630,"o":"m 258 332 q 274 185 258 227 q 339 144 290 144 q 404 186 389 144 q 420 332 420 229 l 420 888 q 404 1011 420 972 q 341 1050 388 1050 q 276 1011 295 1050 q 258 888 258 972 l 258 332 m 602 334 q 540 73 602 159 q 340 -14 477 -14 q 139 73 203 -14 q 75 334 75 159 l 75 880 q 342 1208 75 1208 q 542 1124 481 1208 q 602 880 602 1041 l 602 334 m 195 1314 l 118 1345 l 220 1645 l 361 1579 l 195 1314 m 422 1310 l 347 1345 l 487 1645 l 630 1576 l 422 1310 z "},"ő":{"ha":658,"x_min":75,"x_max":621,"o":"m 330 133 q 387 170 372 133 q 402 280 402 207 l 402 735 q 387 847 402 810 q 329 884 371 884 q 271 847 287 884 q 256 735 256 810 l 256 280 q 292 143 256 168 q 330 133 307 133 m 330 -12 q 130 74 186 -12 q 75 323 75 160 l 75 703 q 329 1029 75 1029 q 583 703 583 1029 l 583 323 q 452 10 583 68 q 330 -12 402 -12 m 185 1135 l 109 1166 l 211 1466 l 351 1400 l 185 1135 m 412 1131 l 337 1166 l 477 1466 l 621 1397 l 412 1131 z "},"Œ":{"ha":838,"x_min":75,"x_max":782,"o":"m 337 0 q 137 81 199 0 q 75 335 75 162 l 75 878 q 137 1116 75 1037 q 339 1194 199 1194 l 774 1194 l 774 1037 l 594 1037 l 594 690 l 763 690 l 763 532 l 594 532 l 594 157 l 782 157 l 782 0 l 337 0 m 337 158 l 412 158 l 412 1034 l 339 1034 q 274 1000 292 1034 q 256 885 256 966 l 256 333 q 271 194 256 230 q 337 158 286 159 z "},"œ":{"ha":984,"x_min":75,"x_max":913,"o":"m 334 -12 q 134 73 193 -12 q 75 324 75 157 l 75 703 q 137 942 75 855 q 334 1029 200 1029 q 500 956 434 1029 q 668 1029 562 1029 q 860 947 807 1029 q 913 714 913 865 q 912 492 913 510 l 589 492 l 589 296 q 608 161 589 190 q 663 133 627 133 q 713 159 699 133 q 734 292 734 199 q 733 386 734 384 l 912 386 l 912 338 q 890 137 912 199 q 840 47 868 76 q 669 -12 780 -12 q 500 58 559 -12 q 334 -12 435 -12 m 258 280 q 274 170 258 208 q 333 133 290 133 q 392 171 376 133 q 408 280 408 208 l 408 735 q 392 847 408 809 q 333 884 375 884 q 274 847 290 884 q 258 735 258 810 l 258 280 m 589 718 l 589 614 l 734 614 l 734 732 q 721 851 734 815 q 667 888 707 888 q 590 772 595 888 q 589 718 589 750 z "},"Ŕ":{"ha":685,"x_min":90,"x_max":614,"o":"m 330 561 l 271 564 l 271 0 l 90 0 l 90 1194 l 390 1194 q 530 1156 484 1194 q 590 1051 576 1118 q 605 874 605 983 q 582 709 605 766 q 496 632 559 652 q 583 549 558 621 q 607 247 607 476 q 614 0 607 17 l 432 0 q 425 428 425 14 q 406 533 425 507 q 330 561 387 559 m 272 705 l 345 705 q 396 720 379 705 q 419 774 412 736 q 425 890 425 812 l 425 897 q 409 1024 425 994 q 334 1054 393 1054 l 272 1054 l 272 705 m 205 1287 l 205 1393 l 505 1523 l 505 1348 l 205 1287 z "},"ŕ":{"ha":467,"x_min":90,"x_max":446,"o":"m 444 1029 q 446 916 446 1029 l 446 878 q 339 859 391 878 q 271 807 287 841 l 271 0 l 90 0 l 90 1017 l 271 1017 l 271 904 q 333 997 288 964 q 444 1029 377 1029 m 126 1111 l 126 1217 l 425 1347 l 425 1172 l 126 1111 z "},"Ŗ":{"ha":685,"x_min":90,"x_max":614,"o":"m 277 -496 l 315 -290 l 237 -290 l 237 -112 l 422 -112 l 422 -284 l 359 -496 l 277 -496 m 330 561 l 271 564 l 271 0 l 90 0 l 90 1194 l 390 1194 q 530 1156 484 1194 q 590 1051 576 1118 q 605 874 605 983 q 582 709 605 766 q 496 632 559 652 q 583 549 558 621 q 607 247 607 476 q 614 0 607 17 l 432 0 q 425 428 425 14 q 406 533 425 507 q 330 561 387 559 m 272 705 l 345 705 q 396 720 379 705 q 419 774 412 736 q 425 890 425 812 l 425 897 q 409 1024 425 994 q 334 1054 393 1054 l 272 1054 l 272 705 z "},"ŗ":{"ha":467,"x_min":90,"x_max":446,"o":"m 151 -496 l 188 -290 l 110 -290 l 110 -112 l 295 -112 l 295 -284 l 233 -496 l 151 -496 m 444 1029 q 446 916 446 1029 l 446 878 q 339 859 391 878 q 271 807 287 841 l 271 0 l 90 0 l 90 1017 l 271 1017 l 271 904 q 333 997 288 964 q 444 1029 377 1029 z "},"Ř":{"ha":685,"x_min":90,"x_max":614,"o":"m 330 561 l 271 564 l 271 0 l 90 0 l 90 1194 l 390 1194 q 530 1156 484 1194 q 590 1051 576 1118 q 605 874 605 983 q 582 709 605 766 q 496 632 559 652 q 583 549 558 621 q 607 247 607 476 q 614 0 607 17 l 432 0 q 425 428 425 14 q 406 533 425 507 q 330 561 387 559 m 272 705 l 345 705 q 396 720 379 705 q 419 774 412 736 q 425 890 425 812 l 425 897 q 409 1024 425 994 q 334 1054 393 1054 l 272 1054 l 272 705 m 243 1267 l 115 1496 l 287 1496 l 345 1335 l 404 1496 l 575 1496 l 448 1267 l 243 1267 z "},"ř":{"ha":467,"x_min":35,"x_max":496,"o":"m 444 1029 q 446 916 446 1029 l 446 878 q 339 859 391 878 q 271 807 287 841 l 271 0 l 90 0 l 90 1017 l 271 1017 l 271 904 q 333 997 288 964 q 444 1029 377 1029 m 163 1090 l 35 1320 l 208 1320 l 266 1159 l 324 1320 l 496 1320 l 368 1090 l 163 1090 z "},"Ś":{"ha":614,"x_min":64,"x_max":570,"o":"m 66 336 l 66 442 l 238 442 l 238 322 q 255 182 238 222 q 319 142 272 142 q 381 175 366 142 q 396 283 396 208 q 369 415 396 359 q 283 532 342 471 l 195 623 q 99 756 133 687 q 64 916 64 825 q 121 1136 64 1064 q 317 1208 178 1208 q 506 1124 456 1208 q 555 880 555 1040 l 555 806 l 387 806 l 387 891 q 372 1016 387 978 q 315 1053 357 1053 q 254 1025 273 1053 q 235 939 235 996 q 254 848 235 882 q 323 762 273 814 l 421 655 q 533 493 495 575 q 570 314 570 411 q 514 66 570 146 q 317 -14 458 -14 q 121 76 176 -14 q 66 336 66 165 m 186 1286 l 186 1392 l 485 1522 l 485 1348 l 186 1286 z "},"ś":{"ha":588,"x_min":56,"x_max":543,"o":"m 56 780 q 296 1029 56 1029 q 470 961 415 1029 q 526 734 526 893 l 526 679 l 365 679 l 365 746 q 349 849 365 815 q 297 882 334 882 q 244 861 261 882 q 227 789 227 840 q 298 640 227 709 l 395 552 q 543 248 543 414 q 484 52 543 117 q 301 -13 425 -13 q 118 58 177 -13 q 59 286 59 129 l 59 351 l 228 351 l 228 269 q 297 134 228 134 q 350 158 334 134 q 366 239 366 182 q 273 428 366 341 q 229 467 270 431 q 181 511 188 504 q 56 780 56 625 m 168 1111 l 168 1217 l 467 1347 l 467 1172 l 168 1111 z "},"Ŝ":{"ha":614,"x_min":64,"x_max":570,"o":"m 66 336 l 66 442 l 238 442 l 238 322 q 255 182 238 222 q 319 142 272 142 q 381 175 366 142 q 396 283 396 208 q 369 415 396 359 q 283 532 342 471 l 195 623 q 99 756 133 687 q 64 916 64 825 q 121 1136 64 1064 q 317 1208 178 1208 q 506 1124 456 1208 q 555 880 555 1040 l 555 806 l 387 806 l 387 891 q 372 1016 387 978 q 315 1053 357 1053 q 254 1025 273 1053 q 235 939 235 996 q 254 848 235 882 q 323 762 273 814 l 421 655 q 533 493 495 575 q 570 314 570 411 q 514 66 570 146 q 317 -14 458 -14 q 121 76 176 -14 q 66 336 66 165 m 95 1265 l 223 1494 l 428 1494 l 555 1265 l 384 1265 l 326 1426 l 267 1265 l 95 1265 z "},"ŝ":{"ha":588,"x_min":56,"x_max":543,"o":"m 56 780 q 296 1029 56 1029 q 470 961 415 1029 q 526 734 526 893 l 526 679 l 365 679 l 365 746 q 349 849 365 815 q 297 882 334 882 q 244 861 261 882 q 227 789 227 840 q 298 640 227 709 l 395 552 q 543 248 543 414 q 484 52 543 117 q 301 -13 425 -13 q 118 58 177 -13 q 59 286 59 129 l 59 351 l 228 351 l 228 269 q 297 134 228 134 q 350 158 334 134 q 366 239 366 182 q 273 428 366 341 q 229 467 270 431 q 181 511 188 504 q 56 780 56 625 m 76 1090 l 204 1319 l 409 1319 l 536 1090 l 365 1090 l 307 1251 l 248 1090 l 76 1090 z "},"Ş":{"ha":614,"x_min":64,"x_max":570,"o":"m 176 -340 q 332 -244 332 -340 q 301 -172 332 -201 q 224 -133 269 -143 l 251 0 l 307 0 l 317 -96 q 471 -275 471 -149 q 419 -385 471 -336 q 277 -433 366 -433 q 176 -415 224 -433 l 176 -340 m 66 336 l 66 442 l 238 442 l 238 322 q 255 182 238 222 q 319 142 272 142 q 381 175 366 142 q 396 283 396 208 q 369 415 396 359 q 283 532 342 471 l 195 623 q 99 756 133 687 q 64 916 64 825 q 121 1136 64 1064 q 317 1208 178 1208 q 506 1124 456 1208 q 555 880 555 1040 l 555 806 l 387 806 l 387 891 q 372 1016 387 978 q 315 1053 357 1053 q 254 1025 273 1053 q 235 939 235 996 q 254 848 235 882 q 323 762 273 814 l 421 655 q 533 493 495 575 q 570 314 570 411 q 514 66 570 146 q 317 -14 458 -14 q 121 76 176 -14 q 66 336 66 165 z "},"ş":{"ha":588,"x_min":56,"x_max":543,"o":"m 157 -340 q 313 -244 313 -340 q 282 -172 313 -201 q 205 -133 250 -143 l 232 0 l 288 0 l 298 -96 q 452 -275 452 -149 q 400 -385 452 -336 q 258 -433 347 -433 q 157 -415 205 -433 l 157 -340 m 56 780 q 296 1029 56 1029 q 470 961 415 1029 q 526 734 526 893 l 526 679 l 365 679 l 365 746 q 349 849 365 815 q 297 882 334 882 q 244 861 261 882 q 227 789 227 840 q 298 640 227 709 l 395 552 q 543 248 543 414 q 484 52 543 117 q 301 -13 425 -13 q 118 58 177 -13 q 59 286 59 129 l 59 351 l 228 351 l 228 269 q 297 134 228 134 q 350 158 334 134 q 366 239 366 182 q 273 428 366 341 q 229 467 270 431 q 181 511 188 504 q 56 780 56 625 z "},"Š":{"ha":614,"x_min":64,"x_max":570,"o":"m 66 336 l 66 442 l 238 442 l 238 322 q 255 182 238 222 q 319 142 272 142 q 381 175 366 142 q 396 283 396 208 q 369 415 396 359 q 283 532 342 471 l 195 623 q 99 756 133 687 q 64 916 64 825 q 121 1136 64 1064 q 317 1208 178 1208 q 506 1124 456 1208 q 555 880 555 1040 l 555 806 l 387 806 l 387 891 q 372 1016 387 978 q 315 1053 357 1053 q 254 1025 273 1053 q 235 939 235 996 q 254 848 235 882 q 323 762 273 814 l 421 655 q 533 493 495 575 q 570 314 570 411 q 514 66 570 146 q 317 -14 458 -14 q 121 76 176 -14 q 66 336 66 165 m 223 1265 l 95 1495 l 267 1495 l 326 1334 l 384 1495 l 555 1495 l 428 1265 l 223 1265 z "},"š":{"ha":588,"x_min":56,"x_max":543,"o":"m 56 780 q 296 1029 56 1029 q 470 961 415 1029 q 526 734 526 893 l 526 679 l 365 679 l 365 746 q 349 849 365 815 q 297 882 334 882 q 244 861 261 882 q 227 789 227 840 q 298 640 227 709 l 395 552 q 543 248 543 414 q 484 52 543 117 q 301 -13 425 -13 q 118 58 177 -13 q 59 286 59 129 l 59 351 l 228 351 l 228 269 q 297 134 228 134 q 350 158 334 134 q 366 239 366 182 q 273 428 366 341 q 229 467 270 431 q 181 511 188 504 q 56 780 56 625 m 204 1090 l 76 1320 l 248 1320 l 307 1159 l 365 1320 l 536 1320 l 409 1090 l 204 1090 z "},"Ť":{"ha":477,"x_min":8,"x_max":469,"o":"m 151 0 l 151 1036 l 11 1036 l 11 1194 l 466 1194 l 466 1036 l 332 1036 l 332 0 l 151 0 m 136 1267 l 8 1496 l 180 1496 l 239 1335 l 297 1496 l 469 1496 l 341 1267 l 136 1267 z "},"ť":{"ha":437,"x_min":32,"x_max":723,"o":"m 275 -7 q 147 30 180 -7 q 115 155 115 66 l 115 866 l 32 866 l 32 996 l 115 996 l 115 1194 l 294 1194 l 294 996 l 393 996 l 393 866 l 294 866 l 294 186 q 313 140 294 151 q 397 130 332 130 l 397 -7 l 275 -7 m 526 715 l 590 1006 l 486 1006 l 486 1196 l 723 1196 l 723 1012 l 631 715 l 526 715 z "},"Ũ":{"ha":692,"x_min":83,"x_max":609,"o":"m 566 1396 q 525 1303 552 1329 q 458 1277 497 1277 q 352 1305 419 1277 q 266 1333 285 1333 q 236 1330 246 1333 q 207 1291 225 1328 l 119 1326 q 170 1421 138 1393 q 240 1450 202 1450 q 350 1425 279 1450 q 435 1400 421 1400 l 438 1400 q 458 1411 450 1402 q 476 1448 467 1420 l 572 1429 l 566 1396 m 609 307 q 547 64 609 142 q 346 -14 484 -14 q 145 64 208 -14 q 83 307 83 142 l 83 1194 l 264 1194 l 264 310 q 273 195 264 216 q 295 158 282 175 q 347 142 307 142 q 403 165 386 142 q 424 222 420 188 q 427 310 427 256 l 427 1194 l 609 1194 l 609 307 z "},"ũ":{"ha":688,"x_min":83,"x_max":599,"o":"m 571 1222 q 529 1129 557 1155 q 463 1103 502 1103 q 357 1131 424 1103 q 270 1158 290 1158 q 240 1156 251 1158 q 212 1117 230 1154 l 123 1152 q 175 1247 142 1219 q 245 1276 207 1276 q 355 1251 283 1276 q 440 1225 426 1225 l 443 1225 q 463 1237 454 1227 q 481 1274 471 1246 l 577 1255 l 571 1222 m 264 -13 q 83 231 83 -13 l 83 1017 l 263 1017 l 263 258 q 279 165 263 195 q 337 135 294 135 q 419 257 419 135 l 420 1017 l 599 1017 l 599 0 l 419 0 l 419 106 q 264 -13 376 -13 z "},"Ū":{"ha":692,"x_min":83,"x_max":609,"o":"m 171 1291 l 171 1393 l 515 1393 l 515 1291 l 171 1291 m 609 307 q 547 64 609 142 q 346 -14 484 -14 q 145 64 208 -14 q 83 307 83 142 l 83 1194 l 264 1194 l 264 310 q 273 195 264 216 q 295 158 282 175 q 347 142 307 142 q 403 165 386 142 q 424 222 420 188 q 427 310 427 256 l 427 1194 l 609 1194 l 609 307 z "},"ū":{"ha":688,"x_min":83,"x_max":599,"o":"m 176 1116 l 176 1219 l 519 1219 l 519 1116 l 176 1116 m 264 -13 q 83 231 83 -13 l 83 1017 l 263 1017 l 263 258 q 279 165 263 195 q 337 135 294 135 q 419 257 419 135 l 420 1017 l 599 1017 l 599 0 l 419 0 l 419 106 q 264 -13 376 -13 z "},"Ŭ":{"ha":692,"x_min":83,"x_max":609,"o":"m 536 1449 q 345 1270 536 1270 q 154 1447 154 1270 l 154 1457 l 256 1457 q 279 1388 256 1406 q 345 1369 302 1369 q 411 1387 388 1369 q 434 1457 434 1405 l 536 1457 l 536 1449 m 609 307 q 547 64 609 142 q 346 -14 484 -14 q 145 64 208 -14 q 83 307 83 142 l 83 1194 l 264 1194 l 264 310 q 273 195 264 216 q 295 158 282 175 q 347 142 307 142 q 403 165 386 142 q 424 222 420 188 q 427 310 427 256 l 427 1194 l 609 1194 l 609 307 z "},"ŭ":{"ha":688,"x_min":83,"x_max":599,"o":"m 541 1274 q 350 1095 541 1095 q 159 1273 159 1095 l 159 1283 l 260 1283 q 284 1213 260 1232 q 350 1195 307 1195 q 416 1213 393 1195 q 439 1283 439 1231 l 541 1283 l 541 1274 m 264 -13 q 83 231 83 -13 l 83 1017 l 263 1017 l 263 258 q 279 165 263 195 q 337 135 294 135 q 419 257 419 135 l 420 1017 l 599 1017 l 599 0 l 419 0 l 419 106 q 264 -13 376 -13 z "},"Ů":{"ha":692,"x_min":83,"x_max":609,"o":"m 609 307 q 547 64 609 142 q 346 -14 484 -14 q 145 64 208 -14 q 83 307 83 142 l 83 1194 l 264 1194 l 264 310 q 273 195 264 216 q 295 158 282 175 q 347 142 307 142 q 403 165 386 142 q 424 222 420 188 q 427 310 427 256 l 427 1194 l 609 1194 l 609 307 m 290 1367 q 301 1354 290 1367 q 349 1341 311 1341 q 409 1367 387 1341 q 430 1430 430 1394 q 409 1492 430 1466 q 349 1518 387 1518 q 290 1492 311 1518 q 269 1430 269 1466 q 290 1367 269 1394 m 507 1429 q 507 1396 507 1429 q 464 1320 507 1362 q 349 1277 422 1277 q 233 1320 276 1277 q 191 1429 191 1362 q 233 1538 191 1495 q 349 1581 276 1581 q 464 1538 422 1581 q 507 1429 507 1495 z "},"ů":{"ha":688,"x_min":83,"x_max":599,"o":"m 264 -13 q 83 231 83 -13 l 83 1017 l 263 1017 l 263 258 q 279 165 263 195 q 337 135 294 135 q 419 257 419 135 l 420 1017 l 599 1017 l 599 0 l 419 0 l 419 106 q 264 -13 376 -13 m 291 1193 q 302 1180 291 1193 q 351 1166 313 1166 q 410 1193 389 1166 q 431 1255 431 1219 q 410 1317 431 1291 q 351 1343 389 1343 q 291 1317 313 1343 q 270 1255 270 1291 q 291 1193 270 1219 m 508 1255 q 508 1221 508 1255 q 466 1145 508 1188 q 350 1103 423 1103 q 235 1145 277 1103 q 192 1255 192 1188 q 235 1364 192 1321 q 350 1407 277 1407 q 466 1364 423 1407 q 508 1255 508 1321 z "},"Ű":{"ha":692,"x_min":83,"x_max":637,"o":"m 202 1309 l 125 1341 l 228 1640 l 368 1574 l 202 1309 m 429 1305 l 354 1341 l 494 1640 l 637 1571 l 429 1305 m 609 307 q 547 64 609 142 q 346 -14 484 -14 q 145 64 208 -14 q 83 307 83 142 l 83 1194 l 264 1194 l 264 310 q 273 195 264 216 q 295 158 282 175 q 347 142 307 142 q 403 165 386 142 q 424 222 420 188 q 427 310 427 256 l 427 1194 l 609 1194 l 609 307 z "},"ű":{"ha":688,"x_min":83,"x_max":642,"o":"m 207 1135 l 130 1166 l 233 1466 l 373 1400 l 207 1135 m 434 1131 l 359 1166 l 499 1466 l 642 1397 l 434 1131 m 264 -13 q 83 231 83 -13 l 83 1017 l 263 1017 l 263 258 q 279 165 263 195 q 337 135 294 135 q 419 257 419 135 l 420 1017 l 599 1017 l 599 0 l 419 0 l 419 106 q 264 -13 376 -13 z "},"Ų":{"ha":692,"x_min":83,"x_max":609,"o":"m 609 307 q 547 64 609 142 q 346 -14 484 -14 q 145 64 208 -14 q 83 307 83 142 l 83 1194 l 264 1194 l 264 310 q 273 195 264 216 q 295 158 282 175 q 347 142 307 142 q 403 165 386 142 q 424 222 420 188 q 427 310 427 256 l 427 1194 l 609 1194 l 609 307 m 357 -422 q 214 -377 264 -422 q 163 -260 163 -333 q 210 -116 163 -187 q 344 3 257 -45 l 416 3 q 294 -227 294 -125 q 322 -293 294 -271 q 388 -315 349 -315 q 471 -304 427 -315 l 471 -398 q 423 -414 458 -406 q 357 -422 389 -422 z "},"ų":{"ha":688,"x_min":83,"x_max":612,"o":"m 264 -13 q 83 231 83 -13 l 83 1017 l 263 1017 l 263 258 q 279 165 263 195 q 337 135 294 135 q 419 257 419 135 l 420 1017 l 599 1017 l 599 0 l 419 0 l 419 106 q 264 -13 376 -13 m 498 -422 q 355 -377 405 -422 q 304 -260 304 -333 q 351 -116 304 -187 q 485 3 398 -45 l 557 3 q 435 -227 435 -125 q 463 -293 435 -271 q 529 -315 490 -315 q 612 -304 568 -315 l 612 -398 q 564 -414 599 -406 q 498 -422 530 -422 z "},"Ŵ":{"ha":941,"x_min":41,"x_max":901,"o":"m 186 0 l 41 1194 l 203 1194 l 291 343 l 402 1194 l 549 1194 l 661 343 l 738 1194 l 901 1194 l 764 0 l 583 0 l 477 793 l 368 0 l 186 0 m 248 1267 l 376 1495 l 581 1495 l 708 1267 l 536 1267 l 478 1427 l 420 1267 l 248 1267 z "},"ŵ":{"ha":848,"x_min":30,"x_max":817,"o":"m 531 0 l 428 764 l 318 0 l 166 0 l 30 1017 l 181 1017 l 233 588 l 256 370 l 260 370 l 282 589 l 342 1017 l 503 1017 l 569 597 l 597 370 l 602 370 l 621 596 l 667 1017 l 817 1017 l 688 0 l 531 0 m 197 1090 l 325 1319 l 530 1319 l 657 1090 l 486 1090 l 427 1251 l 369 1090 l 197 1090 z "},"Ŷ":{"ha":585,"x_min":6,"x_max":578,"o":"m 64 1267 l 193 1495 l 397 1495 l 525 1267 l 353 1267 l 295 1427 l 237 1267 l 64 1267 m 206 0 l 206 477 l 6 1194 l 180 1194 l 298 747 l 300 747 l 406 1194 l 578 1194 l 388 477 l 388 0 l 206 0 z "},"ŷ":{"ha":578,"x_min":28,"x_max":561,"o":"m 62 1090 l 190 1319 l 395 1319 l 522 1090 l 351 1090 l 292 1251 l 234 1090 l 62 1090 m 60 -180 l 60 -56 l 119 -56 q 171 -50 153 -56 q 192 -28 190 -45 q 196 -3 196 -22 q 191 46 196 15 l 28 1018 l 199 1018 l 264 497 l 292 223 l 307 223 l 331 497 l 391 1018 l 561 1018 l 385 -43 q 346 -150 373 -120 q 251 -180 319 -180 l 60 -180 z "},"Ÿ":{"ha":585,"x_min":6,"x_max":578,"o":"m 35 1277 l 35 1430 l 227 1430 l 227 1277 l 35 1277 m 363 1277 l 363 1430 l 555 1430 l 555 1277 l 363 1277 m 206 0 l 206 477 l 6 1194 l 180 1194 l 298 747 l 300 747 l 406 1194 l 578 1194 l 388 477 l 388 0 l 206 0 z "},"Ź":{"ha":549,"x_min":66,"x_max":505,"o":"m 66 0 l 66 161 l 314 1037 l 89 1037 l 89 1194 l 505 1194 l 505 1046 l 257 157 l 499 157 l 499 0 l 66 0 m 165 1287 l 165 1393 l 465 1523 l 465 1348 l 165 1287 z "},"ź":{"ha":493,"x_min":47,"x_max":454,"o":"m 47 0 l 47 136 l 271 863 l 64 863 l 64 1017 l 454 1017 l 454 888 l 231 151 l 444 151 l 444 0 l 47 0 m 139 1111 l 139 1217 l 438 1347 l 438 1172 l 139 1111 z "},"Ż":{"ha":549,"x_min":66,"x_max":505,"o":"m 215 1272 l 215 1426 l 399 1426 l 399 1272 l 215 1272 m 66 0 l 66 161 l 314 1037 l 89 1037 l 89 1194 l 505 1194 l 505 1046 l 257 157 l 499 157 l 499 0 l 66 0 z "},"ż":{"ha":493,"x_min":47,"x_max":454,"o":"m 189 1096 l 189 1249 l 372 1249 l 372 1096 l 189 1096 m 47 0 l 47 136 l 271 863 l 64 863 l 64 1017 l 454 1017 l 454 888 l 231 151 l 444 151 l 444 0 l 47 0 z "},"Ž":{"ha":549,"x_min":66,"x_max":535,"o":"m 66 0 l 66 161 l 314 1037 l 89 1037 l 89 1194 l 505 1194 l 505 1046 l 257 157 l 499 157 l 499 0 l 66 0 m 203 1267 l 75 1496 l 247 1496 l 305 1335 l 363 1496 l 535 1496 l 408 1267 l 203 1267 z "},"ž":{"ha":493,"x_min":47,"x_max":509,"o":"m 47 0 l 47 136 l 271 863 l 64 863 l 64 1017 l 454 1017 l 454 888 l 231 151 l 444 151 l 444 0 l 47 0 m 176 1090 l 48 1320 l 220 1320 l 279 1159 l 337 1320 l 509 1320 l 381 1090 l 176 1090 z "},"ƒ":{"ha":520,"x_min":73,"x_max":445,"o":"m 346 150 q 197 -12 346 -12 q 78 5 131 -12 l 78 126 q 111 123 104 123 q 161 140 151 123 q 172 207 172 157 l 172 716 l 73 716 l 73 853 l 172 853 l 172 1044 q 318 1209 172 1209 q 442 1188 386 1209 l 442 1067 q 387 1076 408 1076 q 346 1006 346 1076 l 346 853 l 445 853 l 445 716 l 346 716 l 346 150 z "},"Ǆ":{"ha":1231,"x_min":89,"x_max":1217,"o":"m 884 1267 l 756 1496 l 928 1496 l 987 1335 l 1045 1496 l 1217 1496 l 1089 1267 l 884 1267 m 748 0 l 748 161 l 996 1037 l 770 1037 l 770 1194 l 1186 1194 l 1186 1046 l 939 157 l 1181 157 l 1181 0 l 748 0 m 271 141 l 330 141 q 403 174 380 141 q 426 293 426 206 l 425 882 q 402 1015 425 975 q 324 1054 380 1054 l 271 1054 l 271 141 m 89 0 l 89 1194 l 357 1194 q 548 1116 488 1194 q 607 887 607 1038 l 608 349 q 548 84 608 168 q 351 0 488 0 l 89 0 z "},"ǅ":{"ha":1175,"x_min":89,"x_max":1190,"o":"m 858 1090 l 730 1320 l 902 1320 l 960 1159 l 1019 1320 l 1190 1320 l 1063 1090 l 858 1090 m 729 0 l 729 136 l 953 863 l 746 863 l 746 1017 l 1135 1017 l 1135 888 l 913 151 l 1126 151 l 1126 0 l 729 0 m 271 141 l 330 141 q 403 174 380 141 q 426 293 426 206 l 425 882 q 402 1015 425 975 q 324 1054 380 1054 l 271 1054 l 271 141 m 89 0 l 89 1194 l 357 1194 q 548 1116 488 1194 q 607 887 607 1038 l 608 349 q 548 84 608 168 q 351 0 488 0 l 89 0 z "},"ǆ":{"ha":1170,"x_min":75,"x_max":1185,"o":"m 853 1090 l 725 1320 l 897 1320 l 956 1159 l 1014 1320 l 1185 1320 l 1058 1090 l 853 1090 m 724 0 l 724 136 l 948 863 l 741 863 l 741 1017 l 1131 1017 l 1131 888 l 908 151 l 1121 151 l 1121 0 l 724 0 m 262 -10 q 139 36 180 -10 q 86 153 98 82 q 75 325 75 224 l 75 739 q 121 948 75 867 q 276 1029 168 1029 q 353 1009 318 1029 q 408 954 388 989 l 408 1204 l 587 1204 l 587 0 l 408 0 l 408 94 q 262 -10 367 -10 m 256 300 q 272 175 256 216 q 331 133 288 133 q 392 175 375 133 q 408 314 408 216 l 408 721 q 370 873 408 846 q 331 884 354 884 q 271 842 286 884 q 256 719 256 801 l 256 300 z "},"Ǉ":{"ha":1141,"x_min":90,"x_max":1055,"o":"m 1055 292 q 990 66 1055 146 q 809 -14 926 -14 q 627 57 692 -14 q 562 264 562 128 l 562 477 l 738 477 l 738 273 q 770 152 738 174 q 805 142 784 142 q 860 176 846 142 q 873 283 873 210 l 873 1194 l 1055 1194 l 1055 292 m 90 0 l 90 1194 l 271 1194 l 271 155 l 501 155 l 501 0 l 90 0 z "},"ǈ":{"ha":899,"x_min":90,"x_max":810,"o":"m 667 -133 q 614 -134 654 -134 q 557 -122 573 -134 l 557 2 q 588 1 569 -1 q 631 47 631 3 l 631 1017 l 810 1017 l 810 54 q 773 -85 810 -39 q 667 -133 735 -132 m 628 1111 l 628 1267 l 809 1267 l 809 1111 l 628 1111 m 90 0 l 90 1194 l 271 1194 l 271 155 l 501 155 l 501 0 l 90 0 z "},"ǉ":{"ha":745,"x_min":92,"x_max":656,"o":"m 513 -133 q 460 -134 500 -134 q 404 -122 419 -134 l 404 2 q 434 1 415 -1 q 477 47 477 3 l 477 1017 l 656 1017 l 656 54 q 619 -85 656 -39 q 513 -133 581 -132 m 474 1111 l 474 1267 l 655 1267 l 655 1111 l 474 1111 m 92 0 l 92 1204 l 271 1204 l 271 0 l 92 0 z "},"Ǌ":{"ha":1350,"x_min":90,"x_max":1263,"o":"m 1263 292 q 1199 66 1263 146 q 1018 -14 1135 -14 q 836 57 901 -14 q 771 264 771 128 l 771 477 l 947 477 l 947 273 q 979 152 947 174 q 1014 142 993 142 q 1068 176 1055 142 q 1082 283 1082 210 l 1082 1194 l 1263 1194 l 1263 292 m 90 0 l 90 1194 l 232 1194 l 485 477 l 472 803 l 472 1194 l 635 1194 l 635 0 l 507 0 l 247 741 l 257 428 l 257 0 l 90 0 z "},"ǋ":{"ha":1107,"x_min":90,"x_max":1019,"o":"m 876 -133 q 823 -134 863 -134 q 766 -122 782 -134 l 766 2 q 797 1 778 -1 q 840 47 840 3 l 840 1017 l 1019 1017 l 1019 54 q 982 -85 1019 -39 q 876 -133 944 -132 m 837 1111 l 837 1267 l 1018 1267 l 1018 1111 l 837 1111 m 90 0 l 90 1194 l 232 1194 l 485 477 l 472 803 l 472 1194 l 635 1194 l 635 0 l 507 0 l 247 741 l 257 428 l 257 0 l 90 0 z "},"ǌ":{"ha":1074,"x_min":90,"x_max":986,"o":"m 842 -133 q 789 -134 830 -134 q 733 -122 749 -134 l 733 2 q 764 1 745 -1 q 806 47 806 3 l 806 1017 l 986 1017 l 986 54 q 948 -85 986 -39 q 842 -133 911 -132 m 804 1111 l 804 1267 l 985 1267 l 985 1111 l 804 1111 m 433 1029 q 609 801 609 1029 l 609 0 l 429 0 l 429 790 q 409 859 429 834 q 351 884 389 884 q 291 852 313 884 q 269 764 269 819 l 269 0 l 90 0 l 90 1017 l 269 1017 l 269 901 q 328 992 283 955 q 433 1029 372 1029 z "},"Ǳ":{"ha":1231,"x_min":89,"x_max":1186,"o":"m 748 0 l 748 161 l 996 1037 l 770 1037 l 770 1194 l 1186 1194 l 1186 1046 l 939 157 l 1181 157 l 1181 0 l 748 0 m 271 141 l 330 141 q 403 174 380 141 q 426 293 426 206 l 425 882 q 402 1015 425 975 q 324 1054 380 1054 l 271 1054 l 271 141 m 89 0 l 89 1194 l 357 1194 q 548 1116 488 1194 q 607 887 607 1038 l 608 349 q 548 84 608 168 q 351 0 488 0 l 89 0 z "},"ǲ":{"ha":1175,"x_min":89,"x_max":1135,"o":"m 729 0 l 729 136 l 953 863 l 746 863 l 746 1017 l 1135 1017 l 1135 888 l 913 151 l 1126 151 l 1126 0 l 729 0 m 271 141 l 330 141 q 403 174 380 141 q 426 293 426 206 l 425 882 q 402 1015 425 975 q 324 1054 380 1054 l 271 1054 l 271 141 m 89 0 l 89 1194 l 357 1194 q 548 1116 488 1194 q 607 887 607 1038 l 608 349 q 548 84 608 168 q 351 0 488 0 l 89 0 z "},"ǳ":{"ha":1170,"x_min":75,"x_max":1131,"o":"m 724 0 l 724 136 l 948 863 l 741 863 l 741 1017 l 1131 1017 l 1131 888 l 908 151 l 1121 151 l 1121 0 l 724 0 m 262 -10 q 139 36 180 -10 q 86 153 98 82 q 75 325 75 224 l 75 739 q 121 948 75 867 q 276 1029 168 1029 q 353 1009 318 1029 q 408 954 388 989 l 408 1204 l 587 1204 l 587 0 l 408 0 l 408 94 q 262 -10 367 -10 m 256 300 q 272 175 256 216 q 331 133 288 133 q 392 175 375 133 q 408 314 408 216 l 408 721 q 370 873 408 846 q 331 884 354 884 q 271 842 286 884 q 256 719 256 801 l 256 300 z "},"Ǵ":{"ha":678,"x_min":75,"x_max":597,"o":"m 314 -12 q 138 76 201 -12 q 75 349 75 165 l 75 868 q 139 1120 75 1034 q 345 1207 204 1207 q 568 1076 521 1207 q 597 861 597 998 l 597 777 l 427 777 l 427 901 q 410 1017 427 983 q 345 1050 393 1050 q 277 1010 297 1050 q 258 869 258 970 l 258 352 q 275 189 258 235 q 344 142 293 142 q 417 192 395 142 q 438 359 438 241 l 438 519 l 347 519 l 347 652 l 597 652 l 597 0 l 515 0 l 488 117 q 425 22 473 57 q 314 -12 377 -12 m 203 1287 l 203 1393 l 503 1523 l 503 1348 l 203 1287 z "},"ǵ":{"ha":671,"x_min":68,"x_max":587,"o":"m 587 125 q 523 -79 587 -5 q 309 -153 460 -153 q 68 -80 158 -153 l 131 33 q 281 -18 212 -18 q 379 17 351 -18 q 407 112 407 52 l 407 193 q 355 124 390 144 q 266 104 320 104 q 118 183 159 104 q 77 395 77 262 l 77 722 q 270 1029 77 1029 q 273 1029 271 1029 q 407 927 378 1029 l 407 1017 l 587 1017 l 587 125 m 258 403 q 274 280 258 319 q 332 240 290 240 q 390 276 374 240 q 407 404 407 311 l 407 737 q 390 846 407 808 q 328 884 372 884 q 271 845 284 884 q 258 738 258 806 l 258 403 m 214 1111 l 214 1217 l 513 1347 l 513 1172 l 214 1111 z "},"Ȁ":{"ha":662,"x_min":35,"x_max":627,"o":"m 235 1291 l 50 1537 l 179 1607 l 319 1327 l 235 1291 m 455 1291 l 297 1537 l 424 1607 l 538 1327 l 455 1291 m 410 359 l 330 958 l 327 958 l 254 359 l 410 359 m 35 0 l 205 1194 l 446 1194 l 627 0 l 457 0 l 429 213 l 236 213 l 210 0 l 35 0 z "},"ȁ":{"ha":665,"x_min":68,"x_max":585,"o":"m 254 1115 l 68 1360 l 198 1430 l 338 1151 l 254 1115 m 474 1115 l 316 1360 l 443 1430 l 557 1151 l 474 1115 m 401 552 q 286 480 315 514 q 256 375 256 446 l 256 266 q 271 164 256 195 q 319 133 286 133 q 374 156 353 133 q 401 207 395 178 l 401 552 m 259 -10 q 117 61 159 -10 q 73 267 74 133 l 73 332 q 143 530 73 463 q 297 615 189 574 q 352 635 317 623 q 401 654 387 648 l 401 743 q 389 855 401 825 q 335 884 377 884 q 278 853 292 884 q 264 748 264 822 l 264 703 l 86 703 l 86 733 q 140 954 86 878 q 331 1029 194 1029 q 527 954 469 1029 q 585 726 585 878 l 585 0 l 404 0 l 404 101 q 352 22 390 54 q 259 -10 313 -10 z "},"Ȃ":{"ha":662,"x_min":35,"x_max":627,"o":"m 133 1300 q 133 1303 133 1301 q 323 1480 133 1480 q 516 1305 514 1480 l 516 1295 l 414 1294 q 390 1363 413 1345 q 326 1381 367 1381 q 241 1337 256 1381 q 235 1296 235 1320 q 235 1291 235 1294 l 133 1291 l 133 1300 m 410 359 l 330 958 l 327 958 l 254 359 l 410 359 m 35 0 l 205 1194 l 446 1194 l 627 0 l 457 0 l 429 213 l 236 213 l 210 0 l 35 0 z "},"ȃ":{"ha":665,"x_min":73,"x_max":585,"o":"m 152 1124 q 152 1126 152 1125 q 342 1304 152 1304 q 535 1128 533 1304 l 535 1118 l 433 1118 q 409 1187 432 1169 q 345 1204 386 1204 q 260 1161 275 1204 q 254 1120 254 1144 q 254 1115 254 1118 l 152 1115 l 152 1124 m 401 552 q 286 480 315 514 q 256 375 256 446 l 256 266 q 271 164 256 195 q 319 133 286 133 q 374 156 353 133 q 401 207 395 178 l 401 552 m 259 -10 q 117 61 159 -10 q 73 267 74 133 l 73 332 q 143 530 73 463 q 297 615 189 574 q 352 635 317 623 q 401 654 387 648 l 401 743 q 389 855 401 825 q 335 884 377 884 q 278 853 292 884 q 264 748 264 822 l 264 703 l 86 703 l 86 733 q 140 954 86 878 q 331 1029 194 1029 q 527 954 469 1029 q 585 726 585 878 l 585 0 l 404 0 l 404 101 q 352 22 390 54 q 259 -10 313 -10 z "},"Ȅ":{"ha":553,"x_min":20,"x_max":509,"o":"m 206 1291 l 20 1537 l 150 1607 l 290 1327 l 206 1291 m 426 1291 l 268 1537 l 395 1607 l 509 1327 l 426 1291 m 90 0 l 90 1194 l 490 1194 l 490 1037 l 271 1037 l 271 690 l 479 690 l 479 536 l 271 536 l 271 157 l 498 157 l 498 0 l 90 0 z "},"ȅ":{"ha":650,"x_min":52,"x_max":579,"o":"m 238 1114 l 52 1360 l 182 1430 l 321 1150 l 238 1114 m 458 1114 l 300 1360 l 427 1430 l 541 1150 l 458 1114 m 327 -12 q 106 119 155 -12 q 75 338 75 202 l 75 718 q 334 1029 75 1029 q 526 947 473 1029 q 579 714 579 865 l 579 496 l 256 496 l 256 296 q 274 162 256 191 q 329 133 292 133 q 376 150 366 133 q 397 211 395 180 q 400 296 400 242 l 400 386 l 578 386 l 578 332 q 556 133 578 193 q 506 45 534 73 q 327 -12 446 -12 m 255 602 l 400 602 l 400 732 q 387 851 400 815 q 333 888 374 888 q 332 888 332 888 q 256 780 262 888 q 255 727 255 760 l 255 602 z "},"Ȇ":{"ha":553,"x_min":90,"x_max":498,"o":"m 90 0 l 90 1194 l 490 1194 l 490 1037 l 271 1037 l 271 690 l 479 690 l 479 536 l 271 536 l 271 157 l 498 157 l 498 0 l 90 0 m 104 1300 q 104 1303 104 1301 q 294 1480 104 1480 q 487 1305 485 1480 l 487 1295 l 385 1294 q 361 1363 384 1345 q 297 1381 338 1381 q 212 1337 227 1381 q 206 1296 206 1320 q 206 1291 206 1294 l 104 1291 l 104 1300 z "},"ȇ":{"ha":650,"x_min":75,"x_max":579,"o":"m 327 -12 q 106 119 155 -12 q 75 338 75 202 l 75 718 q 334 1029 75 1029 q 526 947 473 1029 q 579 714 579 865 l 579 496 l 256 496 l 256 296 q 274 162 256 191 q 329 133 292 133 q 376 150 366 133 q 397 211 395 180 q 400 296 400 242 l 400 386 l 578 386 l 578 332 q 556 133 578 193 q 506 45 534 73 q 327 -12 446 -12 m 255 602 l 400 602 l 400 732 q 387 851 400 815 q 333 888 374 888 q 332 888 332 888 q 256 780 262 888 q 255 727 255 760 l 255 602 m 136 1123 q 136 1126 136 1124 q 326 1303 136 1303 q 519 1128 517 1303 l 519 1118 l 417 1117 q 393 1186 416 1168 q 330 1204 370 1204 q 245 1160 260 1204 q 239 1119 239 1143 q 239 1114 239 1117 l 136 1114 l 136 1123 z "},"Ȉ":{"ha":374,"x_min":-90,"x_max":399,"o":"m 96 1291 l -90 1537 l 39 1607 l 179 1327 l 96 1291 m 315 1291 l 157 1537 l 284 1607 l 399 1327 l 315 1291 m 96 0 l 96 1194 l 278 1194 l 278 0 l 96 0 z "},"ȉ":{"ha":364,"x_min":-98,"x_max":391,"o":"m 87 1115 l -98 1360 l 31 1430 l 171 1151 l 87 1115 m 307 1115 l 149 1360 l 276 1430 l 391 1151 l 307 1115 m 92 0 l 92 1017 l 272 1017 l 272 0 l 92 0 z "},"Ȋ":{"ha":374,"x_min":-7,"x_max":376,"o":"m -7 1300 q -7 1303 -7 1301 q 183 1480 -7 1480 q 376 1305 374 1480 l 376 1295 l 274 1294 q 250 1363 273 1345 q 186 1381 227 1381 q 102 1337 117 1381 q 96 1296 96 1320 q 96 1291 96 1294 l -7 1291 l -7 1300 m 96 0 l 96 1194 l 278 1194 l 278 0 l 96 0 z "},"ȋ":{"ha":364,"x_min":-8,"x_max":376,"o":"m 92 0 l 92 1017 l 272 1017 l 272 0 l 92 0 m -7 1124 q -7 1126 -7 1125 q 182 1304 -7 1304 q 376 1128 374 1304 l 376 1118 l 273 1118 q 250 1187 273 1169 q 186 1204 227 1204 q 101 1161 116 1204 q 95 1120 95 1144 q 95 1115 95 1118 l -7 1115 l -7 1124 z "},"Ȍ":{"ha":677,"x_min":61,"x_max":602,"o":"m 247 1294 l 61 1539 l 191 1609 l 330 1330 l 247 1294 m 467 1294 l 309 1539 l 435 1609 l 550 1330 l 467 1294 m 258 332 q 274 185 258 227 q 339 144 290 144 q 404 186 389 144 q 420 332 420 229 l 420 888 q 404 1011 420 972 q 341 1050 388 1050 q 276 1011 295 1050 q 258 888 258 972 l 258 332 m 602 334 q 540 73 602 159 q 340 -14 477 -14 q 139 73 203 -14 q 75 334 75 159 l 75 880 q 342 1208 75 1208 q 542 1124 481 1208 q 602 880 602 1041 l 602 334 z "},"ȍ":{"ha":658,"x_min":52,"x_max":583,"o":"m 237 1115 l 52 1360 l 181 1430 l 321 1151 l 237 1115 m 457 1115 l 299 1360 l 426 1430 l 541 1151 l 457 1115 m 330 133 q 387 170 372 133 q 402 280 402 207 l 402 735 q 387 847 402 810 q 329 884 371 884 q 271 847 287 884 q 256 735 256 810 l 256 280 q 292 143 256 168 q 330 133 307 133 m 330 -12 q 130 74 186 -12 q 75 323 75 160 l 75 703 q 329 1029 75 1029 q 583 703 583 1029 l 583 323 q 452 10 583 68 q 330 -12 402 -12 z "},"Ȏ":{"ha":677,"x_min":75,"x_max":602,"o":"m 258 332 q 274 185 258 227 q 339 144 290 144 q 404 186 389 144 q 420 332 420 229 l 420 888 q 404 1011 420 972 q 341 1050 388 1050 q 276 1011 295 1050 q 258 888 258 972 l 258 332 m 602 334 q 540 73 602 159 q 340 -14 477 -14 q 139 73 203 -14 q 75 334 75 159 l 75 880 q 342 1208 75 1208 q 542 1124 481 1208 q 602 880 602 1041 l 602 334 m 145 1303 q 145 1305 145 1304 q 335 1483 145 1483 q 528 1308 526 1483 l 528 1297 l 426 1297 q 402 1366 425 1348 q 338 1383 379 1383 q 254 1340 269 1383 q 248 1299 248 1323 q 248 1294 248 1297 l 145 1294 l 145 1303 z "},"ȏ":{"ha":658,"x_min":75,"x_max":583,"o":"m 330 133 q 387 170 372 133 q 402 280 402 207 l 402 735 q 387 847 402 810 q 329 884 371 884 q 271 847 287 884 q 256 735 256 810 l 256 280 q 292 143 256 168 q 330 133 307 133 m 330 -12 q 130 74 186 -12 q 75 323 75 160 l 75 703 q 329 1029 75 1029 q 583 703 583 1029 l 583 323 q 452 10 583 68 q 330 -12 402 -12 m 136 1124 q 136 1126 136 1125 q 326 1304 136 1304 q 519 1128 517 1304 l 519 1118 l 416 1118 q 393 1187 416 1169 q 329 1204 370 1204 q 244 1161 259 1204 q 238 1120 238 1144 q 238 1115 238 1118 l 136 1115 l 136 1124 z "},"Ȑ":{"ha":685,"x_min":68,"x_max":614,"o":"m 254 1291 l 68 1537 l 197 1607 l 337 1327 l 254 1291 m 473 1291 l 315 1537 l 442 1607 l 557 1327 l 473 1291 m 330 561 l 271 564 l 271 0 l 90 0 l 90 1194 l 390 1194 q 530 1156 484 1194 q 590 1051 576 1118 q 605 874 605 983 q 582 709 605 766 q 496 632 559 652 q 583 549 558 621 q 607 247 607 476 q 614 0 607 17 l 432 0 q 425 428 425 14 q 406 533 425 507 q 330 561 387 559 m 272 705 l 345 705 q 396 720 379 705 q 419 774 412 736 q 425 890 425 812 l 425 897 q 409 1024 425 994 q 334 1054 393 1054 l 272 1054 l 272 705 z "},"ȑ":{"ha":467,"x_min":-12,"x_max":477,"o":"m 174 1115 l -12 1360 l 118 1430 l 258 1151 l 174 1115 m 394 1115 l 236 1360 l 363 1430 l 477 1151 l 394 1115 m 444 1029 q 446 916 446 1029 l 446 878 q 339 859 391 878 q 271 807 287 841 l 271 0 l 90 0 l 90 1017 l 271 1017 l 271 904 q 333 997 288 964 q 444 1029 377 1029 z "},"Ȓ":{"ha":685,"x_min":90,"x_max":614,"o":"m 330 561 l 271 564 l 271 0 l 90 0 l 90 1194 l 390 1194 q 530 1156 484 1194 q 590 1051 576 1118 q 605 874 605 983 q 582 709 605 766 q 496 632 559 652 q 583 549 558 621 q 607 247 607 476 q 614 0 607 17 l 432 0 q 425 428 425 14 q 406 533 425 507 q 330 561 387 559 m 272 705 l 345 705 q 396 720 379 705 q 419 774 412 736 q 425 890 425 812 l 425 897 q 409 1024 425 994 q 334 1054 393 1054 l 272 1054 l 272 705 m 151 1300 q 151 1303 151 1301 q 341 1480 151 1480 q 534 1305 532 1480 l 534 1295 l 432 1294 q 408 1363 431 1345 q 345 1381 385 1381 q 260 1337 275 1381 q 254 1296 254 1320 q 254 1291 254 1294 l 151 1291 l 151 1300 z "},"ȓ":{"ha":467,"x_min":71,"x_max":455,"o":"m 444 1029 q 446 916 446 1029 l 446 878 q 339 859 391 878 q 271 807 287 841 l 271 0 l 90 0 l 90 1017 l 271 1017 l 271 904 q 333 997 288 964 q 444 1029 377 1029 m 72 1124 q 72 1126 72 1125 q 262 1304 72 1304 q 455 1128 453 1304 l 455 1118 l 353 1118 q 329 1187 352 1169 q 265 1204 306 1204 q 180 1161 195 1204 q 174 1120 174 1144 q 174 1115 174 1118 l 72 1115 l 72 1124 z "},"Ȕ":{"ha":692,"x_min":68,"x_max":609,"o":"m 254 1289 l 68 1535 l 198 1605 l 338 1325 l 254 1289 m 474 1289 l 316 1535 l 443 1605 l 557 1325 l 474 1289 m 609 307 q 547 64 609 142 q 346 -14 484 -14 q 145 64 208 -14 q 83 307 83 142 l 83 1194 l 264 1194 l 264 310 q 273 195 264 216 q 295 158 282 175 q 347 142 307 142 q 403 165 386 142 q 424 222 420 188 q 427 310 427 256 l 427 1194 l 609 1194 l 609 307 z "},"ȕ":{"ha":688,"x_min":73,"x_max":599,"o":"m 259 1115 l 73 1360 l 203 1430 l 342 1151 l 259 1115 m 479 1115 l 321 1360 l 448 1430 l 562 1151 l 479 1115 m 264 -13 q 83 231 83 -13 l 83 1017 l 263 1017 l 263 258 q 279 165 263 195 q 337 135 294 135 q 419 257 419 135 l 420 1017 l 599 1017 l 599 0 l 419 0 l 419 106 q 264 -13 376 -13 z "},"Ȗ":{"ha":692,"x_min":83,"x_max":609,"o":"m 609 307 q 547 64 609 142 q 346 -14 484 -14 q 145 64 208 -14 q 83 307 83 142 l 83 1194 l 264 1194 l 264 310 q 273 195 264 216 q 295 158 282 175 q 347 142 307 142 q 403 165 386 142 q 424 222 420 188 q 427 310 427 256 l 427 1194 l 609 1194 l 609 307 m 155 1298 q 155 1301 155 1299 q 345 1478 155 1478 q 538 1303 536 1478 l 538 1293 l 436 1292 q 412 1361 435 1343 q 349 1379 389 1379 q 264 1335 279 1379 q 258 1294 258 1318 q 258 1289 258 1292 l 155 1289 l 155 1298 z "},"ȗ":{"ha":688,"x_min":83,"x_max":599,"o":"m 264 -13 q 83 231 83 -13 l 83 1017 l 263 1017 l 263 258 q 279 165 263 195 q 337 135 294 135 q 419 257 419 135 l 420 1017 l 599 1017 l 599 0 l 419 0 l 419 106 q 264 -13 376 -13 m 157 1124 q 157 1126 157 1125 q 347 1304 157 1304 q 540 1128 538 1304 l 540 1118 l 437 1118 q 414 1187 437 1169 q 350 1204 391 1204 q 265 1161 280 1204 q 259 1120 259 1144 q 259 1115 259 1118 l 157 1115 l 157 1124 z "},"Ș":{"ha":614,"x_min":64,"x_max":570,"o":"m 242 -496 l 279 -290 l 201 -290 l 201 -112 l 387 -112 l 387 -284 l 324 -496 l 242 -496 m 66 336 l 66 442 l 238 442 l 238 322 q 255 182 238 222 q 319 142 272 142 q 381 175 366 142 q 396 283 396 208 q 369 415 396 359 q 283 532 342 471 l 195 623 q 99 756 133 687 q 64 916 64 825 q 121 1136 64 1064 q 317 1208 178 1208 q 506 1124 456 1208 q 555 880 555 1040 l 555 806 l 387 806 l 387 891 q 372 1016 387 978 q 315 1053 357 1053 q 254 1025 273 1053 q 235 939 235 996 q 254 848 235 882 q 323 762 273 814 l 421 655 q 533 493 495 575 q 570 314 570 411 q 514 66 570 146 q 317 -14 458 -14 q 121 76 176 -14 q 66 336 66 165 z "},"ș":{"ha":588,"x_min":56,"x_max":543,"o":"m 223 -496 l 260 -290 l 182 -290 l 182 -112 l 368 -112 l 368 -284 l 305 -496 l 223 -496 m 56 780 q 296 1029 56 1029 q 470 961 415 1029 q 526 734 526 893 l 526 679 l 365 679 l 365 746 q 349 849 365 815 q 297 882 334 882 q 244 861 261 882 q 227 789 227 840 q 298 640 227 709 l 395 552 q 543 248 543 414 q 484 52 543 117 q 301 -13 425 -13 q 118 58 177 -13 q 59 286 59 129 l 59 351 l 228 351 l 228 269 q 297 134 228 134 q 350 158 334 134 q 366 239 366 182 q 273 428 366 341 q 229 467 270 431 q 181 511 188 504 q 56 780 56 625 z "},"Ț":{"ha":477,"x_min":11,"x_max":466,"o":"m 171 -496 l 208 -290 l 130 -290 l 130 -112 l 315 -112 l 315 -284 l 253 -496 l 171 -496 m 151 0 l 151 1036 l 11 1036 l 11 1194 l 466 1194 l 466 1036 l 332 1036 l 332 0 l 151 0 z "},"ț":{"ha":437,"x_min":32,"x_max":397,"o":"m 183 -496 l 220 -290 l 142 -290 l 142 -112 l 328 -112 l 328 -284 l 265 -496 l 183 -496 m 275 -7 q 147 30 180 -7 q 115 155 115 66 l 115 866 l 32 866 l 32 996 l 115 996 l 115 1194 l 294 1194 l 294 996 l 393 996 l 393 866 l 294 866 l 294 186 q 313 140 294 151 q 397 130 332 130 l 397 -7 l 275 -7 z "},"ȷ":{"ha":385,"x_min":44,"x_max":297,"o":"m 44 22 l 62 21 l 75 21 q 117 66 117 24 l 117 1017 l 297 1017 l 297 73 q 259 -65 297 -20 q 153 -113 221 -111 q 100 -113 140 -113 q 44 -102 60 -113 l 44 22 z "},"ˆ":{"ha":658,"x_min":98,"x_max":559,"o":"m 98 1090 l 227 1319 l 431 1319 l 559 1090 l 387 1090 l 329 1251 l 271 1090 l 98 1090 z "},"ˇ":{"ha":658,"x_min":98,"x_max":559,"o":"m 227 1090 l 98 1320 l 271 1320 l 329 1159 l 387 1320 l 559 1320 l 431 1090 l 227 1090 z "},"ˉ":{"ha":472,"x_min":61,"x_max":411,"o":"m 61 345 l 61 503 l 411 503 l 411 345 l 61 345 z "},"˘":{"ha":689,"x_min":153,"x_max":535,"o":"m 535 1274 q 344 1095 535 1095 q 153 1273 153 1095 l 153 1283 l 254 1283 q 278 1213 254 1232 q 344 1195 301 1195 q 410 1213 387 1195 q 433 1283 433 1231 l 535 1283 l 535 1274 z "},"˙":{"ha":388,"x_min":104,"x_max":288,"o":"m 104 608 l 104 761 l 288 761 l 288 608 l 104 608 z "},"˚":{"ha":626,"x_min":155,"x_max":471,"o":"m 254 705 q 265 691 254 705 q 313 678 275 678 q 373 705 351 678 q 394 767 394 731 q 373 829 394 803 q 313 855 351 855 q 254 829 275 855 q 233 767 233 803 q 254 705 233 731 m 471 766 q 471 733 471 766 q 428 657 471 700 q 313 614 386 614 q 197 657 240 614 q 155 766 155 700 q 197 876 155 833 q 313 918 240 918 q 428 876 386 918 q 471 766 471 833 z "},"˛":{"ha":688,"x_min":243,"x_max":551,"o":"m 436 -425 q 293 -380 343 -425 q 243 -263 243 -336 q 290 -119 243 -190 q 423 0 336 -48 l 496 0 q 374 -230 374 -128 q 401 -295 374 -273 q 468 -317 429 -317 q 551 -307 507 -317 l 551 -401 q 503 -416 537 -408 q 436 -425 468 -425 z "},"˜":{"ha":758,"x_min":151,"x_max":605,"o":"m 599 734 q 557 641 585 667 q 491 614 530 614 q 385 642 452 614 q 298 670 317 670 q 268 668 279 670 q 239 629 258 665 l 151 664 q 202 759 170 730 q 273 787 235 787 q 382 762 311 787 q 468 737 454 737 l 471 737 q 491 748 482 739 q 509 785 499 758 l 605 766 l 599 734 z "},"˝":{"ha":882,"x_min":228,"x_max":740,"o":"m 304 646 l 228 678 l 330 977 l 471 911 l 304 646 m 532 643 l 456 678 l 597 977 l 740 909 l 532 643 z "},"̇":{"ha":388,"x_min":73,"x_max":315,"o":"m 73 648 l 73 850 l 315 850 l 315 648 l 73 648 z "},"̏":{"ha":559,"x_min":2,"x_max":491,"o":"m 188 1115 l 2 1360 l 132 1430 l 271 1151 l 188 1115 m 408 1115 l 250 1360 l 376 1430 l 491 1151 l 408 1115 z "},"̑":{"ha":689,"x_min":151,"x_max":535,"o":"m 152 1124 q 152 1126 152 1125 q 342 1304 152 1304 q 535 1128 533 1304 l 535 1118 l 433 1118 q 409 1187 432 1169 q 345 1204 386 1204 q 260 1161 275 1204 q 254 1120 254 1144 q 254 1115 254 1118 l 152 1115 l 152 1124 z "},"̦":{"ha":358,"x_min":82,"x_max":267,"o":"m 123 -381 l 160 -175 l 82 -175 l 82 3 l 267 3 l 267 -169 l 205 -381 l 123 -381 z "},"Δ":{"ha":625,"x_min":23,"x_max":602,"o":"m 208 122 l 415 122 l 322 762 l 300 762 l 208 122 m 23 0 l 188 918 l 435 918 l 602 0 l 23 0 z "},"Ω":{"ha":673,"x_min":32,"x_max":641,"o":"m 32 0 l 32 136 l 142 136 q 56 332 71 243 q 49 427 49 376 l 49 806 q 122 1018 49 945 q 336 1090 195 1090 q 551 1018 477 1090 q 624 806 624 945 l 624 427 q 596 258 624 323 q 531 136 568 193 l 641 136 l 641 0 l 372 0 l 372 137 q 435 394 435 169 l 435 821 q 406 904 435 874 q 336 933 376 933 q 267 904 296 933 q 238 821 238 874 l 238 394 q 254 232 238 311 q 300 137 271 153 l 300 0 l 32 0 z "},"μ":{"ha":693,"x_min":83,"x_max":599,"o":"m 420 1017 l 599 1017 l 599 0 l 419 0 l 419 106 q 264 -13 376 -13 l 257 -13 l 257 -126 l 83 -126 l 83 1017 l 263 1017 l 263 258 q 279 165 263 195 q 337 135 294 135 q 420 257 418 135 l 420 1017 z "},"π":{"ha":327,"x_min":0,"x_max":0,"o":""},"Ḃ":{"ha":675,"x_min":96,"x_max":623,"o":"m 268 1291 l 268 1444 l 452 1444 l 452 1291 l 268 1291 m 600 887 q 496 650 600 694 q 623 369 623 608 l 623 338 q 561 79 622 159 q 360 0 499 0 l 96 0 l 96 1194 l 355 1194 q 544 1132 488 1194 q 600 924 600 1069 l 600 887 m 278 141 l 342 141 q 418 178 397 141 q 440 312 440 216 l 440 408 q 422 537 440 499 q 355 574 405 574 l 278 574 l 278 141 m 278 711 l 345 711 q 407 741 392 711 q 421 863 421 770 l 421 935 q 402 1028 420 1004 q 339 1051 384 1051 l 278 1051 l 278 711 z "},"ḃ":{"ha":675,"x_min":90,"x_max":601,"o":"m 253 1286 l 253 1440 l 437 1440 l 437 1286 l 253 1286 m 269 95 l 269 0 l 90 0 l 90 1204 l 269 1204 l 269 944 q 321 1006 284 982 q 402 1029 359 1029 q 574 913 532 1029 q 600 725 600 838 l 600 294 q 600 292 600 293 q 502 12 600 71 q 416 -10 465 -10 q 413 -10 415 -10 q 269 95 309 -9 m 269 309 q 286 175 269 217 q 348 134 302 134 q 407 174 393 134 q 420 311 420 214 l 420 728 q 388 873 420 849 q 351 884 374 884 q 288 850 307 884 q 269 728 269 817 l 269 309 z "},"Ḋ":{"ha":682,"x_min":89,"x_max":608,"o":"m 247 1272 l 247 1426 l 431 1426 l 431 1272 l 247 1272 m 271 141 l 330 141 q 403 174 380 141 q 426 293 426 206 l 425 882 q 402 1015 425 975 q 324 1054 380 1054 l 271 1054 l 271 141 m 89 0 l 89 1194 l 357 1194 q 548 1116 488 1194 q 607 887 607 1038 l 608 349 q 548 84 608 168 q 351 0 488 0 l 89 0 z "},"ḋ":{"ha":677,"x_min":75,"x_max":587,"o":"m 239 1286 l 239 1440 l 423 1440 l 423 1286 l 239 1286 m 262 -10 q 139 36 180 -10 q 86 153 98 82 q 75 325 75 224 l 75 739 q 121 948 75 867 q 276 1029 168 1029 q 353 1009 318 1029 q 408 954 388 989 l 408 1204 l 587 1204 l 587 0 l 408 0 l 408 94 q 262 -10 367 -10 m 256 300 q 272 175 256 216 q 331 133 288 133 q 392 175 375 133 q 408 314 408 216 l 408 721 q 370 873 408 846 q 331 884 354 884 q 271 842 286 884 q 256 719 256 801 l 256 300 z "},"Ḟ":{"ha":540,"x_min":89,"x_max":498,"o":"m 201 1291 l 201 1444 l 385 1444 l 385 1291 l 201 1291 m 89 0 l 89 1194 l 498 1194 l 498 1036 l 271 1036 l 271 718 l 482 718 l 482 559 l 271 559 l 271 0 l 89 0 z "},"ḟ":{"ha":432,"x_min":39,"x_max":400,"o":"m 196 1293 l 196 1446 l 380 1446 l 380 1293 l 196 1293 m 117 0 l 117 848 l 39 848 l 39 977 l 118 977 l 118 1030 q 162 1163 118 1116 q 281 1210 207 1210 q 400 1193 355 1210 l 400 1080 q 353 1083 380 1083 q 297 1025 297 1083 l 297 977 l 400 977 l 400 848 l 297 848 l 297 0 l 117 0 z "},"Ṁ":{"ha":962,"x_min":90,"x_max":871,"o":"m 397 1272 l 397 1426 l 581 1426 l 581 1272 l 397 1272 m 90 0 l 90 1194 l 315 1194 l 485 321 l 644 1194 l 871 1194 l 871 0 l 709 0 l 709 445 l 716 853 l 555 5 l 411 5 l 243 853 l 250 445 l 250 0 l 90 0 z "},"ṁ":{"ha":1021,"x_min":90,"x_max":937,"o":"m 473 1096 l 473 1249 l 657 1249 l 657 1096 l 473 1096 m 758 0 l 758 781 q 690 882 758 882 q 626 854 648 882 q 604 772 604 825 l 604 0 l 424 0 l 424 783 q 357 882 424 882 q 291 849 313 882 q 269 762 269 815 l 269 0 l 90 0 l 90 1017 l 269 1017 l 269 907 q 326 997 285 964 q 432 1029 366 1029 q 583 927 545 1029 q 755 1029 637 1029 q 894 966 851 1029 q 937 779 937 902 l 937 0 l 758 0 z "},"Ṗ":{"ha":640,"x_min":90,"x_max":608,"o":"m 233 1272 l 233 1426 l 416 1426 l 416 1272 l 233 1272 m 90 0 l 90 1194 l 363 1194 q 554 1109 503 1194 q 608 857 605 1025 l 608 832 q 557 563 608 654 q 370 471 507 471 l 271 471 l 271 0 l 90 0 m 271 621 l 334 621 q 409 665 391 621 q 426 834 426 709 l 426 857 q 407 1008 425 963 q 335 1054 389 1054 l 271 1054 l 271 621 z "},"ṗ":{"ha":677,"x_min":90,"x_max":602,"o":"m 323 1112 l 323 1265 l 507 1265 l 507 1112 l 323 1112 m 90 -193 l 90 1017 l 269 1017 l 269 926 q 330 1001 288 974 q 416 1027 371 1027 q 495 1011 461 1027 q 580 904 558 981 q 602 711 602 827 l 602 340 q 568 91 602 161 q 475 0 533 20 q 400 -12 441 -12 q 325 9 359 -12 q 269 62 290 30 l 269 -193 l 90 -193 m 269 298 q 286 173 269 213 q 347 134 302 134 q 406 175 391 134 q 421 305 421 216 l 421 727 q 388 873 421 849 q 350 884 373 884 q 289 851 309 884 q 269 728 269 817 l 269 298 z "},"Ṡ":{"ha":614,"x_min":64,"x_max":570,"o":"m 233 1271 l 233 1424 l 416 1424 l 416 1271 l 233 1271 m 66 336 l 66 442 l 238 442 l 238 322 q 255 182 238 222 q 319 142 272 142 q 381 175 366 142 q 396 283 396 208 q 369 415 396 359 q 283 532 342 471 l 195 623 q 99 756 133 687 q 64 916 64 825 q 121 1136 64 1064 q 317 1208 178 1208 q 506 1124 456 1208 q 555 880 555 1040 l 555 806 l 387 806 l 387 891 q 372 1016 387 978 q 315 1053 357 1053 q 254 1025 273 1053 q 235 939 235 996 q 254 848 235 882 q 323 762 273 814 l 421 655 q 533 493 495 575 q 570 314 570 411 q 514 66 570 146 q 317 -14 458 -14 q 121 76 176 -14 q 66 336 66 165 z "},"ṡ":{"ha":588,"x_min":56,"x_max":543,"o":"m 216 1096 l 216 1249 l 400 1249 l 400 1096 l 216 1096 m 56 780 q 296 1029 56 1029 q 470 961 415 1029 q 526 734 526 893 l 526 679 l 365 679 l 365 746 q 349 849 365 815 q 297 882 334 882 q 244 861 261 882 q 227 789 227 840 q 298 640 227 709 l 395 552 q 543 248 543 414 q 484 52 543 117 q 301 -13 425 -13 q 118 58 177 -13 q 59 286 59 129 l 59 351 l 228 351 l 228 269 q 297 134 228 134 q 350 158 334 134 q 366 239 366 182 q 273 428 366 341 q 229 467 270 431 q 181 511 188 504 q 56 780 56 625 z "},"Ṫ":{"ha":477,"x_min":11,"x_max":466,"o":"m 149 1272 l 149 1426 l 332 1426 l 332 1272 l 149 1272 m 151 0 l 151 1036 l 11 1036 l 11 1194 l 466 1194 l 466 1036 l 332 1036 l 332 0 l 151 0 z "},"ṫ":{"ha":437,"x_min":32,"x_max":397,"o":"m 113 1277 l 113 1430 l 296 1430 l 296 1277 l 113 1277 m 275 -7 q 147 30 180 -7 q 115 155 115 66 l 115 866 l 32 866 l 32 996 l 115 996 l 115 1194 l 294 1194 l 294 996 l 393 996 l 393 866 l 294 866 l 294 186 q 313 140 294 151 q 397 130 332 130 l 397 -7 l 275 -7 z "},"Ẁ":{"ha":941,"x_min":41,"x_max":901,"o":"m 615 1280 l 335 1344 l 335 1524 l 615 1386 l 615 1280 m 186 0 l 41 1194 l 203 1194 l 291 343 l 402 1194 l 549 1194 l 661 343 l 738 1194 l 901 1194 l 764 0 l 583 0 l 477 793 l 368 0 l 186 0 z "},"ẁ":{"ha":848,"x_min":30,"x_max":817,"o":"m 568 1104 l 288 1168 l 288 1348 l 568 1210 l 568 1104 m 531 0 l 428 764 l 318 0 l 166 0 l 30 1017 l 181 1017 l 233 588 l 256 370 l 260 370 l 282 589 l 342 1017 l 503 1017 l 569 597 l 597 370 l 602 370 l 621 596 l 667 1017 l 817 1017 l 688 0 l 531 0 z "},"Ẃ":{"ha":941,"x_min":41,"x_max":901,"o":"m 186 0 l 41 1194 l 203 1194 l 291 343 l 402 1194 l 549 1194 l 661 343 l 738 1194 l 901 1194 l 764 0 l 583 0 l 477 793 l 368 0 l 186 0 m 339 1287 l 339 1393 l 638 1523 l 638 1348 l 339 1287 z "},"ẃ":{"ha":848,"x_min":30,"x_max":817,"o":"m 531 0 l 428 764 l 318 0 l 166 0 l 30 1017 l 181 1017 l 233 588 l 256 370 l 260 370 l 282 589 l 342 1017 l 503 1017 l 569 597 l 597 370 l 602 370 l 621 596 l 667 1017 l 817 1017 l 688 0 l 531 0 m 288 1111 l 288 1217 l 587 1347 l 587 1172 l 288 1111 z "},"Ẅ":{"ha":941,"x_min":41,"x_max":901,"o":"m 186 0 l 41 1194 l 203 1194 l 291 343 l 402 1194 l 549 1194 l 661 343 l 738 1194 l 901 1194 l 764 0 l 583 0 l 477 793 l 368 0 l 186 0 m 218 1277 l 218 1430 l 410 1430 l 410 1277 l 218 1277 m 547 1277 l 547 1430 l 738 1430 l 738 1277 l 547 1277 z "},"ẅ":{"ha":848,"x_min":30,"x_max":817,"o":"m 531 0 l 428 764 l 318 0 l 166 0 l 30 1017 l 181 1017 l 233 588 l 256 370 l 260 370 l 282 589 l 342 1017 l 503 1017 l 569 597 l 597 370 l 602 370 l 621 596 l 667 1017 l 817 1017 l 688 0 l 531 0 m 168 1101 l 168 1254 l 359 1254 l 359 1101 l 168 1101 m 496 1101 l 496 1254 l 687 1254 l 687 1101 l 496 1101 z "},"Ỳ":{"ha":585,"x_min":6,"x_max":578,"o":"m 436 1280 l 156 1344 l 156 1524 l 436 1386 l 436 1280 m 206 0 l 206 477 l 6 1194 l 180 1194 l 298 747 l 300 747 l 406 1194 l 578 1194 l 388 477 l 388 0 l 206 0 z "},"ỳ":{"ha":578,"x_min":28,"x_max":561,"o":"m 433 1104 l 153 1168 l 153 1348 l 433 1210 l 433 1104 m 60 -180 l 60 -56 l 119 -56 q 171 -50 153 -56 q 192 -28 190 -45 q 196 -3 196 -22 q 191 46 196 15 l 28 1018 l 199 1018 l 264 497 l 292 223 l 307 223 l 331 497 l 391 1018 l 561 1018 l 385 -43 q 346 -150 373 -120 q 251 -180 319 -180 l 60 -180 z "},"–":{"ha":513,"x_min":81,"x_max":431,"o":"m 81 345 l 81 503 l 431 503 l 431 345 l 81 345 z "},"—":{"ha":782,"x_min":41,"x_max":741,"o":"m 41 345 l 41 503 l 741 503 l 741 345 l 41 345 z "},"‘":{"ha":397,"x_min":81,"x_max":317,"o":"m 81 722 l 81 906 l 173 1204 l 277 1204 l 214 912 l 317 912 l 317 722 l 81 722 z "},"’":{"ha":397,"x_min":87,"x_max":324,"o":"m 127 722 l 191 1013 l 87 1013 l 87 1204 l 324 1204 l 324 1019 l 232 722 l 127 722 z "},"‚":{"ha":328,"x_min":54,"x_max":279,"o":"m 94 -220 l 146 0 l 54 0 l 54 175 l 279 175 l 279 6 l 205 -220 l 94 -220 z "},"“":{"ha":699,"x_min":95,"x_max":635,"o":"m 95 774 l 95 945 l 170 1204 l 281 1204 l 228 951 l 319 951 l 319 774 l 95 774 m 411 774 l 411 945 l 486 1204 l 597 1204 l 544 951 l 635 951 l 635 774 l 411 774 z "},"”":{"ha":730,"x_min":105,"x_max":646,"o":"m 144 774 l 197 1026 l 105 1026 l 105 1204 l 330 1204 l 330 1032 l 255 774 l 144 774 m 460 774 l 513 1026 l 421 1026 l 421 1204 l 646 1204 l 646 1032 l 571 774 l 460 774 z "},"„":{"ha":689,"x_min":102,"x_max":642,"o":"m 141 -253 l 194 0 l 102 0 l 102 177 l 326 177 l 326 5 l 252 -253 l 141 -253 m 457 -253 l 510 0 l 418 0 l 418 177 l 642 177 l 642 5 l 568 -253 l 457 -253 z "},"†":{"ha":616,"x_min":62,"x_max":555,"o":"m 218 0 l 218 654 l 62 654 l 62 802 l 218 802 l 218 1080 l 401 1080 l 401 802 l 555 802 l 555 654 l 401 654 l 401 0 l 218 0 z "},"‡":{"ha":616,"x_min":62,"x_max":555,"o":"m 218 450 l 218 654 l 62 654 l 62 802 l 218 802 l 218 1080 l 401 1080 l 401 802 l 555 802 l 555 654 l 401 654 l 401 450 l 555 450 l 555 303 l 401 303 l 401 0 l 218 0 l 218 303 l 62 303 l 62 450 l 218 450 z "},"•":{"ha":584,"x_min":112,"x_max":472,"o":"m 425 358 q 401 332 425 358 q 292 306 378 306 q 159 358 205 306 q 112 503 112 410 q 159 647 112 595 q 292 699 205 699 q 425 647 378 699 q 472 503 472 595 q 425 358 472 410 z "},"‰":{"ha":2107,"x_min":88,"x_max":2020,"o":"m 258 548 q 266 534 258 548 q 317 521 275 521 q 377 548 360 521 q 393 637 393 574 l 393 970 q 378 1056 393 1031 q 318 1081 362 1081 q 257 1056 273 1081 q 241 970 241 1031 l 241 637 q 258 548 241 574 m 492 463 q 465 428 492 463 q 317 393 437 393 q 143 463 197 393 q 88 682 88 532 l 88 924 q 141 1142 88 1076 q 317 1208 193 1208 q 494 1142 441 1208 q 547 924 547 1076 l 547 682 q 492 463 547 532 m 1129 140 q 1137 127 1129 140 q 1188 113 1145 113 q 1247 140 1231 113 q 1264 229 1264 167 l 1264 563 q 1249 649 1264 624 q 1188 673 1233 673 q 1128 649 1144 673 q 1112 563 1112 624 l 1112 229 q 1129 140 1112 167 m 1363 55 q 1335 21 1363 55 q 1188 -14 1308 -14 q 1014 55 1068 -14 q 959 274 959 125 l 959 517 q 1011 734 959 668 q 1188 800 1064 800 q 1365 734 1312 800 q 1417 517 1417 668 l 1417 274 q 1363 55 1417 125 m 1714 229 q 1730 140 1714 168 q 1790 113 1747 113 q 1850 140 1833 113 q 1866 229 1866 168 l 1866 563 q 1850 649 1866 624 q 1790 673 1834 673 q 1730 649 1746 673 q 1714 563 1714 624 l 1714 229 m 2020 274 q 1965 55 2020 125 q 1790 -14 1910 -14 q 1615 55 1670 -14 q 1560 274 1560 125 l 1560 517 q 1613 734 1560 668 q 1790 800 1666 800 q 1967 734 1914 800 q 2020 517 2020 668 l 2020 274 m 449 0 l 913 1194 l 1052 1194 l 593 0 l 449 0 z "},"‹":{"ha":411,"x_min":39,"x_max":372,"o":"m 372 222 l 39 415 l 39 602 l 372 785 l 372 604 l 160 508 l 372 406 l 372 222 z "},"›":{"ha":493,"x_min":94,"x_max":427,"o":"m 94 222 l 94 406 l 306 508 l 94 604 l 94 785 l 427 602 l 427 415 l 94 222 z "},"⁄":{"ha":562,"x_min":39,"x_max":506,"o":"m 39 0 l 357 1198 l 506 1198 l 187 0 l 39 0 z "},"⁴":{"ha":578,"x_min":102,"x_max":499,"o":"m 323 410 l 323 550 l 102 550 l 102 637 l 271 1194 l 449 1194 l 449 651 l 499 651 l 499 550 l 449 550 l 449 410 l 323 410 m 218 651 l 323 651 l 323 1030 l 218 651 z "},"€":{"ha":730,"x_min":16,"x_max":593,"o":"m 593 326 q 532 70 593 153 q 338 -14 470 -14 q 140 75 205 -14 q 75 330 75 163 l 75 492 l 16 492 l 16 589 l 75 589 l 75 655 l 16 655 l 16 747 l 75 747 l 75 850 q 214 1183 75 1116 q 339 1207 266 1207 q 591 890 591 1207 l 591 726 l 415 726 l 415 878 q 399 1010 415 970 q 338 1050 384 1050 q 275 1008 293 1050 q 258 879 258 966 l 258 747 l 372 747 l 372 655 l 258 655 l 258 589 l 372 589 l 372 492 l 258 492 l 258 321 q 275 184 258 225 q 336 142 292 142 q 398 184 381 142 q 415 323 415 227 l 415 494 l 593 494 l 593 326 z "},"™":{"ha":1137,"x_min":56,"x_max":1059,"o":"m 471 344 l 471 1194 l 665 1194 l 766 599 l 863 1194 l 1059 1194 l 1059 344 l 931 344 l 931 675 l 936 996 l 829 344 l 704 344 l 592 996 l 597 675 l 597 344 l 471 344 m 157 344 l 157 1080 l 56 1080 l 56 1194 l 388 1194 l 388 1080 l 291 1080 l 291 344 l 157 344 z "},"∂":{"ha":727,"x_min":111,"x_max":631,"o":"m 489 884 q 372 1004 489 1004 q 253 987 332 1004 l 230 1097 q 390 1122 320 1122 q 513 1100 460 1122 q 598 1024 566 1078 q 631 878 631 970 q 624 786 631 836 l 529 167 q 379 -6 509 37 q 305 -18 343 -18 q 168 37 226 -18 q 111 193 111 92 q 114 239 111 212 q 124 318 118 265 q 133 392 130 372 q 141 451 136 413 q 151 508 146 488 q 164 558 156 528 q 180 606 172 589 q 200 645 189 623 q 225 679 212 667 q 264 708 239 691 q 342 724 289 724 q 465 701 395 724 l 488 858 q 489 884 489 871 m 439 596 q 376 611 403 611 q 305 505 321 611 l 266 242 q 262 178 262 203 q 311 119 262 119 q 380 204 371 119 l 439 596 z "},"∏":{"ha":701,"x_min":92,"x_max":608,"o":"m 92 0 l 92 1194 l 608 1194 l 608 0 l 430 0 l 430 1046 l 271 1046 l 271 0 l 92 0 z "},"∑":{"ha":552,"x_min":77,"x_max":482,"o":"m 77 0 l 77 150 l 264 597 l 77 1055 l 77 1194 l 482 1194 l 482 1052 l 262 1052 l 438 597 l 262 153 l 482 153 l 482 0 l 77 0 z "},"−":{"ha":432,"x_min":41,"x_max":391,"o":"m 41 345 l 41 503 l 391 503 l 391 345 l 41 345 z "},"∕":{"ha":562,"x_min":39,"x_max":506,"o":"m 39 0 l 357 1198 l 506 1198 l 187 0 l 39 0 z "},"√":{"ha":859,"x_min":67,"x_max":795,"o":"m 195 0 l 67 503 l 243 503 l 293 195 l 448 1017 l 795 1017 l 795 882 l 594 882 l 415 0 l 195 0 z "},"∞":{"ha":882,"x_min":73,"x_max":802,"o":"m 618 298 q 433 397 511 298 q 352 333 401 360 q 251 307 303 307 q 119 359 164 307 q 73 503 73 411 q 119 646 73 595 q 256 697 165 697 q 433 600 347 697 q 613 706 519 706 q 754 652 707 706 q 802 504 802 599 q 754 353 802 408 q 618 298 707 298 m 391 502 q 288 549 343 549 q 233 502 233 549 q 287 454 233 454 q 391 502 341 454 m 475 502 q 583 454 524 454 q 643 502 643 454 q 585 550 643 550 q 475 502 528 550 z "},"∫":{"ha":520,"x_min":78,"x_max":442,"o":"m 346 150 q 197 -12 346 -12 q 78 5 131 -12 l 78 126 q 111 123 104 123 q 161 140 151 123 q 172 207 172 157 l 172 1044 q 318 1209 172 1209 q 442 1188 386 1209 l 442 1067 q 387 1076 408 1076 q 346 1006 346 1076 l 346 150 z "},"≈":{"ha":758,"x_min":71,"x_max":688,"o":"m 523 221 q 386 257 484 221 q 251 292 288 292 q 188 229 214 292 l 71 284 q 239 465 126 465 q 379 432 277 465 q 490 399 480 399 q 561 475 538 399 l 688 446 q 642 334 674 393 q 523 221 581 221 m 523 555 q 386 591 484 555 q 251 627 288 627 q 188 564 214 627 l 71 618 q 239 800 126 800 q 379 767 277 800 q 490 734 480 734 q 561 809 538 734 l 688 781 q 642 668 674 727 q 523 555 581 555 z "},"≠":{"ha":600,"x_min":70,"x_max":530,"o":"m 104 0 l 173 379 l 70 379 l 70 536 l 201 536 l 220 639 l 70 639 l 70 791 l 248 791 l 321 1197 l 490 1197 l 414 791 l 530 791 l 530 639 l 386 639 l 366 536 l 530 536 l 530 379 l 337 379 l 266 0 l 104 0 z "},"≤":{"ha":530,"x_min":56,"x_max":445,"o":"m 445 194 l 56 444 l 56 642 l 445 890 l 445 703 l 176 543 l 445 378 l 445 194 m 76 0 l 76 121 l 435 121 l 435 0 l 76 0 z "},"≥":{"ha":530,"x_min":73,"x_max":462,"o":"m 73 194 l 73 378 l 341 543 l 73 703 l 73 890 l 462 642 l 462 444 l 73 194 m 80 0 l 80 121 l 440 121 l 440 0 l 80 0 z "},"◊":{"ha":625,"x_min":23,"x_max":602,"o":"m 300 121 l 322 121 l 413 484 l 322 846 l 300 846 l 210 484 l 300 121 m 188 0 l 23 484 l 188 974 l 439 974 l 602 484 l 439 0 l 188 0 z "},"":{"ha":222,"x_min":0,"x_max":0,"o":""},"ﬀ":{"ha":864,"x_min":39,"x_max":832,"o":"m 832 1193 l 832 1080 q 785 1083 812 1083 q 729 1025 730 1083 l 729 977 l 832 977 l 832 848 l 729 848 l 729 0 l 549 0 l 549 848 l 297 848 l 297 0 l 117 0 l 117 848 l 39 848 l 39 977 l 118 977 l 118 1030 q 162 1163 118 1116 q 281 1210 207 1210 q 400 1193 355 1210 l 400 1080 q 353 1083 380 1083 q 297 1025 297 1083 l 297 977 l 550 977 l 550 1030 q 594 1163 550 1116 q 713 1210 639 1210 q 832 1193 787 1210 z "},"ﬁ":{"ha":794,"x_min":39,"x_max":704,"o":"m 297 1017 l 704 1017 l 704 0 l 524 0 l 524 888 l 297 888 l 297 0 l 117 0 l 117 888 l 39 888 l 39 1017 l 118 1017 l 118 1062 q 162 1195 118 1147 q 281 1242 207 1242 q 400 1225 355 1242 l 400 1112 q 353 1115 380 1115 q 297 1057 297 1115 l 297 1017 m 524 1221 l 704 1221 l 704 1090 l 524 1090 l 524 1221 z "},"ﬂ":{"ha":794,"x_min":39,"x_max":703,"o":"m 334 1219 q 703 1178 463 1219 l 703 0 l 524 0 l 524 1080 q 397 1100 435 1100 q 335 1093 359 1100 q 297 1040 297 1082 l 297 977 l 400 977 l 400 848 l 297 848 l 297 0 l 117 0 l 117 848 l 39 848 l 39 977 l 118 977 l 118 1030 q 153 1171 118 1136 q 236 1212 187 1205 q 334 1219 285 1219 z "},"ﬃ":{"ha":1226,"x_min":39,"x_max":1136,"o":"m 729 1017 l 1136 1017 l 1136 0 l 956 0 l 956 888 l 729 888 l 729 0 l 549 0 l 549 888 l 297 888 l 297 0 l 117 0 l 117 888 l 39 888 l 39 1017 l 118 1017 l 118 1065 q 162 1198 118 1151 q 281 1245 207 1245 q 400 1228 355 1245 l 400 1116 q 353 1118 380 1118 q 297 1060 297 1118 l 297 1017 l 550 1017 l 550 1065 q 594 1198 550 1151 q 713 1245 639 1245 q 832 1228 787 1245 l 832 1116 q 785 1118 812 1118 q 729 1060 730 1118 l 729 1017 m 956 1221 l 1136 1221 l 1136 1090 l 956 1090 l 956 1221 z "},"ﬄ":{"ha":1226,"x_min":39,"x_max":1135,"o":"m 550 977 l 550 1030 q 585 1171 550 1136 q 668 1212 619 1205 q 766 1219 717 1219 q 1135 1178 895 1219 l 1135 0 l 956 0 l 956 1080 q 829 1100 867 1100 q 767 1093 791 1100 q 729 1040 729 1082 l 729 977 l 832 977 l 832 848 l 729 848 l 729 0 l 549 0 l 549 848 l 297 848 l 297 0 l 117 0 l 117 848 l 39 848 l 39 977 l 118 977 l 118 1030 q 162 1163 118 1116 q 281 1210 207 1210 q 400 1193 355 1210 l 400 1080 q 353 1083 380 1083 q 297 1025 297 1083 l 297 977 l 550 977 z "}}}
